<svg xmlns="http://www.w3.org/2000/svg" viewBox="0 0 1280 800" fill="none" font-family="'IBM Plex Sans','Segoe UI',sans-serif">
  <defs>
    <linearGradient id="bg" x1="0" y1="0" x2="1280" y2="800" gradientUnits="userSpaceOnUse">
      <stop stop-color="#081325"/><stop offset="1" stop-color="#050b16"/>
    </linearGradient>
    <linearGradient id="g" x1="0" y1="0" x2="1" y2="1">
      <stop stop-color="#34c97f"/><stop offset="1" stop-color="#215877"/>
    </linearGradient>
    <linearGradient id="area" x1="0" y1="0" x2="0" y2="1">
      <stop stop-color="#2bb673" stop-opacity="0.5"/><stop offset="1" stop-color="#2bb673" stop-opacity="0"/>
    </linearGradient>
    <linearGradient id="area2" x1="0" y1="0" x2="0" y2="1">
      <stop stop-color="#2699d6" stop-opacity="0.45"/><stop offset="1" stop-color="#2699d6" stop-opacity="0"/>
    </linearGradient>
  </defs>
  <rect width="1280" height="800" fill="url(#bg)"/>

  <!-- sidebar -->
  <rect x="0" y="0" width="220" height="800" fill="#0a1830" fill-opacity="0.7"/>
  <g transform="translate(28,30)">
    <rect width="18" height="18" rx="4" fill="url(#g)"/>
    <text x="30" y="14" fill="#f2f6fc" font-size="15" font-weight="700">Najd AI</text>
  </g>
  <g fill="#8aa0bd" font-size="13" transform="translate(28,90)">
    <rect x="-10" y="-14" width="200" height="34" rx="8" fill="#2bb673" fill-opacity="0.12"/>
    <text y="8" fill="#34c97f" font-weight="600">Overview</text>
    <text y="52">Automation</text>
    <text y="92">Knowledge</text>
    <text y="132">Analytics</text>
    <text y="172">Agents</text>
    <text y="212">Compliance</text>
    <text y="252">Settings</text>
  </g>

  <!-- topbar -->
  <text x="260" y="48" fill="#f2f6fc" font-size="22" font-weight="700">Operations Intelligence</text>
  <text x="260" y="72" fill="#8aa0bd" font-size="13">Real-time enterprise AI dashboard</text>
  <rect x="980" y="30" width="270" height="40" rx="20" fill="#0a1830" stroke="#172844"/>
  <circle cx="1006" cy="50" r="5" fill="#2bb673"/>
  <text x="1022" y="55" fill="#8aa0bd" font-size="12">All systems operational</text>

  <!-- KPI cards -->
  <g>
    <rect x="260" y="100" width="232" height="110" rx="14" fill="#0c1b33" stroke="#172844"/>
    <text x="282" y="134" fill="#8aa0bd" font-size="12">Calls automated</text>
    <text x="282" y="172" fill="#f2f6fc" font-size="30" font-weight="700">128,540</text>
    <text x="282" y="194" fill="#34c97f" font-size="12">▲ 18.2%</text>

    <rect x="514" y="100" width="232" height="110" rx="14" fill="#0c1b33" stroke="#172844"/>
    <text x="536" y="134" fill="#8aa0bd" font-size="12">Avg. handle time</text>
    <text x="536" y="172" fill="#f2f6fc" font-size="30" font-weight="700">1.2s</text>
    <text x="536" y="194" fill="#34c97f" font-size="12">▼ 34%</text>

    <rect x="768" y="100" width="232" height="110" rx="14" fill="#0c1b33" stroke="#172844"/>
    <text x="790" y="134" fill="#8aa0bd" font-size="12">CSAT (Arabic)</text>
    <text x="790" y="172" fill="#f2f6fc" font-size="30" font-weight="700">96.4%</text>
    <text x="790" y="194" fill="#34c97f" font-size="12">▲ 4.1%</text>

    <rect x="1020" y="100" width="232" height="110" rx="14" fill="#0c1b33" stroke="#172844"/>
    <text x="1042" y="134" fill="#8aa0bd" font-size="12">Compliance flags</text>
    <text x="1042" y="172" fill="#f2f6fc" font-size="30" font-weight="700">3</text>
    <text x="1042" y="194" fill="#2699d6" font-size="12">Resolved 99.9%</text>
  </g>

  <!-- area chart -->
  <rect x="260" y="234" width="640" height="320" rx="16" fill="#0c1b33" stroke="#172844"/>
  <text x="284" y="266" fill="#f2f6fc" font-size="15" font-weight="600">Engagement volume</text>
  <text x="284" y="286" fill="#8aa0bd" font-size="12">Last 30 days</text>
  <path d="M284 500 L344 470 L404 482 L464 430 L524 446 L584 392 L644 410 L704 350 L764 372 L824 318 L876 336 L876 524 L284 524 Z" fill="url(#area2)"/>
  <path d="M284 500 L344 470 L404 482 L464 430 L524 446 L584 392 L644 410 L704 350 L764 372 L824 318 L876 336" stroke="#2699d6" stroke-width="2.5" fill="none"/>
  <path d="M284 514 L344 500 L404 506 L464 470 L524 484 L584 452 L644 462 L704 430 L764 444 L824 408 L876 420 L876 524 L284 524 Z" fill="url(#area)"/>
  <path d="M284 514 L344 500 L404 506 L464 470 L524 484 L584 452 L644 462 L704 430 L764 444 L824 408 L876 420" stroke="#2bb673" stroke-width="2.5" fill="none"/>

  <!-- donut -->
  <rect x="920" y="234" width="332" height="320" rx="16" fill="#0c1b33" stroke="#172844"/>
  <text x="944" y="266" fill="#f2f6fc" font-size="15" font-weight="600">Channel mix</text>
  <g transform="translate(1086,400)">
    <circle r="78" fill="none" stroke="#152843" stroke-width="22"/>
    <circle r="78" fill="none" stroke="#2bb673" stroke-width="22" stroke-dasharray="220 490" transform="rotate(-90)"/>
    <circle r="78" fill="none" stroke="#2699d6" stroke-width="22" stroke-dasharray="140 490" stroke-dashoffset="-220" transform="rotate(-90)"/>
    <circle r="78" fill="none" stroke="#215877" stroke-width="22" stroke-dasharray="130 490" stroke-dashoffset="-360" transform="rotate(-90)"/>
    <text y="-2" text-anchor="middle" fill="#f2f6fc" font-size="24" font-weight="700">62%</text>
    <text y="18" text-anchor="middle" fill="#8aa0bd" font-size="11">WhatsApp</text>
  </g>

  <!-- bars -->
  <rect x="260" y="578" width="992" height="190" rx="16" fill="#0c1b33" stroke="#172844"/>
  <text x="284" y="610" fill="#f2f6fc" font-size="15" font-weight="600">Division performance</text>
  <g transform="translate(284,740)">
    <rect x="0" y="-92" width="48" height="92" rx="6" fill="url(#g)"/>
    <rect x="84" y="-120" width="48" height="120" rx="6" fill="url(#g)"/>
    <rect x="168" y="-70" width="48" height="70" rx="6" fill="url(#g)"/>
    <rect x="252" y="-104" width="48" height="104" rx="6" fill="url(#g)"/>
    <rect x="336" y="-58" width="48" height="58" rx="6" fill="url(#g)"/>
    <rect x="420" y="-128" width="48" height="128" rx="6" fill="url(#g)"/>
    <rect x="504" y="-84" width="48" height="84" rx="6" fill="url(#g)"/>
    <rect x="588" y="-110" width="48" height="110" rx="6" fill="#2699d6"/>
    <rect x="672" y="-66" width="48" height="66" rx="6" fill="#2699d6"/>
    <rect x="756" y="-96" width="48" height="96" rx="6" fill="#2699d6"/>
    <rect x="840" y="-74" width="48" height="74" rx="6" fill="#2699d6"/>
    <rect x="924" y="-116" width="48" height="116" rx="6" fill="#2699d6"/>
  </g>
</svg>
