<svg id="Layer_1" data-name="Layer 1" xmlns="http://www.w3.org/2000/svg" xmlns:xlink="http://www.w3.org/1999/xlink" viewBox="0 0 792 612"><defs><style>.cls-1{fill:url(#linear-gradient);}.cls-2{fill:#fff;}</style><linearGradient id="linear-gradient" x1="582.4" y1="425.92" x2="697.2" y2="227.35" gradientUnits="userSpaceOnUse"><stop offset="0" stop-color="#28295f"/><stop offset="0.61" stop-color="#0f6fae"/><stop offset="1" stop-color="#0098dd"/></linearGradient></defs><title>Artboard 4</title><path class="cls-1" d="M742,284.34a4.39,4.39,0,0,1,0-6.21l16.52-16.52a5.75,5.75,0,0,0,0-8.13l-36.33-36.33h-47.4l-.59.57-8.84,8.83-8.84-8.83-.59-.57h-47.4l-36.33,36.33a5.75,5.75,0,0,0,0,8.13l16.52,16.52a4.39,4.39,0,0,1,0,6.21l-20.58,20.58L593.16,330l24.28-24.28-21.38-21.38a4.39,4.39,0,0,1,0-6.21l24.89-24.89a15.71,15.71,0,0,1,22.23,0l.85.85a15.69,15.69,0,0,1,3.67,5.84V365.31a16.48,16.48,0,0,1-3.5,10.44A15.72,15.72,0,0,1,620.86,377L592.3,348.52l-20.17,20.17a5.75,5.75,0,0,0,0,8.13l35.69,35.69,44.8-.12a8.78,8.78,0,0,0,6.19-2.57l6.49-6.49,15.95-15.95.75-.77V265.2a15.95,15.95,0,0,1,4.59-11.1l.85-.85a15.71,15.71,0,0,1,22.23,0l24.89,24.89a4.39,4.39,0,0,1,0,6.21l-21.38,21.38L737.46,330l25.08-25.08Z"/><path class="cls-2" d="M241.34,302.73V191.13H224.17v94.44H112.41l21.29-21.29a37.34,37.34,0,0,1,26.58-11h39.53V236.1H160.28a54.76,54.76,0,0,0-38.72,16L99.14,274.56a38,38,0,0,1-3.35,2.94c-.35.27-.71.53-1.06.79q-1.3,1-2.68,1.79c-.38.23-.75.47-1.14.68a37.14,37.14,0,0,1-3.66,1.81l-.26.12a37.35,37.35,0,0,1-4.12,1.41,37.74,37.74,0,0,1-10.32,1.45v17.17H241.34Z"/><path class="cls-2" d="M519.49,284.57a37.32,37.32,0,0,1-4.12-1.41l-.26-.12a37,37,0,0,1-3.66-1.81c-.38-.22-.76-.45-1.14-.68q-1.37-.84-2.68-1.8c-.35-.26-.71-.51-1.06-.79a38.07,38.07,0,0,1-3.35-2.94l-22.42-22.42a54.75,54.75,0,0,0-38.72-16H398.54v17.17H442.1a37.34,37.34,0,0,1,26.58,11L490,286H372.53v-94.9H355.36V286H330.92V214.87H275.39l-11,17.08h-.06v1.41a54.39,54.39,0,0,0,16,38.72l22.42,22.42c4.7,4.7,11,12.22,11,18.82v18.4H170.86l19.42,17.17H330.92V303.19h198.9V286A37.74,37.74,0,0,1,519.49,284.57Zm-227-24.63a37.34,37.34,0,0,1-11-26.58V232h32.3v49.19Z"/><rect class="cls-2" x="467.55" y="335.27" width="17.17" height="17.17" transform="translate(-103.68 437.39) rotate(-45)"/><path class="cls-2" d="M447.07,380.85l-21.29-21.29a37.34,37.34,0,0,0-26.58-11H355.64V331.38H399.2a54.75,54.75,0,0,1,38.72,16l22.42,22.42a38,38,0,0,0,3.35,2.94c.35.27.71.53,1.06.79q1.3,1,2.68,1.8c.38.23.75.47,1.14.68a37.11,37.11,0,0,0,3.66,1.81l.26.12a37.32,37.32,0,0,0,4.12,1.41,37.75,37.75,0,0,0,10.3,1.45h19.75V331.38h17.17V398H72.56V380.85H164L142.7,359.56a37.34,37.34,0,0,0-26.58-11H72.56V331.38h43.56a54.39,54.39,0,0,1,38.72,16l22.42,22.42a38.34,38.34,0,0,0,3.34,2.94c.35.27.71.53,1.06.79q1.3,1,2.68,1.8c.38.23.75.47,1.14.69a37.15,37.15,0,0,0,3.64,1.81l.28.13a36.91,36.91,0,0,0,4.12,1.41,37.72,37.72,0,0,0,10.32,1.45Z"/><path class="cls-2" d="M72.89,438.2V419h5.48l6.38,15.25h.11V419h3.48V438.2H83.07l-6.6-15.44h-.11V438.2Z"/><path class="cls-2" d="M93.94,438.2,100.62,419h4.74l6.73,19.16h-3.67l-1.51-4.46H99l-1.51,4.46Zm6-7.36H106l-3-9.12h-.11Z"/><path class="cls-2" d="M115.39,435.33l2.11-2.22a4.85,4.85,0,0,0,3.89,2.41c1.92,0,2.57-1.4,2.57-3.92V422h-6.79V419h10.35v12.67c0,4.21-1.94,6.82-6,6.82A7.11,7.11,0,0,1,115.39,435.33Z"/><path class="cls-2" d="M134.8,438.2V419h6.52c6,0,8.81,3.2,8.81,8.49v2.19c0,5.28-2.85,8.49-8.81,8.49Zm3.56-3h2.93c3.5,0,5.12-1.94,5.12-5.56v-2.13c0-3.61-1.62-5.56-5.12-5.56h-2.93Z"/><path class="cls-2" d="M164.14,438.2,170.82,419h4.74l6.73,19.16h-3.67l-1.51-4.46h-7.88l-1.51,4.46Zm6-7.36h6.13l-3-9.12h-.11Z"/><path class="cls-2" d="M187.9,438.2V419h3.56V438.2Z"/><path class="cls-2" d="M207.06,435.38,208.7,433a7.16,7.16,0,0,0,5.53,2.63c2.19,0,3.89-.85,3.89-3,0-1.31-.66-2.11-2.68-2.57l-3-.74c-3.28-.77-5-2.63-5-5.15,0-3.29,2.85-5.42,7.12-5.42a7.9,7.9,0,0,1,6.71,3.07l-2.08,2a6.11,6.11,0,0,0-4.65-2.25c-2.05,0-3.48.9-3.48,2.6,0,1.2.71,1.83,2.46,2.24l3,.71c3.83.9,5.28,2.74,5.28,5.37,0,4-3.31,6.08-7.45,6.08A9.26,9.26,0,0,1,207.06,435.38Z"/><path class="cls-2" d="M226.41,429.71v-2.19c0-5.42,3-8.81,8.38-8.81s8.38,3.39,8.38,8.81v2.19c0,5.42-3,8.81-8.38,8.81S226.41,435.13,226.41,429.71Zm13,0v-2.13c0-3.5-1.37-5.83-4.65-5.83s-4.65,2.33-4.65,5.83v2.13c0,3.5,1.4,5.83,4.65,5.83S239.44,433.19,239.44,429.69Z"/><path class="cls-2" d="M249.48,438.2V419H253v16.21h8.73v3Z"/><path class="cls-2" d="M266.54,431.6V419h3.56v12.46c0,3,1.64,4,3.94,4s3.94-1.07,3.94-4V419h3.56V431.6c0,4.76-2.87,6.93-7.5,6.93S266.54,436.37,266.54,431.6Z"/><path class="cls-2" d="M292.4,438.2V422H287v-3h14.45v3H296V438.2Z"/><path class="cls-2" d="M307,438.2V419h3.56V438.2Z"/><path class="cls-2" d="M316.9,429.71v-2.19c0-5.42,3-8.81,8.38-8.81s8.38,3.39,8.38,8.81v2.19c0,5.42-3,8.81-8.38,8.81S316.9,435.13,316.9,429.71Zm13,0v-2.13c0-3.5-1.37-5.83-4.65-5.83s-4.65,2.33-4.65,5.83v2.13c0,3.5,1.4,5.83,4.65,5.83S329.93,433.19,329.93,429.69Z"/><path class="cls-2" d="M340,438.2V419h5.48l6.38,15.25h.11V419h3.48V438.2h-5.26l-6.6-15.44h-.11V438.2Z"/><path class="cls-2" d="M361.49,435.38l1.64-2.38a7.16,7.16,0,0,0,5.53,2.63c2.19,0,3.89-.85,3.89-3,0-1.31-.66-2.11-2.68-2.57l-3-.74c-3.28-.77-5-2.63-5-5.15,0-3.29,2.85-5.42,7.12-5.42a7.9,7.9,0,0,1,6.71,3.07l-2.08,2a6.11,6.11,0,0,0-4.65-2.25c-2.05,0-3.48.9-3.48,2.6,0,1.2.71,1.83,2.46,2.24l3,.71c3.83.9,5.28,2.74,5.28,5.37,0,4-3.31,6.08-7.45,6.08A9.26,9.26,0,0,1,361.49,435.38Z"/><rect class="cls-2" x="412.77" y="416.86" width="17.17" height="17.17" transform="translate(-177.42 422.55) rotate(-45)"/></svg>