<svg xmlns="http://www.w3.org/2000/svg" viewBox="560 210 210 210" role="img" aria-labelledby="title">
  <title id="title">Najd AI Solutions Mark</title>
  <defs>
    <linearGradient id="najd-mark-gradient" x1="582.4" y1="425.92" x2="697.2" y2="227.35" gradientUnits="userSpaceOnUse">
      <stop offset="0" stop-color="#28295f" />
      <stop offset="0.61" stop-color="#0f6fae" />
      <stop offset="1" stop-color="#0098dd" />
    </linearGradient>
  </defs>
  <path fill="url(#najd-mark-gradient)" d="M742,284.34a4.39,4.39,0,0,1,0-6.21l16.52-16.52a5.75,5.75,0,0,0,0-8.13l-36.33-36.33h-47.4l-.59.57-8.84,8.83-8.84-8.83-.59-.57h-47.4l-36.33,36.33a5.75,5.75,0,0,0,0,8.13l16.52,16.52a4.39,4.39,0,0,1,0,6.21l-20.58,20.58L593.16,330l24.28-24.28-21.38-21.38a4.39,4.39,0,0,1,0-6.21l24.89-24.89a15.71,15.71,0,0,1,22.23,0l.85.85a15.69,15.69,0,0,1,3.67,5.84V365.31a16.48,16.48,0,0,1-3.5,10.44A15.72,15.72,0,0,1,620.86,377L592.3,348.52l-20.17,20.17a5.75,5.75,0,0,0,0,8.13l35.69,35.69,44.8-.12a8.78,8.78,0,0,0,6.19-2.57l6.49-6.49,15.95-15.95.75-.77V265.2a15.95,15.95,0,0,1,4.59-11.1l.85-.85a15.71,15.71,0,0,1,22.23,0l24.89,24.89a4.39,4.39,0,0,1,0,6.21l-21.38,21.38L737.46,330l25.08-25.08Z" />
</svg>
