<svg id="Layer_1" data-name="Layer 1" xmlns="http://www.w3.org/2000/svg" xmlns:xlink="http://www.w3.org/1999/xlink" viewBox="0 0 792 612"><defs><style>.cls-1{fill:none;}.cls-2{clip-path:url(#clip-path);}.cls-3{fill:#2699d6;}</style><clipPath id="clip-path"><rect class="cls-1" x="35.15" y="55.7" width="739.46" height="510.97" rx="18.79" ry="18.79"/></clipPath></defs><title>Artboard 7</title><g class="cls-2"><path class="cls-3" d="M58.37,78.71a1.5,1.5,0,0,1,0-2.13L64,70.93a2,2,0,0,0,0-2.78L51.59,55.7H35.36l-.2.19-3,3-3-3-.2-.19H12.67L.23,68.14a2,2,0,0,0,0,2.78l5.66,5.66a1.5,1.5,0,0,1,0,2.13l-7,7,8.59,8.59L15.74,86,8.42,78.71a1.5,1.5,0,0,1,0-2.13l8.52-8.52a5.38,5.38,0,0,1,7.61,0l.29.29a5.37,5.37,0,0,1,1.26,2v36.08A5.64,5.64,0,0,1,24.9,110a5.38,5.38,0,0,1-8,.42l-9.78-9.74L.23,107.59a2,2,0,0,0,0,2.78l12.22,12.22,15.34,0a3,3,0,0,0,2.12-.88l2.22-2.22L37.59,114l.26-.26V72.16a5.46,5.46,0,0,1,1.57-3.8l.29-.29a5.38,5.38,0,0,1,7.61,0l8.52,8.52a1.5,1.5,0,0,1,0,2.13L48.52,86l8.31,8.31,8.59-8.59Z"/><path class="cls-3" d="M123.61,78.71a1.5,1.5,0,0,1,0-2.13l5.66-5.66a2,2,0,0,0,0-2.78L116.82,55.7H100.59l-.2.19-3,3-3-3-.2-.19H77.9L65.46,68.14a2,2,0,0,0,0,2.78l5.66,5.66a1.5,1.5,0,0,1,0,2.13l-7,7,8.59,8.59L81,86l-7.32-7.32a1.5,1.5,0,0,1,0-2.13l8.52-8.52a5.38,5.38,0,0,1,7.61,0l.29.29a5.37,5.37,0,0,1,1.26,2v36.08a5.64,5.64,0,0,1-1.2,3.58,5.38,5.38,0,0,1-8,.42l-9.78-9.74-6.91,6.91a2,2,0,0,0,0,2.78l12.22,12.22,15.34,0a3,3,0,0,0,2.12-.88l2.22-2.22,5.46-5.46.26-.26V72.16a5.46,5.46,0,0,1,1.57-3.8l.29-.29a5.38,5.38,0,0,1,7.61,0l8.52,8.52a1.5,1.5,0,0,1,0,2.13L113.75,86l8.31,8.31,8.59-8.59Z"/><path class="cls-3" d="M188.84,78.71a1.5,1.5,0,0,1,0-2.13l5.66-5.66a2,2,0,0,0,0-2.78L182.06,55.7H165.83l-.2.19-3,3-3-3-.2-.19H143.14L130.7,68.14a2,2,0,0,0,0,2.78l5.66,5.66a1.5,1.5,0,0,1,0,2.13l-7,7,8.59,8.59L146.2,86l-7.32-7.32a1.5,1.5,0,0,1,0-2.13l8.52-8.52a5.38,5.38,0,0,1,7.61,0l.29.29a5.37,5.37,0,0,1,1.26,2v36.08a5.64,5.64,0,0,1-1.2,3.58,5.38,5.38,0,0,1-8,.42l-9.78-9.74-6.91,6.91a2,2,0,0,0,0,2.78l12.22,12.22,15.34,0a3,3,0,0,0,2.12-.88l2.22-2.22,5.46-5.46.26-.26V72.16a5.46,5.46,0,0,1,1.57-3.8l.29-.29a5.38,5.38,0,0,1,7.61,0l8.52,8.52a1.5,1.5,0,0,1,0,2.13L179,86l8.31,8.31,8.59-8.59Z"/><path class="cls-3" d="M254.07,78.71a1.5,1.5,0,0,1,0-2.13l5.66-5.66a2,2,0,0,0,0-2.78L247.29,55.7H231.06l-.2.19-3,3-3-3-.2-.19H208.37L195.93,68.14a2,2,0,0,0,0,2.78l5.66,5.66a1.5,1.5,0,0,1,0,2.13l-7,7,8.59,8.59L211.44,86l-7.32-7.32a1.5,1.5,0,0,1,0-2.13l8.52-8.52a5.38,5.38,0,0,1,7.61,0l.29.29a5.37,5.37,0,0,1,1.26,2v36.08a5.64,5.64,0,0,1-1.2,3.58,5.38,5.38,0,0,1-8,.42l-9.78-9.74-6.91,6.91a2,2,0,0,0,0,2.78l12.22,12.22,15.34,0a3,3,0,0,0,2.12-.88l2.22-2.22,5.46-5.46.26-.26V72.16a5.46,5.46,0,0,1,1.57-3.8l.29-.29a5.38,5.38,0,0,1,7.61,0l8.52,8.52a1.5,1.5,0,0,1,0,2.13L244.22,86l8.31,8.31,8.59-8.59Z"/><path class="cls-3" d="M319.31,78.71a1.5,1.5,0,0,1,0-2.13L325,70.93a2,2,0,0,0,0-2.78L312.52,55.7H296.29l-.2.19-3,3-3-3-.2-.19H273.6L261.16,68.14a2,2,0,0,0,0,2.78l5.66,5.66a1.5,1.5,0,0,1,0,2.13l-7,7,8.59,8.59L276.67,86l-7.32-7.32a1.5,1.5,0,0,1,0-2.13l8.52-8.52a5.38,5.38,0,0,1,7.61,0l.29.29a5.37,5.37,0,0,1,1.26,2v36.08a5.64,5.64,0,0,1-1.2,3.58,5.38,5.38,0,0,1-8,.42l-9.78-9.74-6.91,6.91a2,2,0,0,0,0,2.78l12.22,12.22,15.34,0a3,3,0,0,0,2.12-.88l2.22-2.22,5.46-5.46.26-.26V72.16a5.46,5.46,0,0,1,1.57-3.8l.29-.29a5.38,5.38,0,0,1,7.61,0l8.52,8.52a1.5,1.5,0,0,1,0,2.13L309.45,86l8.31,8.31,8.59-8.59Z"/><path class="cls-3" d="M384.54,78.71a1.5,1.5,0,0,1,0-2.13l5.66-5.66a2,2,0,0,0,0-2.78L377.76,55.7H361.53l-.2.19-3,3-3-3-.2-.19H338.84L326.4,68.14a2,2,0,0,0,0,2.78l5.66,5.66a1.5,1.5,0,0,1,0,2.13l-7,7,8.59,8.59L341.9,86l-7.32-7.32a1.5,1.5,0,0,1,0-2.13l8.52-8.52a5.38,5.38,0,0,1,7.61,0l.29.29a5.37,5.37,0,0,1,1.26,2v36.08a5.64,5.64,0,0,1-1.2,3.58,5.38,5.38,0,0,1-8,.42l-9.78-9.74-6.91,6.91a2,2,0,0,0,0,2.78l12.22,12.22,15.34,0a3,3,0,0,0,2.12-.88l2.22-2.22,5.46-5.46.26-.26V72.16a5.46,5.46,0,0,1,1.57-3.8l.29-.29a5.38,5.38,0,0,1,7.61,0L382,76.58a1.5,1.5,0,0,1,0,2.13L374.69,86,383,94.34l8.59-8.59Z"/><path class="cls-3" d="M449.77,78.71a1.5,1.5,0,0,1,0-2.13l5.66-5.66a2,2,0,0,0,0-2.78L443,55.7H426.76l-.2.19-3,3-3-3-.2-.19H404.07L391.63,68.14a2,2,0,0,0,0,2.78l5.66,5.66a1.5,1.5,0,0,1,0,2.13l-7,7,8.59,8.59L407.14,86l-7.32-7.32a1.5,1.5,0,0,1,0-2.13l8.52-8.52a5.38,5.38,0,0,1,7.61,0l.29.29a5.37,5.37,0,0,1,1.26,2v36.08a5.64,5.64,0,0,1-1.2,3.58,5.38,5.38,0,0,1-8,.42l-9.78-9.74-6.91,6.91a2,2,0,0,0,0,2.78l12.22,12.22,15.34,0a3,3,0,0,0,2.12-.88l2.22-2.22L429,114l.26-.26V72.16a5.46,5.46,0,0,1,1.57-3.8l.29-.29a5.38,5.38,0,0,1,7.61,0l8.52,8.52a1.5,1.5,0,0,1,0,2.13L439.92,86l8.31,8.31,8.59-8.59Z"/><path class="cls-3" d="M515,78.71a1.5,1.5,0,0,1,0-2.13l5.66-5.66a2,2,0,0,0,0-2.78L508.22,55.7H492l-.2.19-3,3-3-3-.2-.19H469.3L456.87,68.14a2,2,0,0,0,0,2.78l5.66,5.66a1.5,1.5,0,0,1,0,2.13l-7,7,8.59,8.59L472.37,86l-7.32-7.32a1.5,1.5,0,0,1,0-2.13l8.52-8.52a5.38,5.38,0,0,1,7.61,0l.29.29a5.37,5.37,0,0,1,1.26,2v36.08a5.64,5.64,0,0,1-1.2,3.58,5.38,5.38,0,0,1-8,.42l-9.78-9.74-6.91,6.91a2,2,0,0,0,0,2.78l12.22,12.22,15.34,0a3,3,0,0,0,2.12-.88l2.22-2.22,5.46-5.46.26-.26V72.16a5.46,5.46,0,0,1,1.57-3.8l.29-.29a5.38,5.38,0,0,1,7.61,0l8.52,8.52a1.5,1.5,0,0,1,0,2.13L505.16,86l8.31,8.31,8.59-8.59Z"/><path class="cls-3" d="M580.24,78.71a1.5,1.5,0,0,1,0-2.13l5.66-5.66a2,2,0,0,0,0-2.78L573.46,55.7H557.23l-.2.19-3,3-3-3-.2-.19H534.54L522.1,68.14a2,2,0,0,0,0,2.78l5.66,5.66a1.5,1.5,0,0,1,0,2.13l-7,7,8.59,8.59L537.61,86l-7.32-7.32a1.5,1.5,0,0,1,0-2.13l8.52-8.52a5.38,5.38,0,0,1,7.61,0l.29.29a5.37,5.37,0,0,1,1.26,2v36.08a5.64,5.64,0,0,1-1.2,3.58,5.38,5.38,0,0,1-8,.42L529,100.68l-6.91,6.91a2,2,0,0,0,0,2.78l12.22,12.22,15.34,0a3,3,0,0,0,2.12-.88l2.22-2.22,5.46-5.46.26-.26V72.16a5.46,5.46,0,0,1,1.57-3.8l.29-.29a5.38,5.38,0,0,1,7.61,0l8.52,8.52a1.5,1.5,0,0,1,0,2.13L570.39,86l8.31,8.31,8.59-8.59Z"/><path class="cls-3" d="M645.47,78.71a1.5,1.5,0,0,1,0-2.13l5.66-5.66a2,2,0,0,0,0-2.78L638.69,55.7H622.46l-.2.19-3,3-3-3-.2-.19H599.77L587.33,68.14a2,2,0,0,0,0,2.78L593,76.58a1.5,1.5,0,0,1,0,2.13l-7,7,8.59,8.59L602.84,86l-7.32-7.32a1.5,1.5,0,0,1,0-2.13L604,68.06a5.38,5.38,0,0,1,7.61,0l.29.29a5.37,5.37,0,0,1,1.26,2v36.08A5.64,5.64,0,0,1,612,110a5.38,5.38,0,0,1-8,.42l-9.78-9.74-6.91,6.91a2,2,0,0,0,0,2.78l12.22,12.22,15.34,0a3,3,0,0,0,2.12-.88l2.22-2.22,5.46-5.46.26-.26V72.16a5.46,5.46,0,0,1,1.57-3.8l.29-.29a5.38,5.38,0,0,1,7.61,0l8.52,8.52a1.5,1.5,0,0,1,0,2.13L635.62,86l8.31,8.31,8.59-8.59Z"/><path class="cls-3" d="M710.71,78.71a1.5,1.5,0,0,1,0-2.13l5.66-5.66a2,2,0,0,0,0-2.78L703.92,55.7H687.7l-.2.19-3,3-3-3-.2-.19H665L652.57,68.14a2,2,0,0,0,0,2.78l5.66,5.66a1.5,1.5,0,0,1,0,2.13l-7,7,8.59,8.59L668.07,86l-7.32-7.32a1.5,1.5,0,0,1,0-2.13l8.52-8.52a5.38,5.38,0,0,1,7.61,0l.29.29a5.37,5.37,0,0,1,1.26,2v36.08a5.64,5.64,0,0,1-1.2,3.58,5.38,5.38,0,0,1-8,.42l-9.78-9.74-6.91,6.91a2,2,0,0,0,0,2.78l12.22,12.22,15.34,0a3,3,0,0,0,2.12-.88l2.22-2.22,5.46-5.46.26-.26V72.16a5.46,5.46,0,0,1,1.57-3.8l.29-.29a5.38,5.38,0,0,1,7.61,0l8.52,8.52a1.5,1.5,0,0,1,0,2.13L700.86,86l8.31,8.31,8.59-8.59Z"/><path class="cls-3" d="M775.94,78.71a1.5,1.5,0,0,1,0-2.13l5.66-5.66a2,2,0,0,0,0-2.78L769.16,55.7H752.93l-.2.19-3,3-3-3-.2-.19H730.24L717.8,68.14a2,2,0,0,0,0,2.78l5.66,5.66a1.5,1.5,0,0,1,0,2.13l-7,7L725,94.34,733.31,86,726,78.71a1.5,1.5,0,0,1,0-2.13l8.52-8.52a5.38,5.38,0,0,1,7.61,0l.29.29a5.37,5.37,0,0,1,1.26,2v36.08a5.64,5.64,0,0,1-1.2,3.58,5.38,5.38,0,0,1-8,.42l-9.78-9.74-6.91,6.91a2,2,0,0,0,0,2.78L730,122.59l15.34,0a3,3,0,0,0,2.12-.88l2.22-2.22,5.46-5.46.26-.26V72.16a5.46,5.46,0,0,1,1.57-3.8l.29-.29a5.38,5.38,0,0,1,7.61,0l8.52,8.52a1.5,1.5,0,0,1,0,2.13L766.09,86l8.31,8.31L783,85.76Z"/><path class="cls-3" d="M733,158.26a1.5,1.5,0,0,1,0,2.13L727.3,166a2,2,0,0,0,0,2.78l12.44,12.44H756l.2-.19,3-3,3,3,.2.19h16.23l12.44-12.44a2,2,0,0,0,0-2.78l-5.66-5.66a1.5,1.5,0,0,1,0-2.13l7-7-8.59-8.59-8.31,8.31,7.32,7.32a1.5,1.5,0,0,1,0,2.13l-8.52,8.52a5.38,5.38,0,0,1-7.61,0l-.29-.29a5.37,5.37,0,0,1-1.26-2V130.53a5.64,5.64,0,0,1,1.2-3.58,5.38,5.38,0,0,1,8-.42l9.78,9.74,6.91-6.91a2,2,0,0,0,0-2.78l-12.22-12.22-15.34,0a3,3,0,0,0-2.12.88l-2.22,2.22L753.74,123l-.26.26v41.57a5.46,5.46,0,0,1-1.57,3.8l-.29.29a5.38,5.38,0,0,1-7.61,0l-8.52-8.52a1.5,1.5,0,0,1,0-2.13l7.32-7.32-8.31-8.31-8.59,8.59Z"/><path class="cls-3" d="M667.72,158.26a1.5,1.5,0,0,1,0,2.13L662.07,166a2,2,0,0,0,0,2.78l12.44,12.44h16.23l.2-.19,3-3,3,3,.2.19h16.23l12.44-12.44a2,2,0,0,0,0-2.78l-5.66-5.66a1.5,1.5,0,0,1,0-2.13l7-7-8.59-8.59-8.31,8.31,7.32,7.32a1.5,1.5,0,0,1,0,2.13l-8.52,8.52a5.38,5.38,0,0,1-7.61,0l-.29-.29a5.37,5.37,0,0,1-1.26-2V130.53a5.64,5.64,0,0,1,1.2-3.58,5.38,5.38,0,0,1,8-.42l9.78,9.74,6.91-6.91a2,2,0,0,0,0-2.78l-12.22-12.22-15.34,0a3,3,0,0,0-2.12.88L694,117.52,688.5,123l-.26.26v41.57a5.46,5.46,0,0,1-1.57,3.8l-.29.29a5.38,5.38,0,0,1-7.61,0l-8.52-8.52a1.5,1.5,0,0,1,0-2.13l7.32-7.32-8.31-8.31-8.59,8.59Z"/><path class="cls-3" d="M602.49,158.26a1.5,1.5,0,0,1,0,2.13L596.83,166a2,2,0,0,0,0,2.78l12.44,12.44H625.5l.2-.19,3-3,3,3,.2.19h16.23l12.44-12.44a2,2,0,0,0,0-2.78L655,160.38a1.5,1.5,0,0,1,0-2.13l7-7-8.59-8.59-8.31,8.31,7.32,7.32a1.5,1.5,0,0,1,0,2.13l-8.52,8.52a5.38,5.38,0,0,1-7.61,0l-.29-.29a5.37,5.37,0,0,1-1.26-2V130.53A5.64,5.64,0,0,1,636,127a5.38,5.38,0,0,1,8-.42l9.78,9.74,6.91-6.91a2,2,0,0,0,0-2.78l-12.22-12.22-15.34,0a3,3,0,0,0-2.12.88l-2.22,2.22L623.27,123l-.26.26v41.57a5.46,5.46,0,0,1-1.57,3.8l-.29.29a5.38,5.38,0,0,1-7.61,0L605,160.38a1.5,1.5,0,0,1,0-2.13l7.32-7.32L604,142.62l-8.59,8.59Z"/><path class="cls-3" d="M537.25,158.26a1.5,1.5,0,0,1,0,2.13L531.6,166a2,2,0,0,0,0,2.78L544,181.26h16.23l.2-.19,3-3,3,3,.2.19H583l12.44-12.44a2,2,0,0,0,0-2.78l-5.66-5.66a1.5,1.5,0,0,1,0-2.13l7-7-8.59-8.59-8.31,8.31,7.32,7.32a1.5,1.5,0,0,1,0,2.13l-8.52,8.52a5.38,5.38,0,0,1-7.61,0l-.29-.29a5.37,5.37,0,0,1-1.26-2V130.53a5.64,5.64,0,0,1,1.2-3.58,5.38,5.38,0,0,1,8-.42l9.78,9.74,6.91-6.91a2,2,0,0,0,0-2.78l-12.22-12.22-15.34,0a3,3,0,0,0-2.12.88l-2.22,2.22L558,123l-.26.26v41.57a5.46,5.46,0,0,1-1.57,3.8l-.29.29a5.38,5.38,0,0,1-7.61,0l-8.52-8.52a1.5,1.5,0,0,1,0-2.13l7.32-7.32-8.31-8.31-8.59,8.59Z"/><path class="cls-3" d="M472,158.26a1.5,1.5,0,0,1,0,2.13L466.37,166a2,2,0,0,0,0,2.78l12.44,12.44H495l.2-.19,3-3,3,3,.2.19h16.23l12.44-12.44a2,2,0,0,0,0-2.78l-5.66-5.66a1.5,1.5,0,0,1,0-2.13l7-7L523,142.62l-8.31,8.31,7.32,7.32a1.5,1.5,0,0,1,0,2.13l-8.52,8.52a5.38,5.38,0,0,1-7.61,0l-.29-.29a5.37,5.37,0,0,1-1.26-2V130.53a5.64,5.64,0,0,1,1.2-3.58,5.38,5.38,0,0,1,8-.42l9.78,9.74,6.91-6.91a2,2,0,0,0,0-2.78l-12.22-12.22-15.34,0a3,3,0,0,0-2.12.88l-2.22,2.22L492.8,123l-.26.26v41.57a5.46,5.46,0,0,1-1.57,3.8l-.29.29a5.38,5.38,0,0,1-7.61,0l-8.52-8.52a1.5,1.5,0,0,1,0-2.13l7.32-7.32-8.31-8.31L465,151.21Z"/><path class="cls-3" d="M406.79,158.26a1.5,1.5,0,0,1,0,2.13L401.13,166a2,2,0,0,0,0,2.78l12.44,12.44H429.8l.2-.19,3-3,3,3,.2.19h16.23l12.44-12.44a2,2,0,0,0,0-2.78l-5.66-5.66a1.5,1.5,0,0,1,0-2.13l7-7-8.59-8.59-8.31,8.31,7.32,7.32a1.5,1.5,0,0,1,0,2.13l-8.52,8.52a5.38,5.38,0,0,1-7.61,0l-.29-.29a5.37,5.37,0,0,1-1.26-2V130.53a5.64,5.64,0,0,1,1.2-3.58,5.38,5.38,0,0,1,8-.42l9.78,9.74,6.91-6.91a2,2,0,0,0,0-2.78l-12.22-12.22-15.34,0a3,3,0,0,0-2.12.88L433,117.52,427.57,123l-.26.26v41.57a5.46,5.46,0,0,1-1.57,3.8l-.29.29a5.38,5.38,0,0,1-7.61,0l-8.52-8.52a1.5,1.5,0,0,1,0-2.13l7.32-7.32-8.31-8.31-8.59,8.59Z"/><path class="cls-3" d="M341.55,158.26a1.5,1.5,0,0,1,0,2.13L335.9,166a2,2,0,0,0,0,2.78l12.44,12.44h16.23l.2-.19,3-3,3,3,.2.19h16.23l12.44-12.44a2,2,0,0,0,0-2.78L394,160.38a1.5,1.5,0,0,1,0-2.13l7-7-8.59-8.59-8.31,8.31,7.32,7.32a1.5,1.5,0,0,1,0,2.13L383,168.91a5.38,5.38,0,0,1-7.61,0l-.29-.29a5.37,5.37,0,0,1-1.26-2V130.53A5.64,5.64,0,0,1,375,127a5.38,5.38,0,0,1,8-.42l9.78,9.74,6.91-6.91a2,2,0,0,0,0-2.78l-12.22-12.22-15.34,0a3,3,0,0,0-2.12.88l-2.22,2.22L362.34,123l-.26.26v41.57a5.46,5.46,0,0,1-1.57,3.8l-.29.29a5.38,5.38,0,0,1-7.61,0l-8.52-8.52a1.5,1.5,0,0,1,0-2.13l7.32-7.32-8.31-8.31-8.59,8.59Z"/><path class="cls-3" d="M276.32,158.26a1.5,1.5,0,0,1,0,2.13L270.66,166a2,2,0,0,0,0,2.78l12.44,12.44h16.23l.2-.19,3-3,3,3,.2.19H322l12.44-12.44a2,2,0,0,0,0-2.78l-5.66-5.66a1.5,1.5,0,0,1,0-2.13l7-7-8.59-8.59L319,150.94l7.32,7.32a1.5,1.5,0,0,1,0,2.13l-8.52,8.52a5.38,5.38,0,0,1-7.61,0l-.29-.29a5.37,5.37,0,0,1-1.26-2V130.53a5.64,5.64,0,0,1,1.2-3.58,5.38,5.38,0,0,1,8-.42l9.78,9.74,6.91-6.91a2,2,0,0,0,0-2.78l-12.22-12.22-15.34,0a3,3,0,0,0-2.12.88l-2.22,2.22L297.1,123l-.26.26v41.57a5.46,5.46,0,0,1-1.57,3.8l-.29.29a5.38,5.38,0,0,1-7.61,0l-8.52-8.52a1.5,1.5,0,0,1,0-2.13l7.32-7.32-8.31-8.31-8.59,8.59Z"/><path class="cls-3" d="M211.09,158.26a1.5,1.5,0,0,1,0,2.13L205.43,166a2,2,0,0,0,0,2.78l12.44,12.44H234.1l.2-.19,3-3,3,3,.2.19h16.23l12.44-12.44a2,2,0,0,0,0-2.78l-5.66-5.66a1.5,1.5,0,0,1,0-2.13l7-7L262,142.62l-8.31,8.31,7.32,7.32a1.5,1.5,0,0,1,0,2.13l-8.52,8.52a5.38,5.38,0,0,1-7.61,0l-.29-.29a5.37,5.37,0,0,1-1.26-2V130.53a5.64,5.64,0,0,1,1.2-3.58,5.38,5.38,0,0,1,8-.42l9.78,9.74,6.91-6.91a2,2,0,0,0,0-2.78L257,114.37l-15.34,0a3,3,0,0,0-2.12.88l-2.22,2.22L231.87,123l-.26.26v41.57a5.46,5.46,0,0,1-1.57,3.8l-.29.29a5.38,5.38,0,0,1-7.61,0l-8.52-8.52a1.5,1.5,0,0,1,0-2.13l7.32-7.32-8.31-8.31L204,151.21Z"/><path class="cls-3" d="M145.85,158.26a1.5,1.5,0,0,1,0,2.13L140.2,166a2,2,0,0,0,0,2.78l12.44,12.44h16.23l.2-.19,3-3,3,3,.2.19h16.23L204,168.82a2,2,0,0,0,0-2.78l-5.66-5.66a1.5,1.5,0,0,1,0-2.13l7-7-8.59-8.59-8.31,8.31,7.32,7.32a1.5,1.5,0,0,1,0,2.13l-8.52,8.52a5.38,5.38,0,0,1-7.61,0l-.29-.29a5.37,5.37,0,0,1-1.26-2V130.53a5.64,5.64,0,0,1,1.2-3.58,5.38,5.38,0,0,1,8-.42l9.78,9.74,6.91-6.91a2,2,0,0,0,0-2.78l-12.22-12.22-15.34,0a3,3,0,0,0-2.12.88l-2.22,2.22L166.63,123l-.26.26v41.57a5.46,5.46,0,0,1-1.57,3.8l-.29.29a5.38,5.38,0,0,1-7.61,0l-8.52-8.52a1.5,1.5,0,0,1,0-2.13l7.32-7.32-8.31-8.31-8.59,8.59Z"/><path class="cls-3" d="M80.62,158.26a1.5,1.5,0,0,1,0,2.13L75,166a2,2,0,0,0,0,2.78L87.4,181.26h16.23l.2-.19,3-3,3,3,.2.19h16.23l12.44-12.44a2,2,0,0,0,0-2.78l-5.66-5.66a1.5,1.5,0,0,1,0-2.13l7-7-8.59-8.59-8.31,8.31,7.32,7.32a1.5,1.5,0,0,1,0,2.13l-8.52,8.52a5.38,5.38,0,0,1-7.61,0l-.29-.29a5.37,5.37,0,0,1-1.26-2V130.53a5.64,5.64,0,0,1,1.2-3.58,5.38,5.38,0,0,1,8-.42l9.78,9.74,6.91-6.91a2,2,0,0,0,0-2.78l-12.22-12.22-15.34,0a3,3,0,0,0-2.12.88l-2.22,2.22L101.4,123l-.26.26v41.57a5.46,5.46,0,0,1-1.57,3.8l-.29.29a5.38,5.38,0,0,1-7.61,0l-8.52-8.52a1.5,1.5,0,0,1,0-2.13l7.32-7.32-8.31-8.31-8.59,8.59Z"/><path class="cls-3" d="M15.39,158.26a1.5,1.5,0,0,1,0,2.13L9.73,166a2,2,0,0,0,0,2.78l12.44,12.44H38.4l.2-.19,3-3,3,3,.2.19H61.09l12.44-12.44a2,2,0,0,0,0-2.78l-5.66-5.66a1.5,1.5,0,0,1,0-2.13l7-7-8.59-8.59L58,150.94l7.32,7.32a1.5,1.5,0,0,1,0,2.13l-8.52,8.52a5.38,5.38,0,0,1-7.61,0l-.29-.29a5.37,5.37,0,0,1-1.26-2V130.53a5.64,5.64,0,0,1,1.2-3.58,5.38,5.38,0,0,1,8-.42l9.78,9.74,6.91-6.91a2,2,0,0,0,0-2.78L61.31,114.37l-15.34,0a3,3,0,0,0-2.12.88l-2.22,2.22L36.17,123l-.26.26v41.57a5.46,5.46,0,0,1-1.57,3.8l-.29.29a5.38,5.38,0,0,1-7.61,0l-8.52-8.52a1.5,1.5,0,0,1,0-2.13l7.32-7.32-8.31-8.31-8.59,8.59Z"/><path class="cls-3" d="M67.62,208.34a1.5,1.5,0,0,1,0-2.13l5.66-5.66a2,2,0,0,0,0-2.78L60.83,185.33H44.6l-.2.19-3,3-3-3-.2-.19H21.91L9.47,197.77a2,2,0,0,0,0,2.78l5.66,5.66a1.5,1.5,0,0,1,0,2.13l-7,7L16.67,224,25,215.66l-7.32-7.32a1.5,1.5,0,0,1,0-2.13l8.52-8.52a5.38,5.38,0,0,1,7.61,0l.29.29a5.37,5.37,0,0,1,1.26,2v36.08a5.64,5.64,0,0,1-1.2,3.58,5.38,5.38,0,0,1-8,.42l-9.78-9.74-6.91,6.91a2,2,0,0,0,0,2.78l12.22,12.22,15.34,0a3,3,0,0,0,2.12-.88l2.22-2.22,5.46-5.46.26-.26V201.78a5.46,5.46,0,0,1,1.57-3.8l.29-.29a5.38,5.38,0,0,1,7.61,0l8.52,8.52a1.5,1.5,0,0,1,0,2.13l-7.32,7.32L66.08,224l8.59-8.59Z"/><path class="cls-3" d="M132.85,208.34a1.5,1.5,0,0,1,0-2.13l5.66-5.66a2,2,0,0,0,0-2.78l-12.44-12.44H109.84l-.2.19-3,3-3-3-.2-.19H87.15L74.71,197.77a2,2,0,0,0,0,2.78l5.66,5.66a1.5,1.5,0,0,1,0,2.13l-7,7L81.9,224l8.31-8.31-7.32-7.32a1.5,1.5,0,0,1,0-2.13l8.52-8.52a5.38,5.38,0,0,1,7.61,0l.29.29a5.37,5.37,0,0,1,1.26,2v36.08a5.64,5.64,0,0,1-1.2,3.58,5.38,5.38,0,0,1-8,.42l-9.78-9.74-6.91,6.91a2,2,0,0,0,0,2.78l12.22,12.22,15.34,0a3,3,0,0,0,2.12-.88l2.22-2.22,5.46-5.46.26-.26V201.78a5.46,5.46,0,0,1,1.57-3.8l.29-.29a5.38,5.38,0,0,1,7.61,0l8.52,8.52a1.5,1.5,0,0,1,0,2.13L123,215.66l8.31,8.31,8.59-8.59Z"/><path class="cls-3" d="M198.08,208.34a1.5,1.5,0,0,1,0-2.13l5.66-5.66a2,2,0,0,0,0-2.78L191.3,185.33H175.07l-.2.19-3,3-3-3-.2-.19H152.38l-12.44,12.44a2,2,0,0,0,0,2.78l5.66,5.66a1.5,1.5,0,0,1,0,2.13l-7,7,8.59,8.59,8.31-8.31-7.32-7.32a1.5,1.5,0,0,1,0-2.13l8.52-8.52a5.38,5.38,0,0,1,7.61,0l.29.29a5.37,5.37,0,0,1,1.26,2v36.08a5.64,5.64,0,0,1-1.2,3.58,5.38,5.38,0,0,1-8,.42l-9.78-9.74-6.91,6.91a2,2,0,0,0,0,2.78l12.22,12.22,15.34,0a3,3,0,0,0,2.12-.88l2.22-2.22,5.46-5.46.26-.26V201.78a5.46,5.46,0,0,1,1.57-3.8l.29-.29a5.38,5.38,0,0,1,7.61,0l8.52,8.52a1.5,1.5,0,0,1,0,2.13l-7.32,7.32,8.31,8.31,8.59-8.59Z"/><path class="cls-3" d="M263.32,208.34a1.5,1.5,0,0,1,0-2.13l5.66-5.66a2,2,0,0,0,0-2.78l-12.44-12.44H240.3l-.2.19-3,3-3-3-.2-.19H217.61l-12.44,12.44a2,2,0,0,0,0,2.78l5.66,5.66a1.5,1.5,0,0,1,0,2.13l-7,7,8.59,8.59,8.31-8.31-7.32-7.32a1.5,1.5,0,0,1,0-2.13l8.52-8.52a5.38,5.38,0,0,1,7.61,0l.29.29a5.37,5.37,0,0,1,1.26,2v36.08a5.64,5.64,0,0,1-1.2,3.58,5.38,5.38,0,0,1-8,.42l-9.78-9.74-6.91,6.91a2,2,0,0,0,0,2.78l12.22,12.22,15.34,0a3,3,0,0,0,2.12-.88l2.22-2.22,5.46-5.46.26-.26V201.78a5.46,5.46,0,0,1,1.57-3.8l.29-.29a5.38,5.38,0,0,1,7.61,0l8.52,8.52a1.5,1.5,0,0,1,0,2.13l-7.32,7.32,8.31,8.31,8.59-8.59Z"/><path class="cls-3" d="M328.55,208.34a1.5,1.5,0,0,1,0-2.13l5.66-5.66a2,2,0,0,0,0-2.78l-12.44-12.44H305.54l-.2.19-3,3-3-3-.2-.19H282.85l-12.44,12.44a2,2,0,0,0,0,2.78l5.66,5.66a1.5,1.5,0,0,1,0,2.13l-7,7L277.6,224l8.31-8.31-7.32-7.32a1.5,1.5,0,0,1,0-2.13l8.52-8.52a5.38,5.38,0,0,1,7.61,0l.29.29a5.37,5.37,0,0,1,1.26,2v36.08a5.64,5.64,0,0,1-1.2,3.58,5.38,5.38,0,0,1-8,.42l-9.78-9.74-6.91,6.91a2,2,0,0,0,0,2.78l12.22,12.22,15.34,0a3,3,0,0,0,2.12-.88l2.22-2.22,5.46-5.46.26-.26V201.78a5.46,5.46,0,0,1,1.57-3.8l.29-.29a5.38,5.38,0,0,1,7.61,0l8.52,8.52a1.5,1.5,0,0,1,0,2.13l-7.32,7.32L327,224l8.59-8.59Z"/><path class="cls-3" d="M393.78,208.34a1.5,1.5,0,0,1,0-2.13l5.66-5.66a2,2,0,0,0,0-2.78L387,185.33H370.77l-.2.19-3,3-3-3-.2-.19H348.08l-12.44,12.44a2,2,0,0,0,0,2.78l5.66,5.66a1.5,1.5,0,0,1,0,2.13l-7,7,8.59,8.59,8.31-8.31-7.32-7.32a1.5,1.5,0,0,1,0-2.13l8.52-8.52a5.38,5.38,0,0,1,7.61,0l.29.29a5.37,5.37,0,0,1,1.26,2v36.08a5.64,5.64,0,0,1-1.2,3.58,5.38,5.38,0,0,1-8,.42l-9.78-9.74-6.91,6.91a2,2,0,0,0,0,2.78l12.22,12.22,15.34,0a3,3,0,0,0,2.12-.88l2.22-2.22,5.46-5.46.26-.26V201.78a5.46,5.46,0,0,1,1.57-3.8l.29-.29a5.38,5.38,0,0,1,7.61,0l8.52,8.52a1.5,1.5,0,0,1,0,2.13l-7.32,7.32,8.31,8.31,8.59-8.59Z"/><path class="cls-3" d="M459,208.34a1.5,1.5,0,0,1,0-2.13l5.66-5.66a2,2,0,0,0,0-2.78l-12.44-12.44H436l-.2.19-3,3-3-3-.2-.19H413.31l-12.44,12.44a2,2,0,0,0,0,2.78l5.66,5.66a1.5,1.5,0,0,1,0,2.13l-7,7,8.59,8.59,8.31-8.31-7.32-7.32a1.5,1.5,0,0,1,0-2.13l8.52-8.52a5.38,5.38,0,0,1,7.61,0l.29.29a5.37,5.37,0,0,1,1.26,2v36.08a5.64,5.64,0,0,1-1.2,3.58,5.38,5.38,0,0,1-8,.42l-9.78-9.74-6.91,6.91a2,2,0,0,0,0,2.78l12.22,12.22,15.34,0a3,3,0,0,0,2.12-.88l2.22-2.22,5.46-5.46.26-.26V201.78a5.46,5.46,0,0,1,1.57-3.8l.29-.29a5.38,5.38,0,0,1,7.61,0l8.52,8.52a1.5,1.5,0,0,1,0,2.13l-7.32,7.32,8.31,8.31,8.59-8.59Z"/><path class="cls-3" d="M524.25,208.34a1.5,1.5,0,0,1,0-2.13l5.66-5.66a2,2,0,0,0,0-2.78l-12.44-12.44H501.24l-.2.19-3,3-3-3-.2-.19H478.55l-12.44,12.44a2,2,0,0,0,0,2.78l5.66,5.66a1.5,1.5,0,0,1,0,2.13l-7,7L473.3,224l8.31-8.31-7.32-7.32a1.5,1.5,0,0,1,0-2.13l8.52-8.52a5.38,5.38,0,0,1,7.61,0l.29.29a5.37,5.37,0,0,1,1.26,2v36.08a5.64,5.64,0,0,1-1.2,3.58,5.38,5.38,0,0,1-8,.42L473,230.31l-6.91,6.91a2,2,0,0,0,0,2.78l12.22,12.22,15.34,0a3,3,0,0,0,2.12-.88l2.22-2.22,5.46-5.46.26-.26V201.78a5.46,5.46,0,0,1,1.57-3.8l.29-.29a5.38,5.38,0,0,1,7.61,0l8.52,8.52a1.5,1.5,0,0,1,0,2.13l-7.32,7.32,8.31,8.31,8.59-8.59Z"/><path class="cls-3" d="M589.48,208.34a1.5,1.5,0,0,1,0-2.13l5.66-5.66a2,2,0,0,0,0-2.78L582.7,185.33H566.47l-.2.19-3,3-3-3-.2-.19H543.78l-12.44,12.44a2,2,0,0,0,0,2.78l5.66,5.66a1.5,1.5,0,0,1,0,2.13l-7,7,8.59,8.59,8.31-8.31-7.32-7.32a1.5,1.5,0,0,1,0-2.13l8.52-8.52a5.38,5.38,0,0,1,7.61,0l.29.29a5.37,5.37,0,0,1,1.26,2v36.08a5.64,5.64,0,0,1-1.2,3.58,5.38,5.38,0,0,1-8,.42l-9.78-9.74-6.91,6.91a2,2,0,0,0,0,2.78l12.22,12.22,15.34,0a3,3,0,0,0,2.12-.88l2.22-2.22,5.46-5.46.26-.26V201.78a5.46,5.46,0,0,1,1.57-3.8l.29-.29a5.38,5.38,0,0,1,7.61,0l8.52,8.52a1.5,1.5,0,0,1,0,2.13l-7.32,7.32,8.31,8.31,8.59-8.59Z"/><path class="cls-3" d="M654.72,208.34a1.5,1.5,0,0,1,0-2.13l5.66-5.66a2,2,0,0,0,0-2.78l-12.44-12.44H631.71l-.2.19-3,3-3-3-.2-.19H609l-12.44,12.44a2,2,0,0,0,0,2.78l5.66,5.66a1.5,1.5,0,0,1,0,2.13l-7,7,8.59,8.59,8.31-8.31-7.32-7.32a1.5,1.5,0,0,1,0-2.13l8.52-8.52a5.38,5.38,0,0,1,7.61,0l.29.29a5.37,5.37,0,0,1,1.26,2v36.08a5.64,5.64,0,0,1-1.2,3.58,5.38,5.38,0,0,1-8,.42l-9.78-9.74-6.91,6.91a2,2,0,0,0,0,2.78l12.22,12.22,15.34,0a3,3,0,0,0,2.12-.88l2.22-2.22,5.46-5.46.26-.26V201.78a5.46,5.46,0,0,1,1.57-3.8l.29-.29a5.38,5.38,0,0,1,7.61,0l8.52,8.52a1.5,1.5,0,0,1,0,2.13l-7.32,7.32,8.31,8.31,8.59-8.59Z"/><path class="cls-3" d="M720,208.34a1.5,1.5,0,0,1,0-2.13l5.66-5.66a2,2,0,0,0,0-2.78l-12.44-12.44H696.94l-.2.19-3,3-3-3-.2-.19H674.25l-12.44,12.44a2,2,0,0,0,0,2.78l5.66,5.66a1.5,1.5,0,0,1,0,2.13l-7,7L669,224l8.31-8.31L670,208.34a1.5,1.5,0,0,1,0-2.13l8.52-8.52a5.38,5.38,0,0,1,7.61,0l.29.29a5.37,5.37,0,0,1,1.26,2v36.08a5.64,5.64,0,0,1-1.2,3.58,5.38,5.38,0,0,1-8,.42l-9.78-9.74-6.91,6.91a2,2,0,0,0,0,2.78L674,252.22l15.34,0a3,3,0,0,0,2.12-.88l2.22-2.22,5.46-5.46.26-.26V201.78A5.46,5.46,0,0,1,701,198l.29-.29a5.38,5.38,0,0,1,7.61,0l8.52,8.52a1.5,1.5,0,0,1,0,2.13l-7.32,7.32,8.31,8.31,8.59-8.59Z"/><path class="cls-3" d="M785.18,208.34a1.5,1.5,0,0,1,0-2.13l5.66-5.66a2,2,0,0,0,0-2.78L778.4,185.33H762.17l-.2.19-3,3-3-3-.2-.19H739.48L727,197.77a2,2,0,0,0,0,2.78l5.66,5.66a1.5,1.5,0,0,1,0,2.13l-7,7,8.59,8.59,8.31-8.31-7.32-7.32a1.5,1.5,0,0,1,0-2.13l8.52-8.52a5.38,5.38,0,0,1,7.61,0l.29.29a5.37,5.37,0,0,1,1.26,2v36.08a5.64,5.64,0,0,1-1.2,3.58,5.38,5.38,0,0,1-8,.42l-9.78-9.74L727,237.22a2,2,0,0,0,0,2.78l12.22,12.22,15.34,0a3,3,0,0,0,2.12-.88l2.22-2.22,5.46-5.46.26-.26V201.78a5.46,5.46,0,0,1,1.57-3.8l.29-.29a5.38,5.38,0,0,1,7.61,0l8.52,8.52a1.5,1.5,0,0,1,0,2.13l-7.32,7.32,8.31,8.31,8.59-8.59Z"/><path class="cls-3" d="M742.2,287.89a1.5,1.5,0,0,1,0,2.13l-5.66,5.66a2,2,0,0,0,0,2.78L749,310.89h16.23l.2-.19,3-3,3,3,.2.19H787.9l12.44-12.44a2,2,0,0,0,0-2.78L794.68,290a1.5,1.5,0,0,1,0-2.13l7-7-8.59-8.59-8.31,8.31,7.32,7.32a1.5,1.5,0,0,1,0,2.13l-8.52,8.52a5.38,5.38,0,0,1-7.61,0l-.29-.29a5.37,5.37,0,0,1-1.26-2V260.16a5.64,5.64,0,0,1,1.2-3.58,5.38,5.38,0,0,1,8-.42l9.78,9.74,6.91-6.91a2,2,0,0,0,0-2.78L788.12,244l-15.34,0a3,3,0,0,0-2.12.88l-2.22,2.22L763,252.6l-.26.26v41.57a5.46,5.46,0,0,1-1.57,3.8l-.29.29a5.38,5.38,0,0,1-7.61,0L744.73,290a1.5,1.5,0,0,1,0-2.13l7.32-7.32-8.31-8.31-8.59,8.59Z"/><path class="cls-3" d="M677,287.89a1.5,1.5,0,0,1,0,2.13l-5.66,5.66a2,2,0,0,0,0,2.78l12.44,12.44H700l.2-.19,3-3,3,3,.2.19h16.23l12.44-12.44a2,2,0,0,0,0-2.78L729.45,290a1.5,1.5,0,0,1,0-2.13l7-7-8.59-8.59-8.31,8.31,7.32,7.32a1.5,1.5,0,0,1,0,2.13l-8.52,8.52a5.38,5.38,0,0,1-7.61,0l-.29-.29a5.37,5.37,0,0,1-1.26-2V260.16a5.64,5.64,0,0,1,1.2-3.58,5.38,5.38,0,0,1,8-.42l9.78,9.74,6.91-6.91a2,2,0,0,0,0-2.78L722.89,244l-15.34,0a3,3,0,0,0-2.12.88l-2.22,2.22-5.46,5.46-.26.26v41.57a5.46,5.46,0,0,1-1.57,3.8l-.29.29a5.38,5.38,0,0,1-7.61,0L679.5,290a1.5,1.5,0,0,1,0-2.13l7.32-7.32-8.31-8.31-8.59,8.59Z"/><path class="cls-3" d="M611.73,287.89a1.5,1.5,0,0,1,0,2.13l-5.66,5.66a2,2,0,0,0,0,2.78l12.44,12.44h16.23l.2-.19,3-3,3,3,.2.19h16.23l12.44-12.44a2,2,0,0,0,0-2.78L664.22,290a1.5,1.5,0,0,1,0-2.13l7-7-8.59-8.59-8.31,8.31,7.32,7.32a1.5,1.5,0,0,1,0,2.13l-8.52,8.52a5.38,5.38,0,0,1-7.61,0l-.29-.29a5.37,5.37,0,0,1-1.26-2V260.16a5.64,5.64,0,0,1,1.2-3.58,5.38,5.38,0,0,1,8-.42l9.78,9.74,6.91-6.91a2,2,0,0,0,0-2.78L657.65,244l-15.34,0a3,3,0,0,0-2.12.88L638,247.14l-5.46,5.46-.26.26v41.57a5.46,5.46,0,0,1-1.57,3.8l-.29.29a5.38,5.38,0,0,1-7.61,0L614.26,290a1.5,1.5,0,0,1,0-2.13l7.32-7.32-8.31-8.31-8.59,8.59Z"/><path class="cls-3" d="M546.5,287.89a1.5,1.5,0,0,1,0,2.13l-5.66,5.66a2,2,0,0,0,0,2.78l12.44,12.44h16.23l.2-.19,3-3,3,3,.2.19H592.2l12.44-12.44a2,2,0,0,0,0-2.78L599,290a1.5,1.5,0,0,1,0-2.13l7-7-8.59-8.59-8.31,8.31,7.32,7.32a1.5,1.5,0,0,1,0,2.13l-8.52,8.52a5.38,5.38,0,0,1-7.61,0l-.29-.29a5.37,5.37,0,0,1-1.26-2V260.16a5.64,5.64,0,0,1,1.2-3.58,5.38,5.38,0,0,1,8-.42l9.78,9.74,6.91-6.91a2,2,0,0,0,0-2.78L592.42,244l-15.34,0a3,3,0,0,0-2.12.88l-2.22,2.22-5.46,5.46-.26.26v41.57a5.46,5.46,0,0,1-1.57,3.8l-.29.29a5.38,5.38,0,0,1-7.61,0L549,290a1.5,1.5,0,0,1,0-2.13l7.32-7.32L548,272.25l-8.59,8.59Z"/><path class="cls-3" d="M481.26,287.89a1.5,1.5,0,0,1,0,2.13l-5.66,5.66a2,2,0,0,0,0,2.78L488,310.89h16.23l.2-.19,3-3,3,3,.2.19H527l12.44-12.44a2,2,0,0,0,0-2.78L533.75,290a1.5,1.5,0,0,1,0-2.13l7-7-8.59-8.59-8.31,8.31,7.32,7.32a1.5,1.5,0,0,1,0,2.13l-8.52,8.52a5.38,5.38,0,0,1-7.61,0l-.29-.29a5.37,5.37,0,0,1-1.26-2V260.16a5.64,5.64,0,0,1,1.2-3.58,5.38,5.38,0,0,1,8-.42l9.78,9.74,6.91-6.91a2,2,0,0,0,0-2.78L527.19,244l-15.34,0a3,3,0,0,0-2.12.88l-2.22,2.22L502,252.6l-.26.26v41.57a5.46,5.46,0,0,1-1.57,3.8l-.29.29a5.38,5.38,0,0,1-7.61,0L483.8,290a1.5,1.5,0,0,1,0-2.13l7.32-7.32-8.31-8.31-8.59,8.59Z"/><path class="cls-3" d="M416,287.89a1.5,1.5,0,0,1,0,2.13l-5.66,5.66a2,2,0,0,0,0,2.78l12.44,12.44H439l.2-.19,3-3,3,3,.2.19h16.23l12.44-12.44a2,2,0,0,0,0-2.78L468.52,290a1.5,1.5,0,0,1,0-2.13l7-7L467,272.25l-8.31,8.31,7.32,7.32a1.5,1.5,0,0,1,0,2.13l-8.52,8.52a5.38,5.38,0,0,1-7.61,0l-.29-.29a5.37,5.37,0,0,1-1.26-2V260.16a5.64,5.64,0,0,1,1.2-3.58,5.38,5.38,0,0,1,8-.42l9.78,9.74,6.91-6.91a2,2,0,0,0,0-2.78L462,244l-15.34,0a3,3,0,0,0-2.12.88l-2.22,2.22-5.46,5.46-.26.26v41.57a5.46,5.46,0,0,1-1.57,3.8l-.29.29a5.38,5.38,0,0,1-7.61,0L418.56,290a1.5,1.5,0,0,1,0-2.13l7.32-7.32-8.31-8.31L409,280.84Z"/><path class="cls-3" d="M350.8,287.89a1.5,1.5,0,0,1,0,2.13l-5.66,5.66a2,2,0,0,0,0,2.78l12.44,12.44h16.23l.2-.19,3-3,3,3,.2.19H396.5l12.44-12.44a2,2,0,0,0,0-2.78L403.28,290a1.5,1.5,0,0,1,0-2.13l7-7-8.59-8.59-8.31,8.31,7.32,7.32a1.5,1.5,0,0,1,0,2.13l-8.52,8.52a5.38,5.38,0,0,1-7.61,0l-.29-.29a5.37,5.37,0,0,1-1.26-2V260.16a5.64,5.64,0,0,1,1.2-3.58,5.38,5.38,0,0,1,8-.42l9.78,9.74,6.91-6.91a2,2,0,0,0,0-2.78L396.72,244l-15.34,0a3,3,0,0,0-2.12.88L377,247.14l-5.46,5.46-.26.26v41.57a5.46,5.46,0,0,1-1.57,3.8l-.29.29a5.38,5.38,0,0,1-7.61,0L353.33,290a1.5,1.5,0,0,1,0-2.13l7.32-7.32-8.31-8.31-8.59,8.59Z"/><path class="cls-3" d="M285.56,287.89a1.5,1.5,0,0,1,0,2.13l-5.66,5.66a2,2,0,0,0,0,2.78l12.44,12.44h16.23l.2-.19,3-3,3,3,.2.19h16.23l12.44-12.44a2,2,0,0,0,0-2.78L338.05,290a1.5,1.5,0,0,1,0-2.13l7-7-8.59-8.59-8.31,8.31,7.32,7.32a1.5,1.5,0,0,1,0,2.13L327,298.53a5.38,5.38,0,0,1-7.61,0l-.29-.29a5.37,5.37,0,0,1-1.26-2V260.16a5.64,5.64,0,0,1,1.2-3.58,5.38,5.38,0,0,1,8-.42l9.78,9.74,6.91-6.91a2,2,0,0,0,0-2.78L331.49,244l-15.34,0a3,3,0,0,0-2.12.88l-2.22,2.22-5.46,5.46-.26.26v41.57a5.46,5.46,0,0,1-1.57,3.8l-.29.29a5.38,5.38,0,0,1-7.61,0L288.09,290a1.5,1.5,0,0,1,0-2.13l7.32-7.32-8.31-8.31-8.59,8.59Z"/><path class="cls-3" d="M220.33,287.89a1.5,1.5,0,0,1,0,2.13l-5.66,5.66a2,2,0,0,0,0,2.78l12.44,12.44h16.23l.2-.19,3-3,3,3,.2.19H266l12.44-12.44a2,2,0,0,0,0-2.78L272.82,290a1.5,1.5,0,0,1,0-2.13l7-7-8.59-8.59L263,280.57l7.32,7.32a1.5,1.5,0,0,1,0,2.13l-8.52,8.52a5.38,5.38,0,0,1-7.61,0l-.29-.29a5.37,5.37,0,0,1-1.26-2V260.16a5.64,5.64,0,0,1,1.2-3.58,5.38,5.38,0,0,1,8-.42l9.78,9.74,6.91-6.91a2,2,0,0,0,0-2.78L266.25,244l-15.34,0a3,3,0,0,0-2.12.88l-2.22,2.22-5.46,5.46-.26.26v41.57a5.46,5.46,0,0,1-1.57,3.8l-.29.29a5.38,5.38,0,0,1-7.61,0L222.86,290a1.5,1.5,0,0,1,0-2.13l7.32-7.32-8.31-8.31-8.59,8.59Z"/><path class="cls-3" d="M155.1,287.89a1.5,1.5,0,0,1,0,2.13l-5.66,5.66a2,2,0,0,0,0,2.78l12.44,12.44h16.23l.2-.19,3-3,3,3,.2.19H200.8l12.44-12.44a2,2,0,0,0,0-2.78L207.58,290a1.5,1.5,0,0,1,0-2.13l7-7L206,272.25l-8.31,8.31,7.32,7.32a1.5,1.5,0,0,1,0,2.13l-8.52,8.52a5.38,5.38,0,0,1-7.61,0l-.29-.29a5.37,5.37,0,0,1-1.26-2V260.16a5.64,5.64,0,0,1,1.2-3.58,5.38,5.38,0,0,1,8-.42l9.78,9.74,6.91-6.91a2,2,0,0,0,0-2.78L201,244l-15.34,0a3,3,0,0,0-2.12.88l-2.22,2.22-5.46,5.46-.26.26v41.57a5.46,5.46,0,0,1-1.57,3.8l-.29.29a5.38,5.38,0,0,1-7.61,0L157.63,290a1.5,1.5,0,0,1,0-2.13l7.32-7.32-8.31-8.31L148,280.84Z"/><path class="cls-3" d="M89.86,287.89a1.5,1.5,0,0,1,0,2.13l-5.66,5.66a2,2,0,0,0,0,2.78l12.44,12.44h16.23l.2-.19,3-3,3,3,.2.19h16.23L148,298.45a2,2,0,0,0,0-2.78L142.35,290a1.5,1.5,0,0,1,0-2.13l7-7-8.59-8.59-8.31,8.31,7.32,7.32a1.5,1.5,0,0,1,0,2.13l-8.52,8.52a5.38,5.38,0,0,1-7.61,0l-.29-.29a5.37,5.37,0,0,1-1.26-2V260.16a5.64,5.64,0,0,1,1.2-3.58,5.38,5.38,0,0,1,8-.42l9.78,9.74L148,259a2,2,0,0,0,0-2.78L135.79,244l-15.34,0a3,3,0,0,0-2.12.88l-2.22,2.22-5.46,5.46-.26.26v41.57a5.46,5.46,0,0,1-1.57,3.8l-.29.29a5.38,5.38,0,0,1-7.61,0L92.39,290a1.5,1.5,0,0,1,0-2.13l7.32-7.32-8.31-8.31-8.59,8.59Z"/><path class="cls-3" d="M24.63,287.89a1.5,1.5,0,0,1,0,2.13L19,295.67a2,2,0,0,0,0,2.78l12.44,12.44H47.64l.2-.19,3-3,3,3,.2.19H70.33l12.44-12.44a2,2,0,0,0,0-2.78L77.12,290a1.5,1.5,0,0,1,0-2.13l7-7-8.59-8.59-8.31,8.31,7.32,7.32a1.5,1.5,0,0,1,0,2.13l-8.52,8.52a5.38,5.38,0,0,1-7.61,0l-.29-.29a5.37,5.37,0,0,1-1.26-2V260.16a5.64,5.64,0,0,1,1.2-3.58,5.38,5.38,0,0,1,8-.42l9.78,9.74L82.77,259a2,2,0,0,0,0-2.78L70.55,244l-15.34,0a3,3,0,0,0-2.12.88l-2.22,2.22-5.46,5.46-.26.26v41.57a5.46,5.46,0,0,1-1.57,3.8l-.29.29a5.38,5.38,0,0,1-7.61,0L27.16,290a1.5,1.5,0,0,1,0-2.13l7.32-7.32-8.31-8.31-8.59,8.59Z"/><path class="cls-3" d="M77.28,337.75a1.5,1.5,0,0,1,0-2.13L82.94,330a2,2,0,0,0,0-2.78L70.5,314.75H54.27l-.2.19-3,3-3-3-.2-.19H31.58L19.14,327.19a2,2,0,0,0,0,2.78l5.66,5.66a1.5,1.5,0,0,1,0,2.13l-7,7,8.59,8.59,8.31-8.31-7.32-7.32a1.5,1.5,0,0,1,0-2.13l8.52-8.52a5.38,5.38,0,0,1,7.61,0l.29.29a5.37,5.37,0,0,1,1.26,2v36.08a5.64,5.64,0,0,1-1.2,3.58,5.38,5.38,0,0,1-8,.42L26,359.73l-6.91,6.91a2,2,0,0,0,0,2.78l12.22,12.22,15.34,0a3,3,0,0,0,2.12-.88L51,378.49,56.5,373l.26-.26V331.2a5.46,5.46,0,0,1,1.57-3.8l.29-.29a5.38,5.38,0,0,1,7.61,0l8.52,8.52a1.5,1.5,0,0,1,0,2.13l-7.32,7.32,8.31,8.31,8.59-8.59Z"/><path class="cls-3" d="M142.51,337.75a1.5,1.5,0,0,1,0-2.13l5.66-5.66a2,2,0,0,0,0-2.78l-12.44-12.44H119.5l-.2.19-3,3-3-3-.2-.19H96.81L84.37,327.19a2,2,0,0,0,0,2.78L90,335.63a1.5,1.5,0,0,1,0,2.13l-7,7,8.59,8.59,8.31-8.31-7.32-7.32a1.5,1.5,0,0,1,0-2.13l8.52-8.52a5.38,5.38,0,0,1,7.61,0l.29.29a5.37,5.37,0,0,1,1.26,2v36.08a5.64,5.64,0,0,1-1.2,3.58,5.38,5.38,0,0,1-8,.42l-9.78-9.74-6.91,6.91a2,2,0,0,0,0,2.78l12.22,12.22,15.34,0a3,3,0,0,0,2.12-.88l2.22-2.22,5.46-5.46.26-.26V331.2a5.46,5.46,0,0,1,1.57-3.8l.29-.29a5.38,5.38,0,0,1,7.61,0l8.52,8.52a1.5,1.5,0,0,1,0,2.13l-7.32,7.32,8.31,8.31,8.59-8.59Z"/><path class="cls-3" d="M207.75,337.75a1.5,1.5,0,0,1,0-2.13L213.4,330a2,2,0,0,0,0-2.78L201,314.75H184.73l-.2.19-3,3-3-3-.2-.19H162l-12.44,12.44a2,2,0,0,0,0,2.78l5.66,5.66a1.5,1.5,0,0,1,0,2.13l-7,7,8.59,8.59,8.31-8.31-7.32-7.32a1.5,1.5,0,0,1,0-2.13l8.52-8.52a5.38,5.38,0,0,1,7.61,0l.29.29a5.37,5.37,0,0,1,1.26,2v36.08a5.64,5.64,0,0,1-1.2,3.58,5.38,5.38,0,0,1-8,.42l-9.78-9.74-6.91,6.91a2,2,0,0,0,0,2.78l12.22,12.22,15.34,0a3,3,0,0,0,2.12-.88l2.22-2.22L187,373l.26-.26V331.2a5.46,5.46,0,0,1,1.57-3.8l.29-.29a5.38,5.38,0,0,1,7.61,0l8.52,8.52a1.5,1.5,0,0,1,0,2.13l-7.32,7.32,8.31,8.31,8.59-8.59Z"/><path class="cls-3" d="M273,337.75a1.5,1.5,0,0,1,0-2.13l5.66-5.66a2,2,0,0,0,0-2.78L266.2,314.75H250l-.2.19-3,3-3-3-.2-.19H227.28l-12.44,12.44a2,2,0,0,0,0,2.78l5.66,5.66a1.5,1.5,0,0,1,0,2.13l-7,7,8.59,8.59,8.31-8.31L223,337.75a1.5,1.5,0,0,1,0-2.13l8.52-8.52a5.38,5.38,0,0,1,7.61,0l.29.29a5.37,5.37,0,0,1,1.26,2v36.08a5.64,5.64,0,0,1-1.2,3.58,5.38,5.38,0,0,1-8,.42l-9.78-9.74-6.91,6.91a2,2,0,0,0,0,2.78l12.22,12.22,15.34,0a3,3,0,0,0,2.12-.88l2.22-2.22L252.2,373l.26-.26V331.2a5.46,5.46,0,0,1,1.57-3.8l.29-.29a5.38,5.38,0,0,1,7.61,0l8.52,8.52a1.5,1.5,0,0,1,0,2.13l-7.32,7.32,8.31,8.31L280,344.8Z"/><path class="cls-3" d="M338.21,337.75a1.5,1.5,0,0,1,0-2.13l5.66-5.66a2,2,0,0,0,0-2.78l-12.44-12.44H315.2l-.2.19-3,3-3-3-.2-.19H292.51l-12.44,12.44a2,2,0,0,0,0,2.78l5.66,5.66a1.5,1.5,0,0,1,0,2.13l-7,7,8.59,8.59,8.31-8.31-7.32-7.32a1.5,1.5,0,0,1,0-2.13l8.52-8.52a5.38,5.38,0,0,1,7.61,0l.29.29a5.37,5.37,0,0,1,1.26,2v36.08a5.64,5.64,0,0,1-1.2,3.58,5.38,5.38,0,0,1-8,.42L287,359.73l-6.91,6.91a2,2,0,0,0,0,2.78l12.22,12.22,15.34,0a3,3,0,0,0,2.12-.88l2.22-2.22,5.46-5.46.26-.26V331.2a5.46,5.46,0,0,1,1.57-3.8l.29-.29a5.38,5.38,0,0,1,7.61,0l8.52,8.52a1.5,1.5,0,0,1,0,2.13l-7.32,7.32,8.31,8.31,8.59-8.59Z"/><path class="cls-3" d="M403.45,337.75a1.5,1.5,0,0,1,0-2.13L409.1,330a2,2,0,0,0,0-2.78l-12.44-12.44H380.44l-.2.19-3,3-3-3-.2-.19H357.75l-12.44,12.44a2,2,0,0,0,0,2.78l5.66,5.66a1.5,1.5,0,0,1,0,2.13l-7,7,8.59,8.59,8.31-8.31-7.32-7.32a1.5,1.5,0,0,1,0-2.13l8.52-8.52a5.38,5.38,0,0,1,7.61,0l.29.29a5.37,5.37,0,0,1,1.26,2v36.08a5.64,5.64,0,0,1-1.2,3.58,5.38,5.38,0,0,1-8,.42l-9.78-9.74-6.91,6.91a2,2,0,0,0,0,2.78l12.22,12.22,15.34,0a3,3,0,0,0,2.12-.88l2.22-2.22,5.46-5.46.26-.26V331.2a5.46,5.46,0,0,1,1.57-3.8l.29-.29a5.38,5.38,0,0,1,7.61,0l8.52,8.52a1.5,1.5,0,0,1,0,2.13l-7.32,7.32,8.31,8.31,8.59-8.59Z"/><path class="cls-3" d="M468.68,337.75a1.5,1.5,0,0,1,0-2.13l5.66-5.66a2,2,0,0,0,0-2.78L461.9,314.75H445.67l-.2.19-3,3-3-3-.2-.19H423l-12.44,12.44a2,2,0,0,0,0,2.78l5.66,5.66a1.5,1.5,0,0,1,0,2.13l-7,7,8.59,8.59,8.31-8.31-7.32-7.32a1.5,1.5,0,0,1,0-2.13l8.52-8.52a5.38,5.38,0,0,1,7.61,0l.29.29a5.37,5.37,0,0,1,1.26,2v36.08a5.64,5.64,0,0,1-1.2,3.58,5.38,5.38,0,0,1-8,.42l-9.78-9.74-6.91,6.91a2,2,0,0,0,0,2.78l12.22,12.22,15.34,0a3,3,0,0,0,2.12-.88l2.22-2.22L447.9,373l.26-.26V331.2a5.46,5.46,0,0,1,1.57-3.8l.29-.29a5.38,5.38,0,0,1,7.61,0l8.52,8.52a1.5,1.5,0,0,1,0,2.13l-7.32,7.32,8.31,8.31,8.59-8.59Z"/><path class="cls-3" d="M533.91,337.75a1.5,1.5,0,0,1,0-2.13l5.66-5.66a2,2,0,0,0,0-2.78l-12.44-12.44H510.9l-.2.19-3,3-3-3-.2-.19H488.21l-12.44,12.44a2,2,0,0,0,0,2.78l5.66,5.66a1.5,1.5,0,0,1,0,2.13l-7,7,8.59,8.59,8.31-8.31L484,337.75a1.5,1.5,0,0,1,0-2.13l8.52-8.52a5.38,5.38,0,0,1,7.61,0l.29.29a5.37,5.37,0,0,1,1.26,2v36.08a5.64,5.64,0,0,1-1.2,3.58,5.38,5.38,0,0,1-8,.42l-9.78-9.74-6.91,6.91a2,2,0,0,0,0,2.78L488,381.64l15.34,0a3,3,0,0,0,2.12-.88l2.22-2.22,5.46-5.46.26-.26V331.2a5.46,5.46,0,0,1,1.57-3.8l.29-.29a5.38,5.38,0,0,1,7.61,0l8.52,8.52a1.5,1.5,0,0,1,0,2.13l-7.32,7.32,8.31,8.31L541,344.8Z"/><path class="cls-3" d="M599.15,337.75a1.5,1.5,0,0,1,0-2.13L604.8,330a2,2,0,0,0,0-2.78l-12.44-12.44H576.14l-.2.19-3,3-3-3-.2-.19H553.45L541,327.19a2,2,0,0,0,0,2.78l5.66,5.66a1.5,1.5,0,0,1,0,2.13l-7,7,8.59,8.59,8.31-8.31-7.32-7.32a1.5,1.5,0,0,1,0-2.13l8.52-8.52a5.38,5.38,0,0,1,7.61,0l.29.29a5.37,5.37,0,0,1,1.26,2v36.08a5.64,5.64,0,0,1-1.2,3.58,5.38,5.38,0,0,1-8,.42l-9.78-9.74L541,366.63a2,2,0,0,0,0,2.78l12.22,12.22,15.34,0a3,3,0,0,0,2.12-.88l2.22-2.22,5.46-5.46.26-.26V331.2a5.46,5.46,0,0,1,1.57-3.8l.29-.29a5.38,5.38,0,0,1,7.61,0l8.52,8.52a1.5,1.5,0,0,1,0,2.13l-7.32,7.32,8.31,8.31,8.59-8.59Z"/><path class="cls-3" d="M664.38,337.75a1.5,1.5,0,0,1,0-2.13L670,330a2,2,0,0,0,0-2.78L657.6,314.75H641.37l-.2.19-3,3-3-3-.2-.19H618.68l-12.44,12.44a2,2,0,0,0,0,2.78l5.66,5.66a1.5,1.5,0,0,1,0,2.13l-7,7,8.59,8.59,8.31-8.31-7.32-7.32a1.5,1.5,0,0,1,0-2.13l8.52-8.52a5.38,5.38,0,0,1,7.61,0l.29.29a5.37,5.37,0,0,1,1.26,2v36.08a5.64,5.64,0,0,1-1.2,3.58,5.38,5.38,0,0,1-8,.42l-9.78-9.74-6.91,6.91a2,2,0,0,0,0,2.78l12.22,12.22,15.34,0a3,3,0,0,0,2.12-.88l2.22-2.22L643.6,373l.26-.26V331.2a5.46,5.46,0,0,1,1.57-3.8l.29-.29a5.38,5.38,0,0,1,7.61,0l8.52,8.52a1.5,1.5,0,0,1,0,2.13l-7.32,7.32,8.31,8.31,8.59-8.59Z"/><path class="cls-3" d="M729.62,337.75a1.5,1.5,0,0,1,0-2.13l5.66-5.66a2,2,0,0,0,0-2.78l-12.44-12.44H706.6l-.2.19-3,3-3-3-.2-.19H683.91l-12.44,12.44a2,2,0,0,0,0,2.78l5.66,5.66a1.5,1.5,0,0,1,0,2.13l-7,7,8.59,8.59,8.31-8.31-7.32-7.32a1.5,1.5,0,0,1,0-2.13l8.52-8.52a5.38,5.38,0,0,1,7.61,0l.29.29a5.37,5.37,0,0,1,1.26,2v36.08a5.64,5.64,0,0,1-1.2,3.58,5.38,5.38,0,0,1-8,.42l-9.78-9.74-6.91,6.91a2,2,0,0,0,0,2.78l12.22,12.22,15.34,0a3,3,0,0,0,2.12-.88l2.22-2.22,5.46-5.46.26-.26V331.2a5.46,5.46,0,0,1,1.57-3.8l.29-.29a5.38,5.38,0,0,1,7.61,0l8.52,8.52a1.5,1.5,0,0,1,0,2.13l-7.32,7.32,8.31,8.31,8.59-8.59Z"/><path class="cls-3" d="M794.85,337.75a1.5,1.5,0,0,1,0-2.13L800.5,330a2,2,0,0,0,0-2.78l-12.44-12.44H771.84l-.2.19-3,3-3-3-.2-.19H749.15l-12.44,12.44a2,2,0,0,0,0,2.78l5.66,5.66a1.5,1.5,0,0,1,0,2.13l-7,7,8.59,8.59,8.31-8.31-7.32-7.32a1.5,1.5,0,0,1,0-2.13l8.52-8.52a5.38,5.38,0,0,1,7.61,0l.29.29a5.37,5.37,0,0,1,1.26,2v36.08a5.64,5.64,0,0,1-1.2,3.58,5.38,5.38,0,0,1-8,.42l-9.78-9.74-6.91,6.91a2,2,0,0,0,0,2.78l12.22,12.22,15.34,0a3,3,0,0,0,2.12-.88l2.22-2.22,5.46-5.46.26-.26V331.2a5.46,5.46,0,0,1,1.57-3.8l.29-.29a5.38,5.38,0,0,1,7.61,0l8.52,8.52a1.5,1.5,0,0,1,0,2.13L785,345.07l8.31,8.31,8.59-8.59Z"/><path class="cls-3" d="M751.86,417.3a1.5,1.5,0,0,1,0,2.13l-5.66,5.66a2,2,0,0,0,0,2.78l12.44,12.44h16.23l.2-.19,3-3,3,3,.2.19h16.23L810,427.87a2,2,0,0,0,0-2.78l-5.66-5.66a1.5,1.5,0,0,1,0-2.13l7-7-8.59-8.59L794.5,410l7.32,7.32a1.5,1.5,0,0,1,0,2.13l-8.52,8.52a5.38,5.38,0,0,1-7.61,0l-.29-.29a5.37,5.37,0,0,1-1.26-2V389.58a5.64,5.64,0,0,1,1.2-3.58,5.38,5.38,0,0,1,8-.42l9.78,9.74,6.91-6.91a2,2,0,0,0,0-2.78l-12.22-12.22-15.34,0a3,3,0,0,0-2.12.88l-2.22,2.22L772.65,382l-.26.26v41.57a5.46,5.46,0,0,1-1.57,3.8l-.29.29a5.38,5.38,0,0,1-7.61,0l-8.52-8.52a1.5,1.5,0,0,1,0-2.13l7.32-7.32-8.31-8.31-8.59,8.59Z"/><path class="cls-3" d="M686.63,417.3a1.5,1.5,0,0,1,0,2.13L681,425.08a2,2,0,0,0,0,2.78l12.44,12.44h16.23l.2-.19,3-3,3,3,.2.19h16.23l12.44-12.44a2,2,0,0,0,0-2.78l-5.66-5.66a1.5,1.5,0,0,1,0-2.13l7-7-8.59-8.59L729.26,410l7.32,7.32a1.5,1.5,0,0,1,0,2.13l-8.52,8.52a5.38,5.38,0,0,1-7.61,0l-.29-.29a5.37,5.37,0,0,1-1.26-2V389.58a5.64,5.64,0,0,1,1.2-3.58,5.38,5.38,0,0,1,8-.42l9.78,9.74,6.91-6.91a2,2,0,0,0,0-2.78l-12.22-12.22-15.34,0a3,3,0,0,0-2.12.88l-2.22,2.22L707.41,382l-.26.26v41.57a5.46,5.46,0,0,1-1.57,3.8l-.29.29a5.38,5.38,0,0,1-7.61,0l-8.52-8.52a1.5,1.5,0,0,1,0-2.13l7.32-7.32-8.31-8.31-8.59,8.59Z"/><path class="cls-3" d="M621.4,417.3a1.5,1.5,0,0,1,0,2.13l-5.66,5.66a2,2,0,0,0,0,2.78l12.44,12.44h16.23l.2-.19,3-3,3,3,.2.19H667.1l12.44-12.44a2,2,0,0,0,0-2.78l-5.66-5.66a1.5,1.5,0,0,1,0-2.13l7-7-8.59-8.59L664,410l7.32,7.32a1.5,1.5,0,0,1,0,2.13l-8.52,8.52a5.38,5.38,0,0,1-7.61,0l-.29-.29a5.37,5.37,0,0,1-1.26-2V389.58a5.64,5.64,0,0,1,1.2-3.58,5.38,5.38,0,0,1,8-.42l9.78,9.74,6.91-6.91a2,2,0,0,0,0-2.78l-12.22-12.22-15.34,0a3,3,0,0,0-2.12.88l-2.22,2.22L642.18,382l-.26.26v41.57a5.46,5.46,0,0,1-1.57,3.8l-.29.29a5.38,5.38,0,0,1-7.61,0l-8.52-8.52a1.5,1.5,0,0,1,0-2.13l7.32-7.32-8.31-8.31-8.59,8.59Z"/><path class="cls-3" d="M556.16,417.3a1.5,1.5,0,0,1,0,2.13l-5.66,5.66a2,2,0,0,0,0,2.78l12.44,12.44h16.23l.2-.19,3-3,3,3,.2.19h16.23l12.44-12.44a2,2,0,0,0,0-2.78l-5.66-5.66a1.5,1.5,0,0,1,0-2.13l7-7-8.59-8.59L598.8,410l7.32,7.32a1.5,1.5,0,0,1,0,2.13l-8.52,8.52a5.38,5.38,0,0,1-7.61,0l-.29-.29a5.37,5.37,0,0,1-1.26-2V389.58a5.64,5.64,0,0,1,1.2-3.58,5.38,5.38,0,0,1,8-.42l9.78,9.74,6.91-6.91a2,2,0,0,0,0-2.78l-12.22-12.22-15.34,0a3,3,0,0,0-2.12.88l-2.22,2.22L576.94,382l-.26.26v41.57a5.46,5.46,0,0,1-1.57,3.8l-.29.29a5.38,5.38,0,0,1-7.61,0l-8.52-8.52a1.5,1.5,0,0,1,0-2.13L566,410l-8.31-8.31-8.59,8.59Z"/><path class="cls-3" d="M490.93,417.3a1.5,1.5,0,0,1,0,2.13l-5.66,5.66a2,2,0,0,0,0,2.78l12.44,12.44h16.23l.2-.19,3-3,3,3,.2.19h16.23l12.44-12.44a2,2,0,0,0,0-2.78l-5.66-5.66a1.5,1.5,0,0,1,0-2.13l7-7-8.59-8.59L533.56,410l7.32,7.32a1.5,1.5,0,0,1,0,2.13l-8.52,8.52a5.38,5.38,0,0,1-7.61,0l-.29-.29a5.37,5.37,0,0,1-1.26-2V389.58a5.64,5.64,0,0,1,1.2-3.58,5.38,5.38,0,0,1,8-.42l9.78,9.74,6.91-6.91a2,2,0,0,0,0-2.78l-12.22-12.22-15.34,0a3,3,0,0,0-2.12.88l-2.22,2.22L511.71,382l-.26.26v41.57a5.46,5.46,0,0,1-1.57,3.8l-.29.29a5.38,5.38,0,0,1-7.61,0l-8.52-8.52a1.5,1.5,0,0,1,0-2.13l7.32-7.32-8.31-8.31-8.59,8.59Z"/><path class="cls-3" d="M425.7,417.3a1.5,1.5,0,0,1,0,2.13L420,425.08a2,2,0,0,0,0,2.78l12.44,12.44h16.23l.2-.19,3-3,3,3,.2.19H471.4l12.44-12.44a2,2,0,0,0,0-2.78l-5.66-5.66a1.5,1.5,0,0,1,0-2.13l7-7-8.59-8.59L468.33,410l7.32,7.32a1.5,1.5,0,0,1,0,2.13l-8.52,8.52a5.38,5.38,0,0,1-7.61,0l-.29-.29a5.37,5.37,0,0,1-1.26-2V389.58a5.64,5.64,0,0,1,1.2-3.58,5.38,5.38,0,0,1,8-.42l9.78,9.74,6.91-6.91a2,2,0,0,0,0-2.78l-12.22-12.22-15.34,0a3,3,0,0,0-2.12.88l-2.22,2.22L446.48,382l-.26.26v41.57a5.46,5.46,0,0,1-1.57,3.8l-.29.29a5.38,5.38,0,0,1-7.61,0l-8.52-8.52a1.5,1.5,0,0,1,0-2.13l7.32-7.32-8.31-8.31-8.59,8.59Z"/><path class="cls-3" d="M360.46,417.3a1.5,1.5,0,0,1,0,2.13l-5.66,5.66a2,2,0,0,0,0,2.78l12.44,12.44h16.23l.2-.19,3-3,3,3,.2.19h16.23l12.44-12.44a2,2,0,0,0,0-2.78l-5.66-5.66a1.5,1.5,0,0,1,0-2.13l7-7-8.59-8.59L403.1,410l7.32,7.32a1.5,1.5,0,0,1,0,2.13l-8.52,8.52a5.38,5.38,0,0,1-7.61,0l-.29-.29a5.37,5.37,0,0,1-1.26-2V389.58a5.64,5.64,0,0,1,1.2-3.58,5.38,5.38,0,0,1,8-.42l9.78,9.74,6.91-6.91a2,2,0,0,0,0-2.78l-12.22-12.22-15.34,0a3,3,0,0,0-2.12.88l-2.22,2.22L381.24,382l-.26.26v41.57a5.46,5.46,0,0,1-1.57,3.8l-.29.29a5.38,5.38,0,0,1-7.61,0L363,419.43a1.5,1.5,0,0,1,0-2.13l7.32-7.32L362,401.67l-8.59,8.59Z"/><path class="cls-3" d="M295.23,417.3a1.5,1.5,0,0,1,0,2.13l-5.66,5.66a2,2,0,0,0,0,2.78L302,440.31h16.23l.2-.19,3-3,3,3,.2.19h16.23l12.44-12.44a2,2,0,0,0,0-2.78l-5.66-5.66a1.5,1.5,0,0,1,0-2.13l7-7-8.59-8.59L337.86,410l7.32,7.32a1.5,1.5,0,0,1,0,2.13l-8.52,8.52a5.38,5.38,0,0,1-7.61,0l-.29-.29a5.37,5.37,0,0,1-1.26-2V389.58a5.64,5.64,0,0,1,1.2-3.58,5.38,5.38,0,0,1,8-.42l9.78,9.74,6.91-6.91a2,2,0,0,0,0-2.78l-12.22-12.22-15.34,0a3,3,0,0,0-2.12.88l-2.22,2.22L316,382l-.26.26v41.57a5.46,5.46,0,0,1-1.57,3.8l-.29.29a5.38,5.38,0,0,1-7.61,0l-8.52-8.52a1.5,1.5,0,0,1,0-2.13l7.32-7.32-8.31-8.31-8.59,8.59Z"/><path class="cls-3" d="M230,417.3a1.5,1.5,0,0,1,0,2.13l-5.66,5.66a2,2,0,0,0,0,2.78l12.44,12.44H253l.2-.19,3-3,3,3,.2.19H275.7l12.44-12.44a2,2,0,0,0,0-2.78l-5.66-5.66a1.5,1.5,0,0,1,0-2.13l7-7-8.59-8.59L272.63,410,280,417.3a1.5,1.5,0,0,1,0,2.13l-8.52,8.52a5.38,5.38,0,0,1-7.61,0l-.29-.29a5.37,5.37,0,0,1-1.26-2V389.58a5.64,5.64,0,0,1,1.2-3.58,5.38,5.38,0,0,1,8-.42l9.78,9.74,6.91-6.91a2,2,0,0,0,0-2.78l-12.22-12.22-15.34,0a3,3,0,0,0-2.12.88l-2.22,2.22L250.78,382l-.26.26v41.57a5.46,5.46,0,0,1-1.57,3.8l-.29.29a5.38,5.38,0,0,1-7.61,0l-8.52-8.52a1.5,1.5,0,0,1,0-2.13l7.32-7.32-8.31-8.31-8.59,8.59Z"/><path class="cls-3" d="M164.76,417.3a1.5,1.5,0,0,1,0,2.13l-5.66,5.66a2,2,0,0,0,0,2.78l12.44,12.44h16.23l.2-.19,3-3,3,3,.2.19h16.23l12.44-12.44a2,2,0,0,0,0-2.78l-5.66-5.66a1.5,1.5,0,0,1,0-2.13l7-7-8.59-8.59L207.4,410l7.32,7.32a1.5,1.5,0,0,1,0,2.13l-8.52,8.52a5.38,5.38,0,0,1-7.61,0l-.29-.29a5.37,5.37,0,0,1-1.26-2V389.58a5.64,5.64,0,0,1,1.2-3.58,5.38,5.38,0,0,1,8-.42l9.78,9.74,6.91-6.91a2,2,0,0,0,0-2.78l-12.22-12.22-15.34,0a3,3,0,0,0-2.12.88L191,376.56,185.54,382l-.26.26v41.57a5.46,5.46,0,0,1-1.57,3.8l-.29.29a5.38,5.38,0,0,1-7.61,0l-8.52-8.52a1.5,1.5,0,0,1,0-2.13l7.32-7.32-8.31-8.31-8.59,8.59Z"/><path class="cls-3" d="M99.53,417.3a1.5,1.5,0,0,1,0,2.13l-5.66,5.66a2,2,0,0,0,0,2.78l12.44,12.44h16.23l.2-.19,3-3,3,3,.2.19h16.23l12.44-12.44a2,2,0,0,0,0-2.78L152,419.43a1.5,1.5,0,0,1,0-2.13l7-7-8.59-8.59L142.16,410l7.32,7.32a1.5,1.5,0,0,1,0,2.13L141,427.95a5.38,5.38,0,0,1-7.61,0l-.29-.29a5.37,5.37,0,0,1-1.26-2V389.58A5.64,5.64,0,0,1,133,386a5.38,5.38,0,0,1,8-.42l9.78,9.74,6.91-6.91a2,2,0,0,0,0-2.78l-12.22-12.22-15.34,0a3,3,0,0,0-2.12.88l-2.22,2.22L120.31,382l-.26.26v41.57a5.46,5.46,0,0,1-1.57,3.8l-.29.29a5.38,5.38,0,0,1-7.61,0l-8.52-8.52a1.5,1.5,0,0,1,0-2.13l7.32-7.32-8.31-8.31-8.59,8.59Z"/><path class="cls-3" d="M34.29,417.3a1.5,1.5,0,0,1,0,2.13l-5.66,5.66a2,2,0,0,0,0,2.78l12.44,12.44H57.31l.2-.19,3-3,3,3,.2.19H80l12.44-12.44a2,2,0,0,0,0-2.78l-5.66-5.66a1.5,1.5,0,0,1,0-2.13l7-7-8.59-8.59L76.93,410l7.32,7.32a1.5,1.5,0,0,1,0,2.13l-8.52,8.52a5.38,5.38,0,0,1-7.61,0l-.29-.29a5.37,5.37,0,0,1-1.26-2V389.58a5.64,5.64,0,0,1,1.2-3.58,5.38,5.38,0,0,1,8-.42l9.78,9.74,6.91-6.91a2,2,0,0,0,0-2.78L80.22,373.42l-15.34,0a3,3,0,0,0-2.12.88l-2.22,2.22L55.08,382l-.26.26v41.57a5.46,5.46,0,0,1-1.57,3.8l-.29.29a5.38,5.38,0,0,1-7.61,0l-8.52-8.52a1.5,1.5,0,0,1,0-2.13L44.15,410l-8.31-8.31-8.59,8.59Z"/><path class="cls-3" d="M86.94,467.68a1.5,1.5,0,0,1,0-2.13l5.66-5.66a2,2,0,0,0,0-2.78L80.16,444.68H63.93l-.2.19-3,3-3-3-.2-.19H41.24L28.8,457.12a2,2,0,0,0,0,2.78l5.66,5.66a1.5,1.5,0,0,1,0,2.13l-7,7L36,483.32,44.31,475,37,467.68a1.5,1.5,0,0,1,0-2.13L45.51,457a5.38,5.38,0,0,1,7.61,0l.29.29a5.37,5.37,0,0,1,1.26,2v36.08a5.64,5.64,0,0,1-1.2,3.58,5.38,5.38,0,0,1-8,.42l-9.78-9.74-6.91,6.91a2,2,0,0,0,0,2.78L41,511.57l15.34,0a3,3,0,0,0,2.12-.88l2.22-2.22L66.16,503l.26-.26V461.13a5.46,5.46,0,0,1,1.57-3.8l.29-.29a5.38,5.38,0,0,1,7.61,0l8.52,8.52a1.5,1.5,0,0,1,0,2.13L77.09,475l8.31,8.31L94,474.73Z"/><path class="cls-3" d="M152.18,467.68a1.5,1.5,0,0,1,0-2.13l5.66-5.66a2,2,0,0,0,0-2.78l-12.44-12.44H129.17l-.2.19-3,3-3-3-.2-.19H106.48L94,457.12a2,2,0,0,0,0,2.78l5.66,5.66a1.5,1.5,0,0,1,0,2.13l-7,7,8.59,8.59,8.31-8.31-7.32-7.32a1.5,1.5,0,0,1,0-2.13l8.52-8.52a5.38,5.38,0,0,1,7.61,0l.29.29a5.37,5.37,0,0,1,1.26,2v36.08a5.64,5.64,0,0,1-1.2,3.58,5.38,5.38,0,0,1-8,.42l-9.78-9.74L94,496.57a2,2,0,0,0,0,2.78l12.22,12.22,15.34,0a3,3,0,0,0,2.12-.88l2.22-2.22L131.4,503l.26-.26V461.13a5.46,5.46,0,0,1,1.57-3.8l.29-.29a5.38,5.38,0,0,1,7.61,0l8.52,8.52a1.5,1.5,0,0,1,0,2.13L142.33,475l8.31,8.31,8.59-8.59Z"/><path class="cls-3" d="M217.41,467.68a1.5,1.5,0,0,1,0-2.13l5.66-5.66a2,2,0,0,0,0-2.78l-12.44-12.44H194.4l-.2.19-3,3-3-3-.2-.19H171.71l-12.44,12.44a2,2,0,0,0,0,2.78l5.66,5.66a1.5,1.5,0,0,1,0,2.13l-7,7,8.59,8.59,8.31-8.31-7.32-7.32a1.5,1.5,0,0,1,0-2.13L176,457a5.38,5.38,0,0,1,7.61,0l.29.29a5.37,5.37,0,0,1,1.26,2v36.08a5.64,5.64,0,0,1-1.2,3.58,5.38,5.38,0,0,1-8,.42l-9.78-9.74-6.91,6.91a2,2,0,0,0,0,2.78l12.22,12.22,15.34,0a3,3,0,0,0,2.12-.88l2.22-2.22,5.46-5.46.26-.26V461.13a5.46,5.46,0,0,1,1.57-3.8l.29-.29a5.38,5.38,0,0,1,7.61,0l8.52,8.52a1.5,1.5,0,0,1,0,2.13L207.56,475l8.31,8.31,8.59-8.59Z"/><path class="cls-3" d="M282.65,467.68a1.5,1.5,0,0,1,0-2.13l5.66-5.66a2,2,0,0,0,0-2.78l-12.44-12.44H259.63l-.2.19-3,3-3-3-.2-.19H236.94L224.5,457.12a2,2,0,0,0,0,2.78l5.66,5.66a1.5,1.5,0,0,1,0,2.13l-7,7,8.59,8.59L240,475l-7.32-7.32a1.5,1.5,0,0,1,0-2.13l8.52-8.52a5.38,5.38,0,0,1,7.61,0l.29.29a5.37,5.37,0,0,1,1.26,2v36.08a5.64,5.64,0,0,1-1.2,3.58,5.38,5.38,0,0,1-8,.42l-9.78-9.74-6.91,6.91a2,2,0,0,0,0,2.78l12.22,12.22,15.34,0a3,3,0,0,0,2.12-.88l2.22-2.22,5.46-5.46.26-.26V461.13a5.46,5.46,0,0,1,1.57-3.8L264,457a5.38,5.38,0,0,1,7.61,0l8.52,8.52a1.5,1.5,0,0,1,0,2.13L272.79,475l8.31,8.31,8.59-8.59Z"/><path class="cls-3" d="M347.88,467.68a1.5,1.5,0,0,1,0-2.13l5.66-5.66a2,2,0,0,0,0-2.78L341.1,444.68H324.87l-.2.19-3,3-3-3-.2-.19H302.18l-12.44,12.44a2,2,0,0,0,0,2.78l5.66,5.66a1.5,1.5,0,0,1,0,2.13l-7,7,8.59,8.59,8.31-8.31-7.32-7.32a1.5,1.5,0,0,1,0-2.13l8.52-8.52a5.38,5.38,0,0,1,7.61,0l.29.29a5.37,5.37,0,0,1,1.26,2v36.08a5.64,5.64,0,0,1-1.2,3.58,5.38,5.38,0,0,1-8,.42l-9.78-9.74-6.91,6.91a2,2,0,0,0,0,2.78L302,511.57l15.34,0a3,3,0,0,0,2.12-.88l2.22-2.22L327.1,503l.26-.26V461.13a5.46,5.46,0,0,1,1.57-3.8l.29-.29a5.38,5.38,0,0,1,7.61,0l8.52,8.52a1.5,1.5,0,0,1,0,2.13L338,475l8.31,8.31,8.59-8.59Z"/><path class="cls-3" d="M413.11,467.68a1.5,1.5,0,0,1,0-2.13l5.66-5.66a2,2,0,0,0,0-2.78l-12.44-12.44H390.1l-.2.19-3,3-3-3-.2-.19H367.41L355,457.12a2,2,0,0,0,0,2.78l5.66,5.66a1.5,1.5,0,0,1,0,2.13l-7,7,8.59,8.59,8.31-8.31-7.32-7.32a1.5,1.5,0,0,1,0-2.13l8.52-8.52a5.38,5.38,0,0,1,7.61,0l.29.29a5.37,5.37,0,0,1,1.26,2v36.08a5.64,5.64,0,0,1-1.2,3.58,5.38,5.38,0,0,1-8,.42l-9.78-9.74L355,496.57a2,2,0,0,0,0,2.78l12.22,12.22,15.34,0a3,3,0,0,0,2.12-.88l2.22-2.22,5.46-5.46.26-.26V461.13a5.46,5.46,0,0,1,1.57-3.8l.29-.29a5.38,5.38,0,0,1,7.61,0l8.52,8.52a1.5,1.5,0,0,1,0,2.13L403.26,475l8.31,8.31,8.59-8.59Z"/><path class="cls-3" d="M478.35,467.68a1.5,1.5,0,0,1,0-2.13L484,459.9a2,2,0,0,0,0-2.78l-12.44-12.44H455.33l-.2.19-3,3-3-3-.2-.19H432.64L420.2,457.12a2,2,0,0,0,0,2.78l5.66,5.66a1.5,1.5,0,0,1,0,2.13l-7,7,8.59,8.59,8.31-8.31-7.32-7.32a1.5,1.5,0,0,1,0-2.13l8.52-8.52a5.38,5.38,0,0,1,7.61,0l.29.29a5.37,5.37,0,0,1,1.26,2v36.08a5.64,5.64,0,0,1-1.2,3.58,5.38,5.38,0,0,1-8,.42l-9.78-9.74-6.91,6.91a2,2,0,0,0,0,2.78l12.22,12.22,15.34,0a3,3,0,0,0,2.12-.88l2.22-2.22,5.46-5.46.26-.26V461.13a5.46,5.46,0,0,1,1.57-3.8l.29-.29a5.38,5.38,0,0,1,7.61,0l8.52,8.52a1.5,1.5,0,0,1,0,2.13L468.49,475l8.31,8.31,8.59-8.59Z"/><path class="cls-3" d="M543.58,467.68a1.5,1.5,0,0,1,0-2.13l5.66-5.66a2,2,0,0,0,0-2.78L536.8,444.68H520.57l-.2.19-3,3-3-3-.2-.19H497.88l-12.44,12.44a2,2,0,0,0,0,2.78l5.66,5.66a1.5,1.5,0,0,1,0,2.13l-7,7,8.59,8.59,8.31-8.31-7.32-7.32a1.5,1.5,0,0,1,0-2.13l8.52-8.52a5.38,5.38,0,0,1,7.61,0l.29.29a5.37,5.37,0,0,1,1.26,2v36.08a5.64,5.64,0,0,1-1.2,3.58,5.38,5.38,0,0,1-8,.42l-9.78-9.74-6.91,6.91a2,2,0,0,0,0,2.78l12.22,12.22,15.34,0a3,3,0,0,0,2.12-.88l2.22-2.22L522.8,503l.26-.26V461.13a5.46,5.46,0,0,1,1.57-3.8l.29-.29a5.38,5.38,0,0,1,7.61,0l8.52,8.52a1.5,1.5,0,0,1,0,2.13L533.73,475l8.31,8.31,8.59-8.59Z"/><path class="cls-3" d="M608.81,467.68a1.5,1.5,0,0,1,0-2.13l5.66-5.66a2,2,0,0,0,0-2.78L602,444.68H585.8l-.2.19-3,3-3-3-.2-.19H563.11l-12.44,12.44a2,2,0,0,0,0,2.78l5.66,5.66a1.5,1.5,0,0,1,0,2.13l-7,7,8.59,8.59,8.31-8.31-7.32-7.32a1.5,1.5,0,0,1,0-2.13l8.52-8.52a5.38,5.38,0,0,1,7.61,0l.29.29a5.37,5.37,0,0,1,1.26,2v36.08a5.64,5.64,0,0,1-1.2,3.58,5.38,5.38,0,0,1-8,.42l-9.78-9.74-6.91,6.91a2,2,0,0,0,0,2.78l12.22,12.22,15.34,0a3,3,0,0,0,2.12-.88l2.22-2.22L588,503l.26-.26V461.13a5.46,5.46,0,0,1,1.57-3.8l.29-.29a5.38,5.38,0,0,1,7.61,0l8.52,8.52a1.5,1.5,0,0,1,0,2.13L599,475l8.31,8.31,8.59-8.59Z"/><path class="cls-3" d="M674,467.68a1.5,1.5,0,0,1,0-2.13l5.66-5.66a2,2,0,0,0,0-2.78l-12.44-12.44H651l-.2.19-3,3-3-3-.2-.19H628.34L615.9,457.12a2,2,0,0,0,0,2.78l5.66,5.66a1.5,1.5,0,0,1,0,2.13l-7,7,8.59,8.59,8.31-8.31-7.32-7.32a1.5,1.5,0,0,1,0-2.13l8.52-8.52a5.38,5.38,0,0,1,7.61,0l.29.29a5.37,5.37,0,0,1,1.26,2v36.08a5.64,5.64,0,0,1-1.2,3.58,5.38,5.38,0,0,1-8,.42l-9.78-9.74-6.91,6.91a2,2,0,0,0,0,2.78l12.22,12.22,15.34,0a3,3,0,0,0,2.12-.88l2.22-2.22,5.46-5.46.26-.26V461.13a5.46,5.46,0,0,1,1.57-3.8l.29-.29a5.38,5.38,0,0,1,7.61,0l8.52,8.52a1.5,1.5,0,0,1,0,2.13L664.2,475l8.31,8.31,8.59-8.59Z"/><path class="cls-3" d="M739.28,467.68a1.5,1.5,0,0,1,0-2.13l5.66-5.66a2,2,0,0,0,0-2.78L732.5,444.68H716.27l-.2.19-3,3-3-3-.2-.19H693.58l-12.44,12.44a2,2,0,0,0,0,2.78l5.66,5.66a1.5,1.5,0,0,1,0,2.13l-7,7,8.59,8.59,8.31-8.31-7.32-7.32a1.5,1.5,0,0,1,0-2.13l8.52-8.52a5.38,5.38,0,0,1,7.61,0l.29.29a5.37,5.37,0,0,1,1.26,2v36.08a5.64,5.64,0,0,1-1.2,3.58,5.38,5.38,0,0,1-8,.42L688,489.66l-6.91,6.91a2,2,0,0,0,0,2.78l12.22,12.22,15.34,0a3,3,0,0,0,2.12-.88l2.22-2.22L718.5,503l.26-.26V461.13a5.46,5.46,0,0,1,1.57-3.8l.29-.29a5.38,5.38,0,0,1,7.61,0l8.52,8.52a1.5,1.5,0,0,1,0,2.13L729.43,475l8.31,8.31,8.59-8.59Z"/><path class="cls-3" d="M804.51,467.68a1.5,1.5,0,0,1,0-2.13l5.66-5.66a2,2,0,0,0,0-2.78l-12.44-12.44H781.5l-.2.19-3,3-3-3-.2-.19H758.81l-12.44,12.44a2,2,0,0,0,0,2.78l5.66,5.66a1.5,1.5,0,0,1,0,2.13l-7,7,8.59,8.59,8.31-8.31-7.32-7.32a1.5,1.5,0,0,1,0-2.13l8.52-8.52a5.38,5.38,0,0,1,7.61,0l.29.29a5.37,5.37,0,0,1,1.26,2v36.08A5.64,5.64,0,0,1,771,499a5.38,5.38,0,0,1-8,.42l-9.78-9.74-6.91,6.91a2,2,0,0,0,0,2.78l12.22,12.22,15.34,0a3,3,0,0,0,2.12-.88l2.22-2.22,5.46-5.46.26-.26V461.13a5.46,5.46,0,0,1,1.57-3.8l.29-.29a5.38,5.38,0,0,1,7.61,0l8.52,8.52a1.5,1.5,0,0,1,0,2.13L794.66,475l8.31,8.31,8.59-8.59Z"/><path class="cls-3" d="M761.53,547.23a1.5,1.5,0,0,1,0,2.13L755.87,555a2,2,0,0,0,0,2.78l12.44,12.44h16.23l.2-.19,3-3,3,3,.2.19h16.23l12.44-12.44a2,2,0,0,0,0-2.78L814,549.36a1.5,1.5,0,0,1,0-2.13l7-7-8.59-8.59-8.31,8.31,7.32,7.32a1.5,1.5,0,0,1,0,2.13L803,557.88a5.38,5.38,0,0,1-7.61,0l-.29-.29a5.37,5.37,0,0,1-1.26-2V519.51a5.64,5.64,0,0,1,1.2-3.58,5.38,5.38,0,0,1,8-.42l9.78,9.74,6.91-6.91a2,2,0,0,0,0-2.78l-12.22-12.22-15.34,0a3,3,0,0,0-2.12.88l-2.22,2.22L782.31,512l-.26.26v41.57a5.46,5.46,0,0,1-1.57,3.8l-.29.29a5.38,5.38,0,0,1-7.61,0l-8.52-8.52a1.5,1.5,0,0,1,0-2.13l7.32-7.32-8.31-8.31-8.59,8.59Z"/><path class="cls-3" d="M696.29,547.23a1.5,1.5,0,0,1,0,2.13L690.64,555a2,2,0,0,0,0,2.78l12.44,12.44h16.23l.2-.19,3-3,3,3,.2.19H742l12.44-12.44a2,2,0,0,0,0-2.78l-5.66-5.66a1.5,1.5,0,0,1,0-2.13l7-7-8.59-8.59-8.31,8.31,7.32,7.32a1.5,1.5,0,0,1,0,2.13l-8.52,8.52a5.38,5.38,0,0,1-7.61,0l-.29-.29a5.37,5.37,0,0,1-1.26-2V519.51a5.64,5.64,0,0,1,1.2-3.58,5.38,5.38,0,0,1,8-.42l9.78,9.74,6.91-6.91a2,2,0,0,0,0-2.78l-12.22-12.22-15.34,0a3,3,0,0,0-2.12.88l-2.22,2.22L717.08,512l-.26.26v41.57a5.46,5.46,0,0,1-1.57,3.8l-.29.29a5.38,5.38,0,0,1-7.61,0l-8.52-8.52a1.5,1.5,0,0,1,0-2.13l7.32-7.32-8.31-8.31-8.59,8.59Z"/><path class="cls-3" d="M631.06,547.23a1.5,1.5,0,0,1,0,2.13L625.4,555a2,2,0,0,0,0,2.78l12.44,12.44h16.23l.2-.19,3-3,3,3,.2.19h16.23L689.2,557.8a2,2,0,0,0,0-2.78l-5.66-5.66a1.5,1.5,0,0,1,0-2.13l7-7L682,531.6l-8.31,8.31,7.32,7.32a1.5,1.5,0,0,1,0,2.13l-8.52,8.52a5.38,5.38,0,0,1-7.61,0l-.29-.29a5.37,5.37,0,0,1-1.26-2V519.51a5.64,5.64,0,0,1,1.2-3.58,5.38,5.38,0,0,1,8-.42l9.78,9.74,6.91-6.91a2,2,0,0,0,0-2.78L677,503.35l-15.34,0a3,3,0,0,0-2.12.88l-2.22,2.22L651.84,512l-.26.26v41.57a5.46,5.46,0,0,1-1.57,3.8l-.29.29a5.38,5.38,0,0,1-7.61,0l-8.52-8.52a1.5,1.5,0,0,1,0-2.13l7.32-7.32-8.31-8.31L624,540.19Z"/><path class="cls-3" d="M565.83,547.23a1.5,1.5,0,0,1,0,2.13L560.17,555a2,2,0,0,0,0,2.78l12.44,12.44h16.23l.2-.19,3-3,3,3,.2.19h16.23L624,557.8a2,2,0,0,0,0-2.78l-5.66-5.66a1.5,1.5,0,0,1,0-2.13l7-7-8.59-8.59-8.31,8.31,7.32,7.32a1.5,1.5,0,0,1,0,2.13l-8.52,8.52a5.38,5.38,0,0,1-7.61,0l-.29-.29a5.37,5.37,0,0,1-1.26-2V519.51a5.64,5.64,0,0,1,1.2-3.58,5.38,5.38,0,0,1,8-.42l9.78,9.74,6.91-6.91a2,2,0,0,0,0-2.78l-12.22-12.22-15.34,0a3,3,0,0,0-2.12.88l-2.22,2.22L586.61,512l-.26.26v41.57a5.46,5.46,0,0,1-1.57,3.8l-.29.29a5.38,5.38,0,0,1-7.61,0l-8.52-8.52a1.5,1.5,0,0,1,0-2.13l7.32-7.32-8.31-8.31-8.59,8.59Z"/><path class="cls-3" d="M500.59,547.23a1.5,1.5,0,0,1,0,2.13L494.94,555a2,2,0,0,0,0,2.78l12.44,12.44h16.23l.2-.19,3-3,3,3,.2.19H546.3l12.44-12.44a2,2,0,0,0,0-2.78l-5.66-5.66a1.5,1.5,0,0,1,0-2.13l7-7-8.59-8.59-8.31,8.31,7.32,7.32a1.5,1.5,0,0,1,0,2.13L542,557.88a5.38,5.38,0,0,1-7.61,0l-.29-.29a5.37,5.37,0,0,1-1.26-2V519.51a5.64,5.64,0,0,1,1.2-3.58,5.38,5.38,0,0,1,8-.42l9.78,9.74,6.91-6.91a2,2,0,0,0,0-2.78l-12.22-12.22-15.34,0a3,3,0,0,0-2.12.88l-2.22,2.22L521.38,512l-.26.26v41.57a5.46,5.46,0,0,1-1.57,3.8l-.29.29a5.38,5.38,0,0,1-7.61,0l-8.52-8.52a1.5,1.5,0,0,1,0-2.13l7.32-7.32-8.31-8.31-8.59,8.59Z"/><path class="cls-3" d="M435.36,547.23a1.5,1.5,0,0,1,0,2.13L429.7,555a2,2,0,0,0,0,2.78l12.44,12.44h16.23l.2-.19,3-3,3,3,.2.19h16.23L493.5,557.8a2,2,0,0,0,0-2.78l-5.66-5.66a1.5,1.5,0,0,1,0-2.13l7-7-8.59-8.59L478,539.91l7.32,7.32a1.5,1.5,0,0,1,0,2.13l-8.52,8.52a5.38,5.38,0,0,1-7.61,0l-.29-.29a5.37,5.37,0,0,1-1.26-2V519.51a5.64,5.64,0,0,1,1.2-3.58,5.38,5.38,0,0,1,8-.42l9.78,9.74,6.91-6.91a2,2,0,0,0,0-2.78l-12.22-12.22-15.34,0a3,3,0,0,0-2.12.88l-2.22,2.22L456.14,512l-.26.26v41.57a5.46,5.46,0,0,1-1.57,3.8l-.29.29a5.38,5.38,0,0,1-7.61,0l-8.52-8.52a1.5,1.5,0,0,1,0-2.13l7.32-7.32-8.31-8.31-8.59,8.59Z"/><path class="cls-3" d="M370.13,547.23a1.5,1.5,0,0,1,0,2.13L364.47,555a2,2,0,0,0,0,2.78l12.44,12.44h16.23l.2-.19,3-3,3,3,.2.19h16.23l12.44-12.44a2,2,0,0,0,0-2.78l-5.66-5.66a1.5,1.5,0,0,1,0-2.13l7-7-8.59-8.59-8.31,8.31,7.32,7.32a1.5,1.5,0,0,1,0,2.13l-8.52,8.52a5.38,5.38,0,0,1-7.61,0l-.29-.29a5.37,5.37,0,0,1-1.26-2V519.51a5.64,5.64,0,0,1,1.2-3.58,5.38,5.38,0,0,1,8-.42l9.78,9.74,6.91-6.91a2,2,0,0,0,0-2.78L416,503.35l-15.34,0a3,3,0,0,0-2.12.88l-2.22,2.22L390.91,512l-.26.26v41.57a5.46,5.46,0,0,1-1.57,3.8l-.29.29a5.38,5.38,0,0,1-7.61,0l-8.52-8.52a1.5,1.5,0,0,1,0-2.13l7.32-7.32-8.31-8.31-8.59,8.59Z"/><path class="cls-3" d="M304.89,547.23a1.5,1.5,0,0,1,0,2.13L299.24,555a2,2,0,0,0,0,2.78l12.44,12.44H327.9l.2-.19,3-3,3,3,.2.19H350.6L363,557.8a2,2,0,0,0,0-2.78l-5.66-5.66a1.5,1.5,0,0,1,0-2.13l7-7-8.59-8.59-8.31,8.31,7.32,7.32a1.5,1.5,0,0,1,0,2.13l-8.52,8.52a5.38,5.38,0,0,1-7.61,0l-.29-.29a5.37,5.37,0,0,1-1.26-2V519.51a5.64,5.64,0,0,1,1.2-3.58,5.38,5.38,0,0,1,8-.42l9.78,9.74,6.91-6.91a2,2,0,0,0,0-2.78l-12.22-12.22-15.34,0a3,3,0,0,0-2.12.88l-2.22,2.22L325.67,512l-.26.26v41.57a5.46,5.46,0,0,1-1.57,3.8l-.29.29a5.38,5.38,0,0,1-7.61,0l-8.52-8.52a1.5,1.5,0,0,1,0-2.13l7.32-7.32-8.31-8.31-8.59,8.59Z"/><path class="cls-3" d="M239.66,547.23a1.5,1.5,0,0,1,0,2.13L234,555a2,2,0,0,0,0,2.78l12.44,12.44h16.23l.2-.19,3-3,3,3,.2.19h16.23L297.8,557.8a2,2,0,0,0,0-2.78l-5.66-5.66a1.5,1.5,0,0,1,0-2.13l7-7-8.59-8.59-8.31,8.31,7.32,7.32a1.5,1.5,0,0,1,0,2.13l-8.52,8.52a5.38,5.38,0,0,1-7.61,0l-.29-.29a5.37,5.37,0,0,1-1.26-2V519.51a5.64,5.64,0,0,1,1.2-3.58,5.38,5.38,0,0,1,8-.42l9.78,9.74,6.91-6.91a2,2,0,0,0,0-2.78l-12.22-12.22-15.34,0a3,3,0,0,0-2.12.88l-2.22,2.22L260.44,512l-.26.26v41.57a5.46,5.46,0,0,1-1.57,3.8l-.29.29a5.38,5.38,0,0,1-7.61,0l-8.52-8.52a1.5,1.5,0,0,1,0-2.13l7.32-7.32-8.31-8.31-8.59,8.59Z"/><path class="cls-3" d="M174.43,547.23a1.5,1.5,0,0,1,0,2.13L168.77,555a2,2,0,0,0,0,2.78l12.44,12.44h16.23l.2-.19,3-3,3,3,.2.19h16.23l12.44-12.44a2,2,0,0,0,0-2.78l-5.66-5.66a1.5,1.5,0,0,1,0-2.13l7-7-8.59-8.59-8.31,8.31,7.32,7.32a1.5,1.5,0,0,1,0,2.13l-8.52,8.52a5.38,5.38,0,0,1-7.61,0l-.29-.29a5.37,5.37,0,0,1-1.26-2V519.51a5.64,5.64,0,0,1,1.2-3.58,5.38,5.38,0,0,1,8-.42l9.78,9.74,6.91-6.91a2,2,0,0,0,0-2.78l-12.22-12.22-15.34,0a3,3,0,0,0-2.12.88l-2.22,2.22L195.21,512l-.26.26v41.57a5.46,5.46,0,0,1-1.57,3.8l-.29.29a5.38,5.38,0,0,1-7.61,0L177,549.36a1.5,1.5,0,0,1,0-2.13l7.32-7.32L176,531.6l-8.59,8.59Z"/><path class="cls-3" d="M109.19,547.23a1.5,1.5,0,0,1,0,2.13L103.54,555a2,2,0,0,0,0,2.78L116,570.24H132.2l.2-.19,3-3,3,3,.2.19h16.23l12.44-12.44a2,2,0,0,0,0-2.78l-5.66-5.66a1.5,1.5,0,0,1,0-2.13l7-7-8.59-8.59-8.31,8.31,7.32,7.32a1.5,1.5,0,0,1,0,2.13l-8.52,8.52a5.38,5.38,0,0,1-7.61,0l-.29-.29a5.37,5.37,0,0,1-1.26-2V519.51a5.64,5.64,0,0,1,1.2-3.58,5.38,5.38,0,0,1,8-.42l9.78,9.74,6.91-6.91a2,2,0,0,0,0-2.78l-12.22-12.22-15.34,0a3,3,0,0,0-2.12.88l-2.22,2.22L130,512l-.26.26v41.57a5.46,5.46,0,0,1-1.57,3.8l-.29.29a5.38,5.38,0,0,1-7.61,0l-8.52-8.52a1.5,1.5,0,0,1,0-2.13l7.32-7.32-8.31-8.31-8.59,8.59Z"/><path class="cls-3" d="M44,547.23a1.5,1.5,0,0,1,0,2.13L38.3,555a2,2,0,0,0,0,2.78l12.44,12.44H67l.2-.19,3-3,3,3,.2.19H89.66L102.1,557.8a2,2,0,0,0,0-2.78l-5.66-5.66a1.5,1.5,0,0,1,0-2.13l7-7-8.59-8.59-8.31,8.31,7.32,7.32a1.5,1.5,0,0,1,0,2.13l-8.52,8.52a5.38,5.38,0,0,1-7.61,0l-.29-.29a5.37,5.37,0,0,1-1.26-2V519.51a5.64,5.64,0,0,1,1.2-3.58,5.38,5.38,0,0,1,8-.42l9.78,9.74,6.91-6.91a2,2,0,0,0,0-2.78L89.88,503.35l-15.34,0a3,3,0,0,0-2.12.88l-2.22,2.22L64.74,512l-.26.26v41.57a5.46,5.46,0,0,1-1.57,3.8l-.29.29a5.38,5.38,0,0,1-7.61,0l-8.52-8.52a1.5,1.5,0,0,1,0-2.13l7.32-7.32L45.5,531.6l-8.59,8.59Z"/></g></svg>