<svg id="Layer_1" data-name="Layer 1" xmlns="http://www.w3.org/2000/svg" xmlns:xlink="http://www.w3.org/1999/xlink" viewBox="0 0 792 612"><defs><style>.cls-1{fill:none;}.cls-2{clip-path:url(#clip-path);}.cls-3{fill:#2699d6;}.cls-4{clip-path:url(#clip-path-2);}.cls-5{fill:#172844;}</style><clipPath id="clip-path"><rect class="cls-1" x="-776.85" y="55.7" width="739.46" height="510.97" rx="18.79" ry="18.79"/></clipPath><clipPath id="clip-path-2"><rect class="cls-1" x="13.9" y="38.61" width="764.2" height="528.06" rx="18.79" ry="18.79"/></clipPath></defs><title>Artboard 8</title><g class="cls-2"><path class="cls-3" d="M-50.47,547.23a1.5,1.5,0,0,1,0,2.13L-56.13,555a2,2,0,0,0,0,2.78l12.44,12.44h16.23l.2-.19,3-3,3,3,.2.19H-4.77L7.67,557.8a2,2,0,0,0,0-2.78L2,549.36a1.5,1.5,0,0,1,0-2.13l7-7L.47,531.6l-8.31,8.31,7.32,7.32a1.5,1.5,0,0,1,0,2.13L-9,557.88a5.38,5.38,0,0,1-7.61,0l-.29-.29a5.37,5.37,0,0,1-1.26-2V519.51a5.64,5.64,0,0,1,1.2-3.58,5.38,5.38,0,0,1,8-.42l9.78,9.74,6.91-6.91a2,2,0,0,0,0-2.78L-4.55,503.35l-15.34,0a3,3,0,0,0-2.12.88l-2.22,2.22L-29.69,512l-.26.26v41.57a5.37,5.37,0,0,1-.32,1.8,5.37,5.37,0,0,1-1.26,2l-.29.29a5.38,5.38,0,0,1-7.61,0l-8.52-8.52a1.5,1.5,0,0,1,0-2.13l7.32-7.32-8.31-8.31-8.59,8.59Z"/></g><g class="cls-4"><path class="cls-5" d="M62.21-30.9a1.47,1.47,0,0,1,0-2.09l5.55-5.55a1.93,1.93,0,0,0,0-2.73l-12.2-12.2H39.63l-.2.19-3,3-3-3-.2-.19H17.38L5.17-41.26a1.93,1.93,0,0,0,0,2.73L10.72-33a1.47,1.47,0,0,1,0,2.09L3.81-24l8.42,8.42,8.15-8.15L13.2-30.9a1.47,1.47,0,0,1,0-2.09l8.36-8.36a5.28,5.28,0,0,1,7.47,0l.29.29a5.27,5.27,0,0,1,1.23,2V-3.7A5.53,5.53,0,0,1,29.37-.2a5.28,5.28,0,0,1-7.84.41L11.95-9.34,5.17-2.57a1.93,1.93,0,0,0,0,2.73l12,12,15,0a3,3,0,0,0,2.08-.86l2.18-2.18,5.36-5.36.25-.26V-37.32a5.27,5.27,0,0,1,.31-1.77,5.27,5.27,0,0,1,1.23-2l.29-.29a5.28,5.28,0,0,1,7.47,0L59.72-33a1.47,1.47,0,0,1,0,2.09l-7.18,7.18,8.15,8.15L69.12-24Z"/><path class="cls-5" d="M126.19-30.9a1.47,1.47,0,0,1,0-2.09l5.55-5.55a1.93,1.93,0,0,0,0-2.73l-12.2-12.2H103.62l-.2.19-3,3-3-3-.2-.19H81.36l-12.2,12.2a1.93,1.93,0,0,0,0,2.73L74.71-33a1.47,1.47,0,0,1,0,2.09L67.8-24l8.42,8.42,8.15-8.15L77.19-30.9a1.47,1.47,0,0,1,0-2.09l8.36-8.36a5.28,5.28,0,0,1,7.47,0l.29.29a5.27,5.27,0,0,1,1.23,2V-3.7A5.53,5.53,0,0,1,93.36-.2a5.28,5.28,0,0,1-7.84.41L75.93-9.34,69.16-2.57a1.93,1.93,0,0,0,0,2.73l12,12,15,0a3,3,0,0,0,2.08-.86l2.18-2.18,5.36-5.36.25-.26V-37.32a5.27,5.27,0,0,1,.31-1.77,5.27,5.27,0,0,1,1.23-2l.29-.29a5.28,5.28,0,0,1,7.47,0L123.71-33a1.47,1.47,0,0,1,0,2.09l-7.18,7.18,8.15,8.15L133.11-24Z"/><path class="cls-5" d="M190.18-30.9a1.47,1.47,0,0,1,0-2.09l5.55-5.55a1.93,1.93,0,0,0,0-2.73l-12.2-12.2H167.61l-.2.19-3,3-3-3-.2-.19H145.35l-12.2,12.2a1.93,1.93,0,0,0,0,2.73L138.7-33a1.47,1.47,0,0,1,0,2.09L131.78-24l8.42,8.42,8.15-8.15-7.18-7.18a1.47,1.47,0,0,1,0-2.09l8.36-8.36a5.28,5.28,0,0,1,7.47,0l.29.29a5.27,5.27,0,0,1,1.23,2V-3.7A5.53,5.53,0,0,1,157.35-.2a5.28,5.28,0,0,1-7.84.41l-9.59-9.56-6.77,6.77a1.93,1.93,0,0,0,0,2.73l12,12,15,0a3,3,0,0,0,2.08-.86l2.18-2.18,5.36-5.36.25-.26V-37.32a5.27,5.27,0,0,1,.31-1.77,5.27,5.27,0,0,1,1.23-2l.29-.29a5.28,5.28,0,0,1,7.47,0L187.7-33a1.47,1.47,0,0,1,0,2.09l-7.18,7.18,8.15,8.15L197.09-24Z"/><path class="cls-5" d="M254.17-30.9a1.47,1.47,0,0,1,0-2.09l5.55-5.55a1.93,1.93,0,0,0,0-2.73l-12.2-12.2H231.6l-.2.19-3,3-3-3-.2-.19H209.34l-12.2,12.2a1.93,1.93,0,0,0,0,2.73L202.69-33a1.47,1.47,0,0,1,0,2.09L195.77-24l8.42,8.42,8.15-8.15-7.18-7.18a1.47,1.47,0,0,1,0-2.09l8.36-8.36a5.28,5.28,0,0,1,7.47,0l.29.29a5.27,5.27,0,0,1,1.23,2V-3.7A5.53,5.53,0,0,1,221.33-.2a5.28,5.28,0,0,1-7.84.41l-9.59-9.56-6.77,6.77a1.93,1.93,0,0,0,0,2.73l12,12,15,0a3,3,0,0,0,2.08-.86l2.18-2.18,5.36-5.36.25-.26V-37.32a5.27,5.27,0,0,1,.31-1.77,5.27,5.27,0,0,1,1.23-2l.29-.29a5.28,5.28,0,0,1,7.47,0L251.69-33a1.47,1.47,0,0,1,0,2.09l-7.18,7.18,8.15,8.15L261.08-24Z"/><path class="cls-5" d="M318.16-30.9a1.47,1.47,0,0,1,0-2.09l5.55-5.55a1.93,1.93,0,0,0,0-2.73l-12.2-12.2H295.58l-.2.19-3,3-3-3-.2-.19H273.33l-12.2,12.2a1.93,1.93,0,0,0,0,2.73L266.67-33a1.47,1.47,0,0,1,0,2.09L259.76-24l8.42,8.42,8.15-8.15-7.18-7.18a1.47,1.47,0,0,1,0-2.09l8.36-8.36a5.28,5.28,0,0,1,7.47,0l.29.29a5.27,5.27,0,0,1,1.23,2V-3.7A5.53,5.53,0,0,1,285.32-.2a5.28,5.28,0,0,1-7.84.41L267.9-9.34l-6.77,6.77a1.93,1.93,0,0,0,0,2.73l12,12,15,0a3,3,0,0,0,2.08-.86l2.18-2.18,5.36-5.36.25-.26V-37.32a5.27,5.27,0,0,1,.31-1.77,5.27,5.27,0,0,1,1.23-2l.29-.29a5.28,5.28,0,0,1,7.47,0L315.68-33a1.47,1.47,0,0,1,0,2.09l-7.18,7.18,8.15,8.15L325.07-24Z"/><path class="cls-5" d="M382.15-30.9a1.47,1.47,0,0,1,0-2.09l5.55-5.55a1.93,1.93,0,0,0,0-2.73l-12.2-12.2H359.57l-.2.19-3,3-3-3-.2-.19H337.32l-12.2,12.2a1.93,1.93,0,0,0,0,2.73L330.66-33a1.47,1.47,0,0,1,0,2.09L323.75-24l8.42,8.42,8.15-8.15-7.18-7.18a1.47,1.47,0,0,1,0-2.09l8.36-8.36a5.28,5.28,0,0,1,7.47,0l.29.29a5.27,5.27,0,0,1,1.23,2V-3.7A5.53,5.53,0,0,1,349.31-.2a5.28,5.28,0,0,1-7.84.41l-9.59-9.56-6.77,6.77a1.93,1.93,0,0,0,0,2.73l12,12,15,0a3,3,0,0,0,2.08-.86l2.18-2.18,5.36-5.36.25-.26V-37.32a5.27,5.27,0,0,1,.31-1.77,5.27,5.27,0,0,1,1.23-2l.29-.29a5.28,5.28,0,0,1,7.47,0L379.66-33a1.47,1.47,0,0,1,0,2.09l-7.18,7.18,8.15,8.15L389.06-24Z"/><path class="cls-5" d="M446.13-30.9a1.47,1.47,0,0,1,0-2.09l5.55-5.55a1.93,1.93,0,0,0,0-2.73l-12.2-12.2H423.56l-.2.19-3,3-3-3-.2-.19H401.3l-12.2,12.2a1.93,1.93,0,0,0,0,2.73L394.65-33a1.47,1.47,0,0,1,0,2.09L387.74-24l8.42,8.42,8.15-8.15-7.18-7.18a1.47,1.47,0,0,1,0-2.09l8.36-8.36a5.28,5.28,0,0,1,7.47,0l.29.29a5.27,5.27,0,0,1,1.23,2V-3.7A5.53,5.53,0,0,1,413.3-.2a5.28,5.28,0,0,1-7.84.41l-9.59-9.56L389.1-2.57a1.93,1.93,0,0,0,0,2.73l12,12,15,0a3,3,0,0,0,2.08-.86l2.18-2.18,5.36-5.36.25-.26V-37.32a5.27,5.27,0,0,1,.31-1.77,5.27,5.27,0,0,1,1.23-2l.29-.29a5.28,5.28,0,0,1,7.47,0L443.65-33a1.47,1.47,0,0,1,0,2.09l-7.18,7.18,8.15,8.15L453-24Z"/><path class="cls-5" d="M510.12-30.9a1.47,1.47,0,0,1,0-2.09l5.55-5.55a1.93,1.93,0,0,0,0-2.73l-12.2-12.2H487.55l-.2.19-3,3-3-3-.2-.19H465.29l-12.2,12.2a1.93,1.93,0,0,0,0,2.73L458.64-33a1.47,1.47,0,0,1,0,2.09L451.72-24l8.42,8.42,8.15-8.15-7.18-7.18a1.47,1.47,0,0,1,0-2.09l8.36-8.36a5.28,5.28,0,0,1,7.47,0l.29.29a5.27,5.27,0,0,1,1.23,2V-3.7A5.53,5.53,0,0,1,477.29-.2a5.28,5.28,0,0,1-7.84.41l-9.59-9.56-6.77,6.77a1.93,1.93,0,0,0,0,2.73l12,12,15,0a3,3,0,0,0,2.08-.86l2.18-2.18,5.36-5.36.25-.26V-37.32a5.27,5.27,0,0,1,.31-1.77,5.27,5.27,0,0,1,1.23-2l.29-.29a5.28,5.28,0,0,1,7.47,0L507.64-33a1.47,1.47,0,0,1,0,2.09l-7.18,7.18,8.15,8.15L517-24Z"/><path class="cls-5" d="M574.11-30.9a1.47,1.47,0,0,1,0-2.09l5.55-5.55a1.93,1.93,0,0,0,0-2.73l-12.2-12.2H551.54l-.2.19-3,3-3-3-.2-.19H529.28l-12.2,12.2a1.93,1.93,0,0,0,0,2.73L522.63-33a1.47,1.47,0,0,1,0,2.09L515.71-24l8.42,8.42,8.15-8.15-7.18-7.18a1.47,1.47,0,0,1,0-2.09l8.36-8.36a5.28,5.28,0,0,1,7.47,0l.29.29a5.27,5.27,0,0,1,1.23,2V-3.7A5.53,5.53,0,0,1,541.27-.2a5.28,5.28,0,0,1-7.84.41l-9.59-9.56-6.77,6.77a1.93,1.93,0,0,0,0,2.73l12,12,15,0a3,3,0,0,0,2.08-.86l2.18-2.18,5.36-5.36.25-.26V-37.32a5.27,5.27,0,0,1,.31-1.77,5.27,5.27,0,0,1,1.23-2l.29-.29a5.28,5.28,0,0,1,7.47,0L571.63-33a1.47,1.47,0,0,1,0,2.09l-7.18,7.18,8.15,8.15L581-24Z"/><path class="cls-5" d="M638.1-30.9a1.47,1.47,0,0,1,0-2.09l5.55-5.55a1.93,1.93,0,0,0,0-2.73l-12.2-12.2H615.52l-.2.19-3,3-3-3-.2-.19H593.27l-12.2,12.2a1.93,1.93,0,0,0,0,2.73L586.61-33a1.47,1.47,0,0,1,0,2.09L579.7-24l8.42,8.42,8.15-8.15L589.1-30.9a1.47,1.47,0,0,1,0-2.09l8.36-8.36a5.28,5.28,0,0,1,7.47,0l.29.29a5.27,5.27,0,0,1,1.23,2V-3.7A5.53,5.53,0,0,1,605.26-.2a5.28,5.28,0,0,1-7.84.41l-9.59-9.56-6.77,6.77a1.93,1.93,0,0,0,0,2.73l12,12,15,0a3,3,0,0,0,2.08-.86l2.18-2.18,5.36-5.36.25-.26V-37.32a5.27,5.27,0,0,1,.31-1.77,5.27,5.27,0,0,1,1.23-2l.29-.29a5.28,5.28,0,0,1,7.47,0L635.61-33a1.47,1.47,0,0,1,0,2.09l-7.18,7.18,8.15,8.15L645-24Z"/><path class="cls-5" d="M702.08-30.9a1.47,1.47,0,0,1,0-2.09l5.55-5.55a1.93,1.93,0,0,0,0-2.73l-12.2-12.2H679.51l-.2.19-3,3-3-3-.2-.19H657.25l-12.2,12.2a1.93,1.93,0,0,0,0,2.73L650.6-33a1.47,1.47,0,0,1,0,2.09L643.69-24l8.42,8.42,8.15-8.15-7.18-7.18a1.47,1.47,0,0,1,0-2.09l8.36-8.36a5.28,5.28,0,0,1,7.47,0l.29.29a5.27,5.27,0,0,1,1.23,2V-3.7A5.53,5.53,0,0,1,669.25-.2a5.28,5.28,0,0,1-7.84.41l-9.59-9.56-6.77,6.77a1.93,1.93,0,0,0,0,2.73l12,12,15,0a3,3,0,0,0,2.08-.86l2.18-2.18,5.36-5.36.25-.26V-37.32a5.27,5.27,0,0,1,.31-1.77,5.27,5.27,0,0,1,1.23-2l.29-.29a5.28,5.28,0,0,1,7.47,0L699.6-33a1.47,1.47,0,0,1,0,2.09l-7.18,7.18,8.15,8.15L709-24Z"/><path class="cls-5" d="M766.07-30.9a1.47,1.47,0,0,1,0-2.09l5.55-5.55a1.93,1.93,0,0,0,0-2.73l-12.2-12.2H743.5l-.2.19-3,3-3-3-.2-.19H721.24L709-41.26a1.93,1.93,0,0,0,0,2.73L714.59-33a1.47,1.47,0,0,1,0,2.09L707.68-24l8.42,8.42,8.15-8.15-7.18-7.18a1.47,1.47,0,0,1,0-2.09l8.36-8.36a5.28,5.28,0,0,1,7.47,0l.29.29a5.27,5.27,0,0,1,1.23,2V-3.7A5.53,5.53,0,0,1,733.24-.2a5.28,5.28,0,0,1-7.84.41l-9.59-9.56L709-2.57a1.93,1.93,0,0,0,0,2.73l12,12,15,0a3,3,0,0,0,2.08-.86l2.18-2.18,5.36-5.36.25-.26V-37.32a5.27,5.27,0,0,1,.31-1.77,5.27,5.27,0,0,1,1.23-2l.29-.29a5.28,5.28,0,0,1,7.47,0L763.59-33a1.47,1.47,0,0,1,0,2.09l-7.18,7.18,8.15,8.15L773-24Z"/><path class="cls-5" d="M82.65,34.89a1.47,1.47,0,0,1,0-2.09l5.55-5.55a1.93,1.93,0,0,0,0-2.73L76,12.33H60.08l-.2.19-3,3-3-3-.2-.19H37.82l-12.2,12.2a1.93,1.93,0,0,0,0,2.73l5.55,5.55a1.47,1.47,0,0,1,0,2.09l-6.91,6.91,8.42,8.42,8.15-8.15-7.18-7.18a1.47,1.47,0,0,1,0-2.09L42,24.45a5.28,5.28,0,0,1,7.47,0l.29.29a5.27,5.27,0,0,1,1.23,2V62.09a5.53,5.53,0,0,1-1.17,3.51A5.28,5.28,0,0,1,42,66l-9.59-9.56-6.77,6.77a1.93,1.93,0,0,0,0,2.73l12,12,15,0A3,3,0,0,0,54.73,77l2.18-2.18,5.36-5.36.25-.26V28.47a5.36,5.36,0,0,1,1.54-3.73l.29-.29a5.28,5.28,0,0,1,7.47,0l8.36,8.36a1.47,1.47,0,0,1,0,2.09L73,42.08l8.15,8.15,8.42-8.42Z"/><path class="cls-5" d="M146.64,34.89a1.47,1.47,0,0,1,0-2.09l5.55-5.55a1.93,1.93,0,0,0,0-2.73L140,12.33H124.07l-.2.19-3,3-3-3-.2-.19H101.81l-12.2,12.2a1.93,1.93,0,0,0,0,2.73l5.55,5.55a1.47,1.47,0,0,1,0,2.09l-6.91,6.91,8.42,8.42,8.15-8.15-7.18-7.18a1.47,1.47,0,0,1,0-2.09L106,24.45a5.28,5.28,0,0,1,7.47,0l.29.29a5.27,5.27,0,0,1,1.23,2V62.09a5.53,5.53,0,0,1-1.17,3.51A5.28,5.28,0,0,1,106,66l-9.59-9.56-6.77,6.77a1.93,1.93,0,0,0,0,2.73l12,12,15,0a3,3,0,0,0,2.08-.86l2.18-2.18,5.36-5.36.25-.26V28.47A5.36,5.36,0,0,1,128,24.74l.29-.29a5.28,5.28,0,0,1,7.47,0l8.36,8.36a1.47,1.47,0,0,1,0,2.09L137,42.08l8.15,8.15,8.42-8.42Z"/><path class="cls-5" d="M210.63,34.89a1.47,1.47,0,0,1,0-2.09l5.55-5.55a1.93,1.93,0,0,0,0-2.73L204,12.33H188.06l-.2.19-3,3-3-3-.2-.19H165.8l-12.2,12.2a1.93,1.93,0,0,0,0,2.73l5.55,5.55a1.47,1.47,0,0,1,0,2.09l-6.91,6.91,8.42,8.42,8.15-8.15-7.18-7.18a1.47,1.47,0,0,1,0-2.09L170,24.45a5.28,5.28,0,0,1,7.47,0l.29.29a5.27,5.27,0,0,1,1.23,2V62.09a5.53,5.53,0,0,1-1.17,3.51A5.28,5.28,0,0,1,170,66l-9.59-9.56-6.77,6.77a1.93,1.93,0,0,0,0,2.73l12,12,15,0a3,3,0,0,0,2.08-.86l2.18-2.18,5.36-5.36.25-.26V28.47A5.36,5.36,0,0,1,192,24.74l.29-.29a5.28,5.28,0,0,1,7.47,0l8.36,8.36a1.47,1.47,0,0,1,0,2.09L201,42.08l8.15,8.15,8.42-8.42Z"/><path class="cls-5" d="M274.62,34.89a1.47,1.47,0,0,1,0-2.09l5.55-5.55a1.93,1.93,0,0,0,0-2.73L268,12.33H252l-.2.19-3,3-3-3-.2-.19H229.79l-12.2,12.2a1.93,1.93,0,0,0,0,2.73l5.55,5.55a1.47,1.47,0,0,1,0,2.09l-6.91,6.91,8.42,8.42,8.15-8.15-7.18-7.18a1.47,1.47,0,0,1,0-2.09L234,24.45a5.28,5.28,0,0,1,7.47,0l.29.29a5.27,5.27,0,0,1,1.23,2V62.09a5.53,5.53,0,0,1-1.17,3.51,5.28,5.28,0,0,1-7.84.41l-9.59-9.56-6.77,6.77a1.93,1.93,0,0,0,0,2.73l12,12,15,0A3,3,0,0,0,246.7,77l2.18-2.18,5.36-5.36.25-.26V28.47A5.36,5.36,0,0,1,256,24.74l.29-.29a5.28,5.28,0,0,1,7.47,0l8.36,8.36a1.47,1.47,0,0,1,0,2.09L265,42.08l8.15,8.15,8.42-8.42Z"/><path class="cls-5" d="M338.6,34.89a1.47,1.47,0,0,1,0-2.09l5.55-5.55a1.93,1.93,0,0,0,0-2.73L332,12.33H316l-.2.19-3,3-3-3-.2-.19H293.77l-12.2,12.2a1.93,1.93,0,0,0,0,2.73l5.55,5.55a1.47,1.47,0,0,1,0,2.09l-6.91,6.91,8.42,8.42,8.15-8.15-7.18-7.18a1.47,1.47,0,0,1,0-2.09L298,24.45a5.28,5.28,0,0,1,7.47,0l.29.29a5.27,5.27,0,0,1,1.23,2V62.09a5.53,5.53,0,0,1-1.17,3.51,5.28,5.28,0,0,1-7.84.41l-9.59-9.56-6.77,6.77a1.93,1.93,0,0,0,0,2.73l12,12,15,0a3,3,0,0,0,2.08-.86l2.18-2.18,5.36-5.36.25-.26V28.47A5.36,5.36,0,0,1,320,24.74l.29-.29a5.28,5.28,0,0,1,7.47,0l8.36,8.36a1.47,1.47,0,0,1,0,2.09l-7.18,7.18,8.15,8.15,8.42-8.42Z"/><path class="cls-5" d="M402.59,34.89a1.47,1.47,0,0,1,0-2.09l5.55-5.55a1.93,1.93,0,0,0,0-2.73l-12.2-12.2H380l-.2.19-3,3-3-3-.2-.19H357.76l-12.2,12.2a1.93,1.93,0,0,0,0,2.73l5.55,5.55a1.47,1.47,0,0,1,0,2.09l-6.91,6.91,8.42,8.42,8.15-8.15-7.18-7.18a1.47,1.47,0,0,1,0-2.09l8.36-8.36a5.28,5.28,0,0,1,7.47,0l.29.29a5.27,5.27,0,0,1,1.23,2V62.09a5.53,5.53,0,0,1-1.17,3.51,5.28,5.28,0,0,1-7.84.41l-9.59-9.56-6.77,6.77a1.93,1.93,0,0,0,0,2.73l12,12,15,0a3,3,0,0,0,2.08-.86l2.18-2.18,5.36-5.36.25-.26V28.47A5.36,5.36,0,0,1,384,24.74l.29-.29a5.28,5.28,0,0,1,7.47,0l8.36,8.36a1.47,1.47,0,0,1,0,2.09l-7.18,7.18,8.15,8.15,8.42-8.42Z"/><path class="cls-5" d="M466.58,34.89a1.47,1.47,0,0,1,0-2.09l5.55-5.55a1.93,1.93,0,0,0,0-2.73l-12.2-12.2H444l-.2.19-3,3-3-3-.2-.19H421.75l-12.2,12.2a1.93,1.93,0,0,0,0,2.73l5.55,5.55a1.47,1.47,0,0,1,0,2.09l-6.91,6.91,8.42,8.42,8.15-8.15-7.18-7.18a1.47,1.47,0,0,1,0-2.09l8.36-8.36a5.28,5.28,0,0,1,7.47,0l.29.29a5.27,5.27,0,0,1,1.23,2V62.09a5.53,5.53,0,0,1-1.17,3.51,5.28,5.28,0,0,1-7.84.41l-9.59-9.56-6.77,6.77a1.93,1.93,0,0,0,0,2.73l12,12,15,0a3,3,0,0,0,2.08-.86l2.18-2.18,5.36-5.36.25-.26V28.47A5.36,5.36,0,0,1,448,24.74l.29-.29a5.28,5.28,0,0,1,7.47,0l8.36,8.36a1.47,1.47,0,0,1,0,2.09l-7.18,7.18,8.15,8.15,8.42-8.42Z"/><path class="cls-5" d="M530.57,34.89a1.47,1.47,0,0,1,0-2.09l5.55-5.55a1.93,1.93,0,0,0,0-2.73l-12.2-12.2H508l-.2.19-3,3-3-3-.2-.19H485.74l-12.2,12.2a1.93,1.93,0,0,0,0,2.73l5.55,5.55a1.47,1.47,0,0,1,0,2.09l-6.91,6.91,8.42,8.42,8.15-8.15-7.18-7.18a1.47,1.47,0,0,1,0-2.09l8.36-8.36a5.28,5.28,0,0,1,7.47,0l.29.29a5.27,5.27,0,0,1,1.23,2V62.09a5.53,5.53,0,0,1-1.17,3.51,5.28,5.28,0,0,1-7.84.41l-9.59-9.56-6.77,6.77a1.93,1.93,0,0,0,0,2.73l12,12,15,0a3,3,0,0,0,2.08-.86l2.18-2.18,5.36-5.36.25-.26V28.47A5.36,5.36,0,0,1,512,24.74l.29-.29a5.28,5.28,0,0,1,7.47,0l8.36,8.36a1.47,1.47,0,0,1,0,2.09l-7.18,7.18,8.15,8.15,8.42-8.42Z"/><path class="cls-5" d="M594.56,34.89a1.47,1.47,0,0,1,0-2.09l5.55-5.55a1.93,1.93,0,0,0,0-2.73l-12.2-12.2H572l-.2.19-3,3-3-3-.2-.19H549.73l-12.2,12.2a1.93,1.93,0,0,0,0,2.73l5.55,5.55a1.47,1.47,0,0,1,0,2.09l-6.91,6.91,8.42,8.42,8.15-8.15-7.18-7.18a1.47,1.47,0,0,1,0-2.09l8.36-8.36a5.28,5.28,0,0,1,7.47,0l.29.29a5.27,5.27,0,0,1,1.23,2V62.09a5.53,5.53,0,0,1-1.17,3.51,5.28,5.28,0,0,1-7.84.41l-9.59-9.56-6.77,6.77a1.93,1.93,0,0,0,0,2.73l12,12,15,0a3,3,0,0,0,2.08-.86l2.18-2.18,5.36-5.36.25-.26V28.47A5.36,5.36,0,0,1,576,24.74l.29-.29a5.28,5.28,0,0,1,7.47,0l8.36,8.36a1.47,1.47,0,0,1,0,2.09l-7.18,7.18L593,50.23l8.42-8.42Z"/><path class="cls-5" d="M658.54,34.89a1.47,1.47,0,0,1,0-2.09l5.55-5.55a1.93,1.93,0,0,0,0-2.73l-12.2-12.2H636l-.2.19-3,3-3-3-.2-.19H613.71l-12.2,12.2a1.93,1.93,0,0,0,0,2.73l5.55,5.55a1.47,1.47,0,0,1,0,2.09l-6.91,6.91,8.42,8.42,8.15-8.15-7.18-7.18a1.47,1.47,0,0,1,0-2.09l8.36-8.36a5.28,5.28,0,0,1,7.47,0l.29.29a5.27,5.27,0,0,1,1.23,2V62.09a5.53,5.53,0,0,1-1.17,3.51,5.28,5.28,0,0,1-7.84.41l-9.59-9.56-6.77,6.77a1.93,1.93,0,0,0,0,2.73l12,12,15,0a3,3,0,0,0,2.08-.86l2.18-2.18,5.36-5.36.25-.26V28.47A5.36,5.36,0,0,1,640,24.74l.29-.29a5.28,5.28,0,0,1,7.47,0l8.36,8.36a1.47,1.47,0,0,1,0,2.09l-7.18,7.18L657,50.23l8.42-8.42Z"/><path class="cls-5" d="M722.53,34.89a1.47,1.47,0,0,1,0-2.09l5.55-5.55a1.93,1.93,0,0,0,0-2.73l-12.2-12.2H700l-.2.19-3,3-3-3-.2-.19H677.7l-12.2,12.2a1.93,1.93,0,0,0,0,2.73L671,32.81a1.47,1.47,0,0,1,0,2.09l-6.91,6.91,8.42,8.42,8.15-8.15-7.18-7.18a1.47,1.47,0,0,1,0-2.09l8.36-8.36a5.28,5.28,0,0,1,7.47,0l.29.29a5.27,5.27,0,0,1,1.23,2V62.09a5.53,5.53,0,0,1-1.17,3.51,5.28,5.28,0,0,1-7.84.41l-9.59-9.56-6.77,6.77a1.93,1.93,0,0,0,0,2.73l12,12,15,0a3,3,0,0,0,2.08-.86l2.18-2.18,5.36-5.36.25-.26V28.47a5.36,5.36,0,0,1,1.54-3.73l.29-.29a5.28,5.28,0,0,1,7.47,0L720,32.81a1.47,1.47,0,0,1,0,2.09l-7.18,7.18L721,50.23l8.42-8.42Z"/><path class="cls-5" d="M786.52,34.89a1.47,1.47,0,0,1,0-2.09l5.55-5.55a1.93,1.93,0,0,0,0-2.73l-12.2-12.2H763.95l-.2.19-3,3-3-3-.2-.19H741.69l-12.2,12.2a1.93,1.93,0,0,0,0,2.73L735,32.81a1.47,1.47,0,0,1,0,2.09l-6.91,6.91,8.42,8.42,8.15-8.15-7.18-7.18a1.47,1.47,0,0,1,0-2.09l8.36-8.36a5.28,5.28,0,0,1,7.47,0l.29.29a5.27,5.27,0,0,1,1.23,2V62.09a5.53,5.53,0,0,1-1.17,3.51,5.28,5.28,0,0,1-7.84.41l-9.59-9.56-6.77,6.77a1.93,1.93,0,0,0,0,2.73l12,12,15,0A3,3,0,0,0,758.6,77l2.18-2.18,5.36-5.36.25-.26V28.47a5.36,5.36,0,0,1,1.54-3.73l.29-.29a5.28,5.28,0,0,1,7.47,0L784,32.81a1.47,1.47,0,0,1,0,2.09l-7.18,7.18L785,50.23l8.42-8.42Z"/><path class="cls-5" d="M62.21,108.2a1.47,1.47,0,0,1,0-2.09l5.55-5.55a1.93,1.93,0,0,0,0-2.73l-12.2-12.2H39.63l-.2.19-3,3-3-3-.2-.19H17.38L5.17,97.83a1.93,1.93,0,0,0,0,2.73l5.55,5.55a1.47,1.47,0,0,1,0,2.09l-6.91,6.91,8.42,8.42,8.15-8.15L13.2,108.2a1.47,1.47,0,0,1,0-2.09l8.36-8.36a5.28,5.28,0,0,1,7.47,0l.29.29a5.27,5.27,0,0,1,1.23,2v35.39a5.53,5.53,0,0,1-1.17,3.51,5.28,5.28,0,0,1-7.84.41l-9.59-9.56-6.77,6.77a1.93,1.93,0,0,0,0,2.73l12,12,15,0a3,3,0,0,0,2.08-.86l2.18-2.18,5.36-5.36.25-.26V101.77A5.36,5.36,0,0,1,43.61,98l.29-.29a5.28,5.28,0,0,1,7.47,0l8.36,8.36a1.47,1.47,0,0,1,0,2.09l-7.18,7.18,8.15,8.15,8.42-8.42Z"/><path class="cls-5" d="M126.19,108.2a1.47,1.47,0,0,1,0-2.09l5.55-5.55a1.93,1.93,0,0,0,0-2.73l-12.2-12.2H103.62l-.2.19-3,3-3-3-.2-.19H81.36l-12.2,12.2a1.93,1.93,0,0,0,0,2.73l5.55,5.55a1.47,1.47,0,0,1,0,2.09l-6.91,6.91,8.42,8.42,8.15-8.15-7.18-7.18a1.47,1.47,0,0,1,0-2.09l8.36-8.36a5.28,5.28,0,0,1,7.47,0l.29.29a5.27,5.27,0,0,1,1.23,2v35.39a5.53,5.53,0,0,1-1.17,3.51,5.28,5.28,0,0,1-7.84.41l-9.59-9.56-6.77,6.77a1.93,1.93,0,0,0,0,2.73l12,12,15,0a3,3,0,0,0,2.08-.86l2.18-2.18,5.36-5.36.25-.26V101.77A5.36,5.36,0,0,1,107.6,98l.29-.29a5.28,5.28,0,0,1,7.47,0l8.36,8.36a1.47,1.47,0,0,1,0,2.09l-7.18,7.18,8.15,8.15,8.42-8.42Z"/><path class="cls-5" d="M190.18,108.2a1.47,1.47,0,0,1,0-2.09l5.55-5.55a1.93,1.93,0,0,0,0-2.73l-12.2-12.2H167.61l-.2.19-3,3-3-3-.2-.19H145.35l-12.2,12.2a1.93,1.93,0,0,0,0,2.73l5.55,5.55a1.47,1.47,0,0,1,0,2.09l-6.91,6.91,8.42,8.42,8.15-8.15-7.18-7.18a1.47,1.47,0,0,1,0-2.09l8.36-8.36a5.28,5.28,0,0,1,7.47,0l.29.29a5.27,5.27,0,0,1,1.23,2v35.39a5.53,5.53,0,0,1-1.17,3.51,5.28,5.28,0,0,1-7.84.41l-9.59-9.56-6.77,6.77a1.93,1.93,0,0,0,0,2.73l12,12,15,0a3,3,0,0,0,2.08-.86l2.18-2.18,5.36-5.36.25-.26V101.77A5.36,5.36,0,0,1,171.59,98l.29-.29a5.28,5.28,0,0,1,7.47,0l8.36,8.36a1.47,1.47,0,0,1,0,2.09l-7.18,7.18,8.15,8.15,8.42-8.42Z"/><path class="cls-5" d="M254.17,108.2a1.47,1.47,0,0,1,0-2.09l5.55-5.55a1.93,1.93,0,0,0,0-2.73l-12.2-12.2H231.6l-.2.19-3,3-3-3-.2-.19H209.34l-12.2,12.2a1.93,1.93,0,0,0,0,2.73l5.55,5.55a1.47,1.47,0,0,1,0,2.09l-6.91,6.91,8.42,8.42,8.15-8.15-7.18-7.18a1.47,1.47,0,0,1,0-2.09l8.36-8.36a5.28,5.28,0,0,1,7.47,0l.29.29a5.27,5.27,0,0,1,1.23,2v35.39a5.53,5.53,0,0,1-1.17,3.51,5.28,5.28,0,0,1-7.84.41l-9.59-9.56-6.77,6.77a1.93,1.93,0,0,0,0,2.73l12,12,15,0a3,3,0,0,0,2.08-.86l2.18-2.18,5.36-5.36.25-.26V101.77A5.36,5.36,0,0,1,235.58,98l.29-.29a5.28,5.28,0,0,1,7.47,0l8.36,8.36a1.47,1.47,0,0,1,0,2.09l-7.18,7.18,8.15,8.15,8.42-8.42Z"/><path class="cls-5" d="M318.16,108.2a1.47,1.47,0,0,1,0-2.09l5.55-5.55a1.93,1.93,0,0,0,0-2.73l-12.2-12.2H295.58l-.2.19-3,3-3-3-.2-.19H273.33l-12.2,12.2a1.93,1.93,0,0,0,0,2.73l5.55,5.55a1.47,1.47,0,0,1,0,2.09l-6.91,6.91,8.42,8.42,8.15-8.15-7.18-7.18a1.47,1.47,0,0,1,0-2.09l8.36-8.36a5.28,5.28,0,0,1,7.47,0l.29.29a5.27,5.27,0,0,1,1.23,2v35.39a5.53,5.53,0,0,1-1.17,3.51,5.28,5.28,0,0,1-7.84.41l-9.59-9.56-6.77,6.77a1.93,1.93,0,0,0,0,2.73l12,12,15,0a3,3,0,0,0,2.08-.86l2.18-2.18,5.36-5.36.25-.26V101.77A5.36,5.36,0,0,1,299.57,98l.29-.29a5.28,5.28,0,0,1,7.47,0l8.36,8.36a1.47,1.47,0,0,1,0,2.09l-7.18,7.18,8.15,8.15,8.42-8.42Z"/><path class="cls-5" d="M382.15,108.2a1.47,1.47,0,0,1,0-2.09l5.55-5.55a1.93,1.93,0,0,0,0-2.73l-12.2-12.2H359.57l-.2.19-3,3-3-3-.2-.19H337.32l-12.2,12.2a1.93,1.93,0,0,0,0,2.73l5.55,5.55a1.47,1.47,0,0,1,0,2.09l-6.91,6.91,8.42,8.42,8.15-8.15-7.18-7.18a1.47,1.47,0,0,1,0-2.09l8.36-8.36a5.28,5.28,0,0,1,7.47,0l.29.29a5.27,5.27,0,0,1,1.23,2v35.39a5.53,5.53,0,0,1-1.17,3.51,5.28,5.28,0,0,1-7.84.41l-9.59-9.56-6.77,6.77a1.93,1.93,0,0,0,0,2.73l12,12,15,0a3,3,0,0,0,2.08-.86l2.18-2.18,5.36-5.36.25-.26V101.77A5.36,5.36,0,0,1,363.55,98l.29-.29a5.28,5.28,0,0,1,7.47,0l8.36,8.36a1.47,1.47,0,0,1,0,2.09l-7.18,7.18,8.15,8.15,8.42-8.42Z"/><path class="cls-5" d="M446.13,108.2a1.47,1.47,0,0,1,0-2.09l5.55-5.55a1.93,1.93,0,0,0,0-2.73l-12.2-12.2H423.56l-.2.19-3,3-3-3-.2-.19H401.3l-12.2,12.2a1.93,1.93,0,0,0,0,2.73l5.55,5.55a1.47,1.47,0,0,1,0,2.09l-6.91,6.91,8.42,8.42,8.15-8.15-7.18-7.18a1.47,1.47,0,0,1,0-2.09l8.36-8.36a5.28,5.28,0,0,1,7.47,0l.29.29a5.27,5.27,0,0,1,1.23,2v35.39a5.53,5.53,0,0,1-1.17,3.51,5.28,5.28,0,0,1-7.84.41l-9.59-9.56-6.77,6.77a1.93,1.93,0,0,0,0,2.73l12,12,15,0a3,3,0,0,0,2.08-.86l2.18-2.18,5.36-5.36.25-.26V101.77A5.36,5.36,0,0,1,427.54,98l.29-.29a5.28,5.28,0,0,1,7.47,0l8.36,8.36a1.47,1.47,0,0,1,0,2.09l-7.18,7.18,8.15,8.15,8.42-8.42Z"/><path class="cls-5" d="M510.12,108.2a1.47,1.47,0,0,1,0-2.09l5.55-5.55a1.93,1.93,0,0,0,0-2.73l-12.2-12.2H487.55l-.2.19-3,3-3-3-.2-.19H465.29l-12.2,12.2a1.93,1.93,0,0,0,0,2.73l5.55,5.55a1.47,1.47,0,0,1,0,2.09l-6.91,6.91,8.42,8.42,8.15-8.15-7.18-7.18a1.47,1.47,0,0,1,0-2.09l8.36-8.36a5.28,5.28,0,0,1,7.47,0l.29.29a5.27,5.27,0,0,1,1.23,2v35.39a5.53,5.53,0,0,1-1.17,3.51,5.28,5.28,0,0,1-7.84.41l-9.59-9.56-6.77,6.77a1.93,1.93,0,0,0,0,2.73l12,12,15,0a3,3,0,0,0,2.08-.86l2.18-2.18,5.36-5.36.25-.26V101.77A5.36,5.36,0,0,1,491.53,98l.29-.29a5.28,5.28,0,0,1,7.47,0l8.36,8.36a1.47,1.47,0,0,1,0,2.09l-7.18,7.18,8.15,8.15,8.42-8.42Z"/><path class="cls-5" d="M574.11,108.2a1.47,1.47,0,0,1,0-2.09l5.55-5.55a1.93,1.93,0,0,0,0-2.73l-12.2-12.2H551.54l-.2.19-3,3-3-3-.2-.19H529.28l-12.2,12.2a1.93,1.93,0,0,0,0,2.73l5.55,5.55a1.47,1.47,0,0,1,0,2.09l-6.91,6.91,8.42,8.42,8.15-8.15-7.18-7.18a1.47,1.47,0,0,1,0-2.09l8.36-8.36a5.28,5.28,0,0,1,7.47,0l.29.29a5.27,5.27,0,0,1,1.23,2v35.39a5.53,5.53,0,0,1-1.17,3.51,5.28,5.28,0,0,1-7.84.41l-9.59-9.56-6.77,6.77a1.93,1.93,0,0,0,0,2.73l12,12,15,0a3,3,0,0,0,2.08-.86l2.18-2.18,5.36-5.36.25-.26V101.77A5.36,5.36,0,0,1,555.52,98l.29-.29a5.28,5.28,0,0,1,7.47,0l8.36,8.36a1.47,1.47,0,0,1,0,2.09l-7.18,7.18,8.15,8.15,8.42-8.42Z"/><path class="cls-5" d="M638.1,108.2a1.47,1.47,0,0,1,0-2.09l5.55-5.55a1.93,1.93,0,0,0,0-2.73l-12.2-12.2H615.52l-.2.19-3,3-3-3-.2-.19H593.27l-12.2,12.2a1.93,1.93,0,0,0,0,2.73l5.55,5.55a1.47,1.47,0,0,1,0,2.09l-6.91,6.91,8.42,8.42,8.15-8.15-7.18-7.18a1.47,1.47,0,0,1,0-2.09l8.36-8.36a5.28,5.28,0,0,1,7.47,0l.29.29a5.27,5.27,0,0,1,1.23,2v35.39a5.53,5.53,0,0,1-1.17,3.51,5.28,5.28,0,0,1-7.84.41l-9.59-9.56-6.77,6.77a1.93,1.93,0,0,0,0,2.73l12,12,15,0a3,3,0,0,0,2.08-.86l2.18-2.18,5.36-5.36.25-.26V101.77A5.36,5.36,0,0,1,619.51,98l.29-.29a5.28,5.28,0,0,1,7.47,0l8.36,8.36a1.47,1.47,0,0,1,0,2.09l-7.18,7.18,8.15,8.15,8.42-8.42Z"/><path class="cls-5" d="M702.08,108.2a1.47,1.47,0,0,1,0-2.09l5.55-5.55a1.93,1.93,0,0,0,0-2.73l-12.2-12.2H679.51l-.2.19-3,3-3-3-.2-.19H657.25l-12.2,12.2a1.93,1.93,0,0,0,0,2.73l5.55,5.55a1.47,1.47,0,0,1,0,2.09l-6.91,6.91,8.42,8.42,8.15-8.15-7.18-7.18a1.47,1.47,0,0,1,0-2.09l8.36-8.36a5.28,5.28,0,0,1,7.47,0l.29.29a5.27,5.27,0,0,1,1.23,2v35.39a5.53,5.53,0,0,1-1.17,3.51,5.28,5.28,0,0,1-7.84.41l-9.59-9.56-6.77,6.77a1.93,1.93,0,0,0,0,2.73l12,12,15,0a3,3,0,0,0,2.08-.86l2.18-2.18,5.36-5.36.25-.26V101.77A5.36,5.36,0,0,1,683.49,98l.29-.29a5.28,5.28,0,0,1,7.47,0l8.36,8.36a1.47,1.47,0,0,1,0,2.09l-7.18,7.18,8.15,8.15,8.42-8.42Z"/><path class="cls-5" d="M766.07,108.2a1.47,1.47,0,0,1,0-2.09l5.55-5.55a1.93,1.93,0,0,0,0-2.73l-12.2-12.2H743.5l-.2.19-3,3-3-3-.2-.19H721.24L709,97.83a1.93,1.93,0,0,0,0,2.73l5.55,5.55a1.47,1.47,0,0,1,0,2.09l-6.91,6.91,8.42,8.42,8.15-8.15-7.18-7.18a1.47,1.47,0,0,1,0-2.09l8.36-8.36a5.28,5.28,0,0,1,7.47,0l.29.29a5.27,5.27,0,0,1,1.23,2v35.39a5.53,5.53,0,0,1-1.17,3.51,5.28,5.28,0,0,1-7.84.41l-9.59-9.56L709,136.53a1.93,1.93,0,0,0,0,2.73l12,12,15,0a3,3,0,0,0,2.08-.86l2.18-2.18,5.36-5.36.25-.26V101.77A5.36,5.36,0,0,1,747.48,98l.29-.29a5.28,5.28,0,0,1,7.47,0l8.36,8.36a1.47,1.47,0,0,1,0,2.09l-7.18,7.18,8.15,8.15,8.42-8.42Z"/><path class="cls-5" d="M82.65,174a1.47,1.47,0,0,1,0-2.09l5.55-5.55a1.93,1.93,0,0,0,0-2.73L76,151.43H60.08l-.2.19-3,3-3-3-.2-.19H37.82l-12.2,12.2a1.93,1.93,0,0,0,0,2.73l5.55,5.55a1.47,1.47,0,0,1,0,2.09l-6.91,6.91,8.42,8.42,8.15-8.15L33.65,174a1.47,1.47,0,0,1,0-2.09L42,163.55a5.28,5.28,0,0,1,7.47,0l.29.29a5.27,5.27,0,0,1,1.23,2v35.39a5.53,5.53,0,0,1-1.17,3.51,5.28,5.28,0,0,1-7.84.41l-9.59-9.56-6.77,6.77a1.93,1.93,0,0,0,0,2.73l12,12,15,0a3,3,0,0,0,2.08-.86L56.91,214l5.36-5.36.25-.26V167.57a5.36,5.36,0,0,1,1.54-3.73l.29-.29a5.28,5.28,0,0,1,7.47,0l8.36,8.36a1.47,1.47,0,0,1,0,2.09L73,181.17l8.15,8.15,8.42-8.42Z"/><path class="cls-5" d="M146.64,174a1.47,1.47,0,0,1,0-2.09l5.55-5.55a1.93,1.93,0,0,0,0-2.73L140,151.43H124.07l-.2.19-3,3-3-3-.2-.19H101.81l-12.2,12.2a1.93,1.93,0,0,0,0,2.73l5.55,5.55a1.47,1.47,0,0,1,0,2.09l-6.91,6.91,8.42,8.42,8.15-8.15L97.64,174a1.47,1.47,0,0,1,0-2.09l8.36-8.36a5.28,5.28,0,0,1,7.47,0l.29.29a5.27,5.27,0,0,1,1.23,2v35.39a5.53,5.53,0,0,1-1.17,3.51,5.28,5.28,0,0,1-7.84.41l-9.59-9.56-6.77,6.77a1.93,1.93,0,0,0,0,2.73l12,12,15,0a3,3,0,0,0,2.08-.86L120.9,214l5.36-5.36.25-.26V167.57a5.36,5.36,0,0,1,1.54-3.73l.29-.29a5.28,5.28,0,0,1,7.47,0l8.36,8.36a1.47,1.47,0,0,1,0,2.09L137,181.17l8.15,8.15,8.42-8.42Z"/><path class="cls-5" d="M210.63,174a1.47,1.47,0,0,1,0-2.09l5.55-5.55a1.93,1.93,0,0,0,0-2.73L204,151.43H188.06l-.2.19-3,3-3-3-.2-.19H165.8l-12.2,12.2a1.93,1.93,0,0,0,0,2.73l5.55,5.55a1.47,1.47,0,0,1,0,2.09l-6.91,6.91,8.42,8.42,8.15-8.15L161.63,174a1.47,1.47,0,0,1,0-2.09l8.36-8.36a5.28,5.28,0,0,1,7.47,0l.29.29a5.27,5.27,0,0,1,1.23,2v35.39a5.53,5.53,0,0,1-1.17,3.51,5.28,5.28,0,0,1-7.84.41l-9.59-9.56-6.77,6.77a1.93,1.93,0,0,0,0,2.73l12,12,15,0a3,3,0,0,0,2.08-.86l2.18-2.18,5.36-5.36.25-.26V167.57a5.36,5.36,0,0,1,1.54-3.73l.29-.29a5.28,5.28,0,0,1,7.47,0l8.36,8.36a1.47,1.47,0,0,1,0,2.09L201,181.17l8.15,8.15,8.42-8.42Z"/><path class="cls-5" d="M274.62,174a1.47,1.47,0,0,1,0-2.09l5.55-5.55a1.93,1.93,0,0,0,0-2.73L268,151.43H252l-.2.19-3,3-3-3-.2-.19H229.79l-12.2,12.2a1.93,1.93,0,0,0,0,2.73l5.55,5.55a1.47,1.47,0,0,1,0,2.09l-6.91,6.91,8.42,8.42,8.15-8.15L225.61,174a1.47,1.47,0,0,1,0-2.09l8.36-8.36a5.28,5.28,0,0,1,7.47,0l.29.29a5.27,5.27,0,0,1,1.23,2v35.39a5.53,5.53,0,0,1-1.17,3.51,5.28,5.28,0,0,1-7.84.41l-9.59-9.56-6.77,6.77a1.93,1.93,0,0,0,0,2.73l12,12,15,0a3,3,0,0,0,2.08-.86l2.18-2.18,5.36-5.36.25-.26V167.57a5.36,5.36,0,0,1,1.54-3.73l.29-.29a5.28,5.28,0,0,1,7.47,0l8.36,8.36a1.47,1.47,0,0,1,0,2.09L265,181.17l8.15,8.15,8.42-8.42Z"/><path class="cls-5" d="M338.6,174a1.47,1.47,0,0,1,0-2.09l5.55-5.55a1.93,1.93,0,0,0,0-2.73L332,151.43H316l-.2.19-3,3-3-3-.2-.19H293.77l-12.2,12.2a1.93,1.93,0,0,0,0,2.73l5.55,5.55a1.47,1.47,0,0,1,0,2.09l-6.91,6.91,8.42,8.42,8.15-8.15L289.6,174a1.47,1.47,0,0,1,0-2.09l8.36-8.36a5.28,5.28,0,0,1,7.47,0l.29.29a5.27,5.27,0,0,1,1.23,2v35.39a5.53,5.53,0,0,1-1.17,3.51,5.28,5.28,0,0,1-7.84.41l-9.59-9.56-6.77,6.77a1.93,1.93,0,0,0,0,2.73l12,12,15,0a3,3,0,0,0,2.08-.86l2.18-2.18,5.36-5.36.25-.26V167.57a5.36,5.36,0,0,1,1.54-3.73l.29-.29a5.28,5.28,0,0,1,7.47,0l8.36,8.36a1.47,1.47,0,0,1,0,2.09l-7.18,7.18,8.15,8.15,8.42-8.42Z"/><path class="cls-5" d="M402.59,174a1.47,1.47,0,0,1,0-2.09l5.55-5.55a1.93,1.93,0,0,0,0-2.73l-12.2-12.2H380l-.2.19-3,3-3-3-.2-.19H357.76l-12.2,12.2a1.93,1.93,0,0,0,0,2.73l5.55,5.55a1.47,1.47,0,0,1,0,2.09l-6.91,6.91,8.42,8.42,8.15-8.15L353.59,174a1.47,1.47,0,0,1,0-2.09l8.36-8.36a5.28,5.28,0,0,1,7.47,0l.29.29a5.27,5.27,0,0,1,1.23,2v35.39a5.53,5.53,0,0,1-1.17,3.51,5.28,5.28,0,0,1-7.84.41l-9.59-9.56-6.77,6.77a1.93,1.93,0,0,0,0,2.73l12,12,15,0a3,3,0,0,0,2.08-.86l2.18-2.18,5.36-5.36.25-.26V167.57a5.36,5.36,0,0,1,1.54-3.73l.29-.29a5.28,5.28,0,0,1,7.47,0l8.36,8.36a1.47,1.47,0,0,1,0,2.09l-7.18,7.18,8.15,8.15,8.42-8.42Z"/><path class="cls-5" d="M466.58,174a1.47,1.47,0,0,1,0-2.09l5.55-5.55a1.93,1.93,0,0,0,0-2.73l-12.2-12.2H444l-.2.19-3,3-3-3-.2-.19H421.75l-12.2,12.2a1.93,1.93,0,0,0,0,2.73l5.55,5.55a1.47,1.47,0,0,1,0,2.09l-6.91,6.91,8.42,8.42,8.15-8.15L417.58,174a1.47,1.47,0,0,1,0-2.09l8.36-8.36a5.28,5.28,0,0,1,7.47,0l.29.29a5.27,5.27,0,0,1,1.23,2v35.39a5.53,5.53,0,0,1-1.17,3.51,5.28,5.28,0,0,1-7.84.41l-9.59-9.56-6.77,6.77a1.93,1.93,0,0,0,0,2.73l12,12,15,0a3,3,0,0,0,2.08-.86l2.18-2.18,5.36-5.36.25-.26V167.57a5.36,5.36,0,0,1,1.54-3.73l.29-.29a5.28,5.28,0,0,1,7.47,0l8.36,8.36a1.47,1.47,0,0,1,0,2.09l-7.18,7.18,8.15,8.15,8.42-8.42Z"/><path class="cls-5" d="M530.57,174a1.47,1.47,0,0,1,0-2.09l5.55-5.55a1.93,1.93,0,0,0,0-2.73l-12.2-12.2H508l-.2.19-3,3-3-3-.2-.19H485.74l-12.2,12.2a1.93,1.93,0,0,0,0,2.73l5.55,5.55a1.47,1.47,0,0,1,0,2.09l-6.91,6.91,8.42,8.42,8.15-8.15L481.57,174a1.47,1.47,0,0,1,0-2.09l8.36-8.36a5.28,5.28,0,0,1,7.47,0l.29.29a5.27,5.27,0,0,1,1.23,2v35.39a5.53,5.53,0,0,1-1.17,3.51,5.28,5.28,0,0,1-7.84.41l-9.59-9.56-6.77,6.77a1.93,1.93,0,0,0,0,2.73l12,12,15,0a3,3,0,0,0,2.08-.86l2.18-2.18,5.36-5.36.25-.26V167.57a5.36,5.36,0,0,1,1.54-3.73l.29-.29a5.28,5.28,0,0,1,7.47,0l8.36,8.36a1.47,1.47,0,0,1,0,2.09l-7.18,7.18,8.15,8.15,8.42-8.42Z"/><path class="cls-5" d="M594.56,174a1.47,1.47,0,0,1,0-2.09l5.55-5.55a1.93,1.93,0,0,0,0-2.73l-12.2-12.2H572l-.2.19-3,3-3-3-.2-.19H549.73l-12.2,12.2a1.93,1.93,0,0,0,0,2.73l5.55,5.55a1.47,1.47,0,0,1,0,2.09l-6.91,6.91,8.42,8.42,8.15-8.15L545.55,174a1.47,1.47,0,0,1,0-2.09l8.36-8.36a5.28,5.28,0,0,1,7.47,0l.29.29a5.27,5.27,0,0,1,1.23,2v35.39a5.53,5.53,0,0,1-1.17,3.51,5.28,5.28,0,0,1-7.84.41l-9.59-9.56-6.77,6.77a1.93,1.93,0,0,0,0,2.73l12,12,15,0a3,3,0,0,0,2.08-.86l2.18-2.18,5.36-5.36.25-.26V167.57a5.36,5.36,0,0,1,1.54-3.73l.29-.29a5.28,5.28,0,0,1,7.47,0l8.36,8.36a1.47,1.47,0,0,1,0,2.09l-7.18,7.18,8.15,8.15,8.42-8.42Z"/><path class="cls-5" d="M658.54,174a1.47,1.47,0,0,1,0-2.09l5.55-5.55a1.93,1.93,0,0,0,0-2.73l-12.2-12.2H636l-.2.19-3,3-3-3-.2-.19H613.71l-12.2,12.2a1.93,1.93,0,0,0,0,2.73l5.55,5.55a1.47,1.47,0,0,1,0,2.09l-6.91,6.91,8.42,8.42,8.15-8.15L609.54,174a1.47,1.47,0,0,1,0-2.09l8.36-8.36a5.28,5.28,0,0,1,7.47,0l.29.29a5.27,5.27,0,0,1,1.23,2v35.39a5.53,5.53,0,0,1-1.17,3.51,5.28,5.28,0,0,1-7.84.41l-9.59-9.56-6.77,6.77a1.93,1.93,0,0,0,0,2.73l12,12,15,0a3,3,0,0,0,2.08-.86L632.8,214l5.36-5.36.25-.26V167.57a5.36,5.36,0,0,1,1.54-3.73l.29-.29a5.28,5.28,0,0,1,7.47,0l8.36,8.36a1.47,1.47,0,0,1,0,2.09l-7.18,7.18,8.15,8.15,8.42-8.42Z"/><path class="cls-5" d="M722.53,174a1.47,1.47,0,0,1,0-2.09l5.55-5.55a1.93,1.93,0,0,0,0-2.73l-12.2-12.2H700l-.2.19-3,3-3-3-.2-.19H677.7l-12.2,12.2a1.93,1.93,0,0,0,0,2.73l5.55,5.55a1.47,1.47,0,0,1,0,2.09l-6.91,6.91,8.42,8.42,8.15-8.15L673.53,174a1.47,1.47,0,0,1,0-2.09l8.36-8.36a5.28,5.28,0,0,1,7.47,0l.29.29a5.27,5.27,0,0,1,1.23,2v35.39a5.53,5.53,0,0,1-1.17,3.51,5.28,5.28,0,0,1-7.84.41l-9.59-9.56-6.77,6.77a1.93,1.93,0,0,0,0,2.73l12,12,15,0a3,3,0,0,0,2.08-.86l2.18-2.18,5.36-5.36.25-.26V167.57a5.36,5.36,0,0,1,1.54-3.73l.29-.29a5.28,5.28,0,0,1,7.47,0l8.36,8.36a1.47,1.47,0,0,1,0,2.09l-7.18,7.18,8.15,8.15,8.42-8.42Z"/><path class="cls-5" d="M786.52,174a1.47,1.47,0,0,1,0-2.09l5.55-5.55a1.93,1.93,0,0,0,0-2.73l-12.2-12.2H763.95l-.2.19-3,3-3-3-.2-.19H741.69l-12.2,12.2a1.93,1.93,0,0,0,0,2.73l5.55,5.55a1.47,1.47,0,0,1,0,2.09l-6.91,6.91,8.42,8.42,8.15-8.15L737.52,174a1.47,1.47,0,0,1,0-2.09l8.36-8.36a5.28,5.28,0,0,1,7.47,0l.29.29a5.27,5.27,0,0,1,1.23,2v35.39a5.53,5.53,0,0,1-1.17,3.51,5.28,5.28,0,0,1-7.84.41l-9.59-9.56-6.77,6.77a1.93,1.93,0,0,0,0,2.73l12,12,15,0a3,3,0,0,0,2.08-.86l2.18-2.18,5.36-5.36.25-.26V167.57a5.36,5.36,0,0,1,1.54-3.73l.29-.29a5.28,5.28,0,0,1,7.47,0l8.36,8.36a1.47,1.47,0,0,1,0,2.09l-7.18,7.18,8.15,8.15,8.42-8.42Z"/><path class="cls-5" d="M62.21,247.3a1.47,1.47,0,0,1,0-2.09l5.55-5.55a1.93,1.93,0,0,0,0-2.73l-12.2-12.2H39.63l-.2.19-3,3-3-3-.2-.19H17.38l-12.2,12.2a1.93,1.93,0,0,0,0,2.73l5.55,5.55a1.47,1.47,0,0,1,0,2.09l-6.91,6.91,8.42,8.42,8.15-8.15L13.2,247.3a1.47,1.47,0,0,1,0-2.09l8.36-8.36a5.28,5.28,0,0,1,7.47,0l.29.29a5.27,5.27,0,0,1,1.23,2v35.39A5.53,5.53,0,0,1,29.37,278a5.28,5.28,0,0,1-7.84.41l-9.59-9.56-6.77,6.77a1.93,1.93,0,0,0,0,2.73l12,12,15,0a3,3,0,0,0,2.08-.86l2.18-2.18,5.36-5.36.25-.26V240.87a5.36,5.36,0,0,1,1.54-3.73l.29-.29a5.28,5.28,0,0,1,7.47,0l8.36,8.36a1.47,1.47,0,0,1,0,2.09l-7.18,7.18,8.15,8.15,8.42-8.42Z"/><path class="cls-5" d="M126.19,247.3a1.47,1.47,0,0,1,0-2.09l5.55-5.55a1.93,1.93,0,0,0,0-2.73l-12.2-12.2H103.62l-.2.19-3,3-3-3-.2-.19H81.36l-12.2,12.2a1.93,1.93,0,0,0,0,2.73l5.55,5.55a1.47,1.47,0,0,1,0,2.09l-6.91,6.91,8.42,8.42,8.15-8.15-7.18-7.18a1.47,1.47,0,0,1,0-2.09l8.36-8.36a5.28,5.28,0,0,1,7.47,0l.29.29a5.27,5.27,0,0,1,1.23,2v35.39A5.53,5.53,0,0,1,93.36,278a5.28,5.28,0,0,1-7.84.41l-9.59-9.56-6.77,6.77a1.93,1.93,0,0,0,0,2.73l12,12,15,0a3,3,0,0,0,2.08-.86l2.18-2.18,5.36-5.36.25-.26V240.87a5.36,5.36,0,0,1,1.54-3.73l.29-.29a5.28,5.28,0,0,1,7.47,0l8.36,8.36a1.47,1.47,0,0,1,0,2.09l-7.18,7.18,8.15,8.15,8.42-8.42Z"/><path class="cls-5" d="M190.18,247.3a1.47,1.47,0,0,1,0-2.09l5.55-5.55a1.93,1.93,0,0,0,0-2.73l-12.2-12.2H167.61l-.2.19-3,3-3-3-.2-.19H145.35l-12.2,12.2a1.93,1.93,0,0,0,0,2.73l5.55,5.55a1.47,1.47,0,0,1,0,2.09l-6.91,6.91,8.42,8.42,8.15-8.15-7.18-7.18a1.47,1.47,0,0,1,0-2.09l8.36-8.36a5.28,5.28,0,0,1,7.47,0l.29.29a5.27,5.27,0,0,1,1.23,2v35.39a5.53,5.53,0,0,1-1.17,3.51,5.28,5.28,0,0,1-7.84.41l-9.59-9.56-6.77,6.77a1.93,1.93,0,0,0,0,2.73l12,12,15,0a3,3,0,0,0,2.08-.86l2.18-2.18,5.36-5.36.25-.26V240.87a5.36,5.36,0,0,1,1.54-3.73l.29-.29a5.28,5.28,0,0,1,7.47,0l8.36,8.36a1.47,1.47,0,0,1,0,2.09l-7.18,7.18,8.15,8.15,8.42-8.42Z"/><path class="cls-5" d="M254.17,247.3a1.47,1.47,0,0,1,0-2.09l5.55-5.55a1.93,1.93,0,0,0,0-2.73l-12.2-12.2H231.6l-.2.19-3,3-3-3-.2-.19H209.34l-12.2,12.2a1.93,1.93,0,0,0,0,2.73l5.55,5.55a1.47,1.47,0,0,1,0,2.09l-6.91,6.91,8.42,8.42,8.15-8.15-7.18-7.18a1.47,1.47,0,0,1,0-2.09l8.36-8.36a5.28,5.28,0,0,1,7.47,0l.29.29a5.27,5.27,0,0,1,1.23,2v35.39a5.53,5.53,0,0,1-1.17,3.51,5.28,5.28,0,0,1-7.84.41l-9.59-9.56-6.77,6.77a1.93,1.93,0,0,0,0,2.73l12,12,15,0a3,3,0,0,0,2.08-.86l2.18-2.18,5.36-5.36.25-.26V240.87a5.36,5.36,0,0,1,1.54-3.73l.29-.29a5.28,5.28,0,0,1,7.47,0l8.36,8.36a1.47,1.47,0,0,1,0,2.09l-7.18,7.18,8.15,8.15,8.42-8.42Z"/><path class="cls-5" d="M318.16,247.3a1.47,1.47,0,0,1,0-2.09l5.55-5.55a1.93,1.93,0,0,0,0-2.73l-12.2-12.2H295.58l-.2.19-3,3-3-3-.2-.19H273.33l-12.2,12.2a1.93,1.93,0,0,0,0,2.73l5.55,5.55a1.47,1.47,0,0,1,0,2.09l-6.91,6.91,8.42,8.42,8.15-8.15-7.18-7.18a1.47,1.47,0,0,1,0-2.09l8.36-8.36a5.28,5.28,0,0,1,7.47,0l.29.29a5.27,5.27,0,0,1,1.23,2v35.39a5.53,5.53,0,0,1-1.17,3.51,5.28,5.28,0,0,1-7.84.41l-9.59-9.56-6.77,6.77a1.93,1.93,0,0,0,0,2.73l12,12,15,0a3,3,0,0,0,2.08-.86l2.18-2.18,5.36-5.36.25-.26V240.87a5.36,5.36,0,0,1,1.54-3.73l.29-.29a5.28,5.28,0,0,1,7.47,0l8.36,8.36a1.47,1.47,0,0,1,0,2.09l-7.18,7.18,8.15,8.15,8.42-8.42Z"/><path class="cls-5" d="M382.15,247.3a1.47,1.47,0,0,1,0-2.09l5.55-5.55a1.93,1.93,0,0,0,0-2.73l-12.2-12.2H359.57l-.2.19-3,3-3-3-.2-.19H337.32l-12.2,12.2a1.93,1.93,0,0,0,0,2.73l5.55,5.55a1.47,1.47,0,0,1,0,2.09l-6.91,6.91,8.42,8.42,8.15-8.15-7.18-7.18a1.47,1.47,0,0,1,0-2.09l8.36-8.36a5.28,5.28,0,0,1,7.47,0l.29.29a5.27,5.27,0,0,1,1.23,2v35.39a5.53,5.53,0,0,1-1.17,3.51,5.28,5.28,0,0,1-7.84.41l-9.59-9.56-6.77,6.77a1.93,1.93,0,0,0,0,2.73l12,12,15,0a3,3,0,0,0,2.08-.86l2.18-2.18,5.36-5.36.25-.26V240.87a5.36,5.36,0,0,1,1.54-3.73l.29-.29a5.28,5.28,0,0,1,7.47,0l8.36,8.36a1.47,1.47,0,0,1,0,2.09l-7.18,7.18,8.15,8.15,8.42-8.42Z"/><path class="cls-5" d="M446.13,247.3a1.47,1.47,0,0,1,0-2.09l5.55-5.55a1.93,1.93,0,0,0,0-2.73l-12.2-12.2H423.56l-.2.19-3,3-3-3-.2-.19H401.3l-12.2,12.2a1.93,1.93,0,0,0,0,2.73l5.55,5.55a1.47,1.47,0,0,1,0,2.09l-6.91,6.91,8.42,8.42,8.15-8.15-7.18-7.18a1.47,1.47,0,0,1,0-2.09l8.36-8.36a5.28,5.28,0,0,1,7.47,0l.29.29a5.27,5.27,0,0,1,1.23,2v35.39A5.53,5.53,0,0,1,413.3,278a5.28,5.28,0,0,1-7.84.41l-9.59-9.56-6.77,6.77a1.93,1.93,0,0,0,0,2.73l12,12,15,0a3,3,0,0,0,2.08-.86l2.18-2.18,5.36-5.36.25-.26V240.87a5.36,5.36,0,0,1,1.54-3.73l.29-.29a5.28,5.28,0,0,1,7.47,0l8.36,8.36a1.47,1.47,0,0,1,0,2.09l-7.18,7.18,8.15,8.15,8.42-8.42Z"/><path class="cls-5" d="M510.12,247.3a1.47,1.47,0,0,1,0-2.09l5.55-5.55a1.93,1.93,0,0,0,0-2.73l-12.2-12.2H487.55l-.2.19-3,3-3-3-.2-.19H465.29l-12.2,12.2a1.93,1.93,0,0,0,0,2.73l5.55,5.55a1.47,1.47,0,0,1,0,2.09l-6.91,6.91,8.42,8.42,8.15-8.15-7.18-7.18a1.47,1.47,0,0,1,0-2.09l8.36-8.36a5.28,5.28,0,0,1,7.47,0l.29.29a5.27,5.27,0,0,1,1.23,2v35.39a5.53,5.53,0,0,1-1.17,3.51,5.28,5.28,0,0,1-7.84.41l-9.59-9.56-6.77,6.77a1.93,1.93,0,0,0,0,2.73l12,12,15,0a3,3,0,0,0,2.08-.86l2.18-2.18,5.36-5.36.25-.26V240.87a5.36,5.36,0,0,1,1.54-3.73l.29-.29a5.28,5.28,0,0,1,7.47,0l8.36,8.36a1.47,1.47,0,0,1,0,2.09l-7.18,7.18,8.15,8.15,8.42-8.42Z"/><path class="cls-5" d="M574.11,247.3a1.47,1.47,0,0,1,0-2.09l5.55-5.55a1.93,1.93,0,0,0,0-2.73l-12.2-12.2H551.54l-.2.19-3,3-3-3-.2-.19H529.28l-12.2,12.2a1.93,1.93,0,0,0,0,2.73l5.55,5.55a1.47,1.47,0,0,1,0,2.09l-6.91,6.91,8.42,8.42,8.15-8.15-7.18-7.18a1.47,1.47,0,0,1,0-2.09l8.36-8.36a5.28,5.28,0,0,1,7.47,0l.29.29a5.27,5.27,0,0,1,1.23,2v35.39a5.53,5.53,0,0,1-1.17,3.51,5.28,5.28,0,0,1-7.84.41l-9.59-9.56-6.77,6.77a1.93,1.93,0,0,0,0,2.73l12,12,15,0a3,3,0,0,0,2.08-.86l2.18-2.18,5.36-5.36.25-.26V240.87a5.36,5.36,0,0,1,1.54-3.73l.29-.29a5.28,5.28,0,0,1,7.47,0l8.36,8.36a1.47,1.47,0,0,1,0,2.09l-7.18,7.18,8.15,8.15,8.42-8.42Z"/><path class="cls-5" d="M638.1,247.3a1.47,1.47,0,0,1,0-2.09l5.55-5.55a1.93,1.93,0,0,0,0-2.73l-12.2-12.2H615.52l-.2.19-3,3-3-3-.2-.19H593.27l-12.2,12.2a1.93,1.93,0,0,0,0,2.73l5.55,5.55a1.47,1.47,0,0,1,0,2.09l-6.91,6.91,8.42,8.42,8.15-8.15-7.18-7.18a1.47,1.47,0,0,1,0-2.09l8.36-8.36a5.28,5.28,0,0,1,7.47,0l.29.29a5.27,5.27,0,0,1,1.23,2v35.39a5.53,5.53,0,0,1-1.17,3.51,5.28,5.28,0,0,1-7.84.41l-9.59-9.56-6.77,6.77a1.93,1.93,0,0,0,0,2.73l12,12,15,0a3,3,0,0,0,2.08-.86l2.18-2.18,5.36-5.36.25-.26V240.87a5.36,5.36,0,0,1,1.54-3.73l.29-.29a5.28,5.28,0,0,1,7.47,0l8.36,8.36a1.47,1.47,0,0,1,0,2.09l-7.18,7.18,8.15,8.15,8.42-8.42Z"/><path class="cls-5" d="M702.08,247.3a1.47,1.47,0,0,1,0-2.09l5.55-5.55a1.93,1.93,0,0,0,0-2.73l-12.2-12.2H679.51l-.2.19-3,3-3-3-.2-.19H657.25l-12.2,12.2a1.93,1.93,0,0,0,0,2.73l5.55,5.55a1.47,1.47,0,0,1,0,2.09l-6.91,6.91,8.42,8.42,8.15-8.15-7.18-7.18a1.47,1.47,0,0,1,0-2.09l8.36-8.36a5.28,5.28,0,0,1,7.47,0l.29.29a5.27,5.27,0,0,1,1.23,2v35.39a5.53,5.53,0,0,1-1.17,3.51,5.28,5.28,0,0,1-7.84.41l-9.59-9.56-6.77,6.77a1.93,1.93,0,0,0,0,2.73l12,12,15,0a3,3,0,0,0,2.08-.86l2.18-2.18,5.36-5.36.25-.26V240.87a5.36,5.36,0,0,1,1.54-3.73l.29-.29a5.28,5.28,0,0,1,7.47,0l8.36,8.36a1.47,1.47,0,0,1,0,2.09l-7.18,7.18,8.15,8.15,8.42-8.42Z"/><path class="cls-5" d="M766.07,247.3a1.47,1.47,0,0,1,0-2.09l5.55-5.55a1.93,1.93,0,0,0,0-2.73l-12.2-12.2H743.5l-.2.19-3,3-3-3-.2-.19H721.24L709,236.93a1.93,1.93,0,0,0,0,2.73l5.55,5.55a1.47,1.47,0,0,1,0,2.09l-6.91,6.91,8.42,8.42,8.15-8.15-7.18-7.18a1.47,1.47,0,0,1,0-2.09l8.36-8.36a5.28,5.28,0,0,1,7.47,0l.29.29a5.27,5.27,0,0,1,1.23,2v35.39a5.53,5.53,0,0,1-1.17,3.51,5.28,5.28,0,0,1-7.84.41l-9.59-9.56L709,275.63a1.93,1.93,0,0,0,0,2.73l12,12,15,0a3,3,0,0,0,2.08-.86l2.18-2.18,5.36-5.36.25-.26V240.87a5.36,5.36,0,0,1,1.54-3.73l.29-.29a5.28,5.28,0,0,1,7.47,0l8.36,8.36a1.47,1.47,0,0,1,0,2.09l-7.18,7.18,8.15,8.15,8.42-8.42Z"/><path class="cls-5" d="M82.65,313.09a1.47,1.47,0,0,1,0-2.09l5.55-5.55a1.93,1.93,0,0,0,0-2.73L76,290.52H60.08l-.2.19-3,3-3-3-.2-.19H37.82l-12.2,12.2a1.93,1.93,0,0,0,0,2.73L31.17,311a1.47,1.47,0,0,1,0,2.09L24.26,320l8.42,8.42,8.15-8.15-7.18-7.18a1.47,1.47,0,0,1,0-2.09L42,302.65a5.28,5.28,0,0,1,7.47,0l.29.29a5.27,5.27,0,0,1,1.23,2v35.39a5.53,5.53,0,0,1-1.17,3.51,5.28,5.28,0,0,1-7.84.41l-9.59-9.56-6.77,6.77a1.93,1.93,0,0,0,0,2.73l12,12,15,0a3,3,0,0,0,2.08-.86l2.18-2.18,5.36-5.36.25-.26V306.66a5.36,5.36,0,0,1,1.54-3.73l.29-.29a5.28,5.28,0,0,1,7.47,0L80.17,311a1.47,1.47,0,0,1,0,2.09L73,320.27l8.15,8.15L89.57,320Z"/><path class="cls-5" d="M146.64,313.09a1.47,1.47,0,0,1,0-2.09l5.55-5.55a1.93,1.93,0,0,0,0-2.73L140,290.52H124.07l-.2.19-3,3-3-3-.2-.19H101.81l-12.2,12.2a1.93,1.93,0,0,0,0,2.73L95.16,311a1.47,1.47,0,0,1,0,2.09L88.24,320l8.42,8.42,8.15-8.15-7.18-7.18a1.47,1.47,0,0,1,0-2.09l8.36-8.36a5.28,5.28,0,0,1,7.47,0l.29.29a5.27,5.27,0,0,1,1.23,2v35.39a5.53,5.53,0,0,1-1.17,3.51,5.28,5.28,0,0,1-7.84.41l-9.59-9.56-6.77,6.77a1.93,1.93,0,0,0,0,2.73l12,12,15,0a3,3,0,0,0,2.08-.86l2.18-2.18,5.36-5.36.25-.26V306.66a5.36,5.36,0,0,1,1.54-3.73l.29-.29a5.28,5.28,0,0,1,7.47,0l8.36,8.36a1.47,1.47,0,0,1,0,2.09L137,320.27l8.15,8.15,8.42-8.42Z"/><path class="cls-5" d="M210.63,313.09a1.47,1.47,0,0,1,0-2.09l5.55-5.55a1.93,1.93,0,0,0,0-2.73L204,290.52H188.06l-.2.19-3,3-3-3-.2-.19H165.8l-12.2,12.2a1.93,1.93,0,0,0,0,2.73l5.55,5.55a1.47,1.47,0,0,1,0,2.09L152.23,320l8.42,8.42,8.15-8.15-7.18-7.18a1.47,1.47,0,0,1,0-2.09l8.36-8.36a5.28,5.28,0,0,1,7.47,0l.29.29a5.27,5.27,0,0,1,1.23,2v35.39a5.53,5.53,0,0,1-1.17,3.51,5.28,5.28,0,0,1-7.84.41l-9.59-9.56-6.77,6.77a1.93,1.93,0,0,0,0,2.73l12,12,15,0a3,3,0,0,0,2.08-.86l2.18-2.18,5.36-5.36.25-.26V306.66a5.36,5.36,0,0,1,1.54-3.73l.29-.29a5.28,5.28,0,0,1,7.47,0l8.36,8.36a1.47,1.47,0,0,1,0,2.09L201,320.27l8.15,8.15,8.42-8.42Z"/><path class="cls-5" d="M274.62,313.09a1.47,1.47,0,0,1,0-2.09l5.55-5.55a1.93,1.93,0,0,0,0-2.73L268,290.52H252l-.2.19-3,3-3-3-.2-.19H229.79l-12.2,12.2a1.93,1.93,0,0,0,0,2.73l5.55,5.55a1.47,1.47,0,0,1,0,2.09L216.22,320l8.42,8.42,8.15-8.15-7.18-7.18a1.47,1.47,0,0,1,0-2.09l8.36-8.36a5.28,5.28,0,0,1,7.47,0l.29.29a5.27,5.27,0,0,1,1.23,2v35.39a5.53,5.53,0,0,1-1.17,3.51,5.28,5.28,0,0,1-7.84.41l-9.59-9.56-6.77,6.77a1.93,1.93,0,0,0,0,2.73l12,12,15,0a3,3,0,0,0,2.08-.86l2.18-2.18,5.36-5.36.25-.26V306.66a5.36,5.36,0,0,1,1.54-3.73l.29-.29a5.28,5.28,0,0,1,7.47,0l8.36,8.36a1.47,1.47,0,0,1,0,2.09L265,320.27l8.15,8.15,8.42-8.42Z"/><path class="cls-5" d="M338.6,313.09a1.47,1.47,0,0,1,0-2.09l5.55-5.55a1.93,1.93,0,0,0,0-2.73L332,290.52H316l-.2.19-3,3-3-3-.2-.19H293.77l-12.2,12.2a1.93,1.93,0,0,0,0,2.73l5.55,5.55a1.47,1.47,0,0,1,0,2.09L280.21,320l8.42,8.42,8.15-8.15-7.18-7.18a1.47,1.47,0,0,1,0-2.09l8.36-8.36a5.28,5.28,0,0,1,7.47,0l.29.29a5.27,5.27,0,0,1,1.23,2v35.39a5.53,5.53,0,0,1-1.17,3.51,5.28,5.28,0,0,1-7.84.41l-9.59-9.56-6.77,6.77a1.93,1.93,0,0,0,0,2.73l12,12,15,0a3,3,0,0,0,2.08-.86l2.18-2.18,5.36-5.36.25-.26V306.66a5.36,5.36,0,0,1,1.54-3.73l.29-.29a5.28,5.28,0,0,1,7.47,0l8.36,8.36a1.47,1.47,0,0,1,0,2.09l-7.18,7.18,8.15,8.15,8.42-8.42Z"/><path class="cls-5" d="M402.59,313.09a1.47,1.47,0,0,1,0-2.09l5.55-5.55a1.93,1.93,0,0,0,0-2.73l-12.2-12.2H380l-.2.19-3,3-3-3-.2-.19H357.76l-12.2,12.2a1.93,1.93,0,0,0,0,2.73l5.55,5.55a1.47,1.47,0,0,1,0,2.09L344.2,320l8.42,8.42,8.15-8.15-7.18-7.18a1.47,1.47,0,0,1,0-2.09l8.36-8.36a5.28,5.28,0,0,1,7.47,0l.29.29a5.27,5.27,0,0,1,1.23,2v35.39a5.53,5.53,0,0,1-1.17,3.51,5.28,5.28,0,0,1-7.84.41l-9.59-9.56-6.77,6.77a1.93,1.93,0,0,0,0,2.73l12,12,15,0a3,3,0,0,0,2.08-.86l2.18-2.18,5.36-5.36.25-.26V306.66a5.36,5.36,0,0,1,1.54-3.73l.29-.29a5.28,5.28,0,0,1,7.47,0l8.36,8.36a1.47,1.47,0,0,1,0,2.09l-7.18,7.18,8.15,8.15,8.42-8.42Z"/><path class="cls-5" d="M466.58,313.09a1.47,1.47,0,0,1,0-2.09l5.55-5.55a1.93,1.93,0,0,0,0-2.73l-12.2-12.2H444l-.2.19-3,3-3-3-.2-.19H421.75l-12.2,12.2a1.93,1.93,0,0,0,0,2.73L415.1,311a1.47,1.47,0,0,1,0,2.09L408.18,320l8.42,8.42,8.15-8.15-7.18-7.18a1.47,1.47,0,0,1,0-2.09l8.36-8.36a5.28,5.28,0,0,1,7.47,0l.29.29a5.27,5.27,0,0,1,1.23,2v35.39a5.53,5.53,0,0,1-1.17,3.51,5.28,5.28,0,0,1-7.84.41l-9.59-9.56-6.77,6.77a1.93,1.93,0,0,0,0,2.73l12,12,15,0a3,3,0,0,0,2.08-.86l2.18-2.18,5.36-5.36.25-.26V306.66a5.36,5.36,0,0,1,1.54-3.73l.29-.29a5.28,5.28,0,0,1,7.47,0L464.1,311a1.47,1.47,0,0,1,0,2.09l-7.18,7.18,8.15,8.15,8.42-8.42Z"/><path class="cls-5" d="M530.57,313.09a1.47,1.47,0,0,1,0-2.09l5.55-5.55a1.93,1.93,0,0,0,0-2.73l-12.2-12.2H508l-.2.19-3,3-3-3-.2-.19H485.74l-12.2,12.2a1.93,1.93,0,0,0,0,2.73l5.55,5.55a1.47,1.47,0,0,1,0,2.09L472.17,320l8.42,8.42,8.15-8.15-7.18-7.18a1.47,1.47,0,0,1,0-2.09l8.36-8.36a5.28,5.28,0,0,1,7.47,0l.29.29a5.27,5.27,0,0,1,1.23,2v35.39a5.53,5.53,0,0,1-1.17,3.51,5.28,5.28,0,0,1-7.84.41l-9.59-9.56-6.77,6.77a1.93,1.93,0,0,0,0,2.73l12,12,15,0a3,3,0,0,0,2.08-.86l2.18-2.18,5.36-5.36.25-.26V306.66a5.36,5.36,0,0,1,1.54-3.73l.29-.29a5.28,5.28,0,0,1,7.47,0l8.36,8.36a1.47,1.47,0,0,1,0,2.09l-7.18,7.18,8.15,8.15,8.42-8.42Z"/><path class="cls-5" d="M594.56,313.09a1.47,1.47,0,0,1,0-2.09l5.55-5.55a1.93,1.93,0,0,0,0-2.73l-12.2-12.2H572l-.2.19-3,3-3-3-.2-.19H549.73l-12.2,12.2a1.93,1.93,0,0,0,0,2.73l5.55,5.55a1.47,1.47,0,0,1,0,2.09L536.16,320l8.42,8.42,8.15-8.15-7.18-7.18a1.47,1.47,0,0,1,0-2.09l8.36-8.36a5.28,5.28,0,0,1,7.47,0l.29.29a5.27,5.27,0,0,1,1.23,2v35.39a5.53,5.53,0,0,1-1.17,3.51,5.28,5.28,0,0,1-7.84.41l-9.59-9.56-6.77,6.77a1.93,1.93,0,0,0,0,2.73l12,12,15,0a3,3,0,0,0,2.08-.86l2.18-2.18,5.36-5.36.25-.26V306.66a5.36,5.36,0,0,1,1.54-3.73l.29-.29a5.28,5.28,0,0,1,7.47,0l8.36,8.36a1.47,1.47,0,0,1,0,2.09l-7.18,7.18,8.15,8.15,8.42-8.42Z"/><path class="cls-5" d="M658.54,313.09a1.47,1.47,0,0,1,0-2.09l5.55-5.55a1.93,1.93,0,0,0,0-2.73l-12.2-12.2H636l-.2.19-3,3-3-3-.2-.19H613.71l-12.2,12.2a1.93,1.93,0,0,0,0,2.73l5.55,5.55a1.47,1.47,0,0,1,0,2.09L600.15,320l8.42,8.42,8.15-8.15-7.18-7.18a1.47,1.47,0,0,1,0-2.09l8.36-8.36a5.28,5.28,0,0,1,7.47,0l.29.29a5.27,5.27,0,0,1,1.23,2v35.39a5.53,5.53,0,0,1-1.17,3.51,5.28,5.28,0,0,1-7.84.41l-9.59-9.56-6.77,6.77a1.93,1.93,0,0,0,0,2.73l12,12,15,0a3,3,0,0,0,2.08-.86l2.18-2.18,5.36-5.36.25-.26V306.66a5.36,5.36,0,0,1,1.54-3.73l.29-.29a5.28,5.28,0,0,1,7.47,0l8.36,8.36a1.47,1.47,0,0,1,0,2.09l-7.18,7.18,8.15,8.15,8.42-8.42Z"/><path class="cls-5" d="M722.53,313.09a1.47,1.47,0,0,1,0-2.09l5.55-5.55a1.93,1.93,0,0,0,0-2.73l-12.2-12.2H700l-.2.19-3,3-3-3-.2-.19H677.7l-12.2,12.2a1.93,1.93,0,0,0,0,2.73L671,311a1.47,1.47,0,0,1,0,2.09L664.13,320l8.42,8.42,8.15-8.15-7.18-7.18a1.47,1.47,0,0,1,0-2.09l8.36-8.36a5.28,5.28,0,0,1,7.47,0l.29.29a5.27,5.27,0,0,1,1.23,2v35.39a5.53,5.53,0,0,1-1.17,3.51,5.28,5.28,0,0,1-7.84.41l-9.59-9.56-6.77,6.77a1.93,1.93,0,0,0,0,2.73l12,12,15,0a3,3,0,0,0,2.08-.86l2.18-2.18,5.36-5.36.25-.26V306.66a5.36,5.36,0,0,1,1.54-3.73l.29-.29a5.28,5.28,0,0,1,7.47,0L720,311a1.47,1.47,0,0,1,0,2.09l-7.18,7.18,8.15,8.15,8.42-8.42Z"/><path class="cls-5" d="M786.52,313.09a1.47,1.47,0,0,1,0-2.09l5.55-5.55a1.93,1.93,0,0,0,0-2.73l-12.2-12.2H763.95l-.2.19-3,3-3-3-.2-.19H741.69l-12.2,12.2a1.93,1.93,0,0,0,0,2.73L735,311a1.47,1.47,0,0,1,0,2.09L728.12,320l8.42,8.42,8.15-8.15-7.18-7.18a1.47,1.47,0,0,1,0-2.09l8.36-8.36a5.28,5.28,0,0,1,7.47,0l.29.29a5.27,5.27,0,0,1,1.23,2v35.39a5.53,5.53,0,0,1-1.17,3.51,5.28,5.28,0,0,1-7.84.41l-9.59-9.56-6.77,6.77a1.93,1.93,0,0,0,0,2.73l12,12,15,0a3,3,0,0,0,2.08-.86l2.18-2.18,5.36-5.36.25-.26V306.66a5.36,5.36,0,0,1,1.54-3.73l.29-.29a5.28,5.28,0,0,1,7.47,0L784,311a1.47,1.47,0,0,1,0,2.09l-7.18,7.18,8.15,8.15,8.42-8.42Z"/><path class="cls-5" d="M62.21,386.39a1.47,1.47,0,0,1,0-2.09l5.55-5.55a1.93,1.93,0,0,0,0-2.73l-12.2-12.2H39.63l-.2.19-3,3-3-3-.2-.19H17.38L5.17,376a1.93,1.93,0,0,0,0,2.73l5.55,5.55a1.47,1.47,0,0,1,0,2.09l-6.91,6.91,8.42,8.42,8.15-8.15-7.18-7.18a1.47,1.47,0,0,1,0-2.09l8.36-8.36A5.28,5.28,0,0,1,29,376l.29.29a5.27,5.27,0,0,1,1.23,2v35.39a5.53,5.53,0,0,1-1.17,3.51,5.28,5.28,0,0,1-7.84.41l-9.59-9.56-6.77,6.77a1.93,1.93,0,0,0,0,2.73l12,12,15,0a3,3,0,0,0,2.08-.86l2.18-2.18L41.82,421l.25-.26V380a5.36,5.36,0,0,1,1.54-3.73l.29-.29a5.28,5.28,0,0,1,7.47,0l8.36,8.36a1.47,1.47,0,0,1,0,2.09l-7.18,7.18,8.15,8.15,8.42-8.42Z"/><path class="cls-5" d="M126.19,386.39a1.47,1.47,0,0,1,0-2.09l5.55-5.55a1.93,1.93,0,0,0,0-2.73l-12.2-12.2H103.62l-.2.19-3,3-3-3-.2-.19H81.36L69.16,376a1.93,1.93,0,0,0,0,2.73l5.55,5.55a1.47,1.47,0,0,1,0,2.09l-6.91,6.91,8.42,8.42,8.15-8.15-7.18-7.18a1.47,1.47,0,0,1,0-2.09l8.36-8.36A5.28,5.28,0,0,1,93,376l.29.29a5.27,5.27,0,0,1,1.23,2v35.39a5.53,5.53,0,0,1-1.17,3.51,5.28,5.28,0,0,1-7.84.41l-9.59-9.56-6.77,6.77a1.93,1.93,0,0,0,0,2.73l12,12,15,0a3,3,0,0,0,2.08-.86l2.18-2.18,5.36-5.36.25-.26V380a5.36,5.36,0,0,1,1.54-3.73l.29-.29a5.28,5.28,0,0,1,7.47,0l8.36,8.36a1.47,1.47,0,0,1,0,2.09l-7.18,7.18,8.15,8.15,8.42-8.42Z"/><path class="cls-5" d="M190.18,386.39a1.47,1.47,0,0,1,0-2.09l5.55-5.55a1.93,1.93,0,0,0,0-2.73l-12.2-12.2H167.61l-.2.19-3,3-3-3-.2-.19H145.35L133.15,376a1.93,1.93,0,0,0,0,2.73l5.55,5.55a1.47,1.47,0,0,1,0,2.09l-6.91,6.91,8.42,8.42,8.15-8.15-7.18-7.18a1.47,1.47,0,0,1,0-2.09l8.36-8.36a5.28,5.28,0,0,1,7.47,0l.29.29a5.27,5.27,0,0,1,1.23,2v35.39a5.53,5.53,0,0,1-1.17,3.51,5.28,5.28,0,0,1-7.84.41l-9.59-9.56-6.77,6.77a1.93,1.93,0,0,0,0,2.73l12,12,15,0a3,3,0,0,0,2.08-.86l2.18-2.18L169.8,421l.25-.26V380a5.36,5.36,0,0,1,1.54-3.73l.29-.29a5.28,5.28,0,0,1,7.47,0l8.36,8.36a1.47,1.47,0,0,1,0,2.09l-7.18,7.18,8.15,8.15,8.42-8.42Z"/><path class="cls-5" d="M254.17,386.39a1.47,1.47,0,0,1,0-2.09l5.55-5.55a1.93,1.93,0,0,0,0-2.73l-12.2-12.2H231.6l-.2.19-3,3-3-3-.2-.19H209.34L197.14,376a1.93,1.93,0,0,0,0,2.73l5.55,5.55a1.47,1.47,0,0,1,0,2.09l-6.91,6.91,8.42,8.42,8.15-8.15-7.18-7.18a1.47,1.47,0,0,1,0-2.09l8.36-8.36a5.28,5.28,0,0,1,7.47,0l.29.29a5.27,5.27,0,0,1,1.23,2v35.39a5.53,5.53,0,0,1-1.17,3.51,5.28,5.28,0,0,1-7.84.41l-9.59-9.56-6.77,6.77a1.93,1.93,0,0,0,0,2.73l12,12,15,0a3,3,0,0,0,2.08-.86l2.18-2.18,5.36-5.36.25-.26V380a5.36,5.36,0,0,1,1.54-3.73l.29-.29a5.28,5.28,0,0,1,7.47,0l8.36,8.36a1.47,1.47,0,0,1,0,2.09l-7.18,7.18,8.15,8.15,8.42-8.42Z"/><path class="cls-5" d="M318.16,386.39a1.47,1.47,0,0,1,0-2.09l5.55-5.55a1.93,1.93,0,0,0,0-2.73l-12.2-12.2H295.58l-.2.19-3,3-3-3-.2-.19H273.33L261.13,376a1.93,1.93,0,0,0,0,2.73l5.55,5.55a1.47,1.47,0,0,1,0,2.09l-6.91,6.91,8.42,8.42,8.15-8.15-7.18-7.18a1.47,1.47,0,0,1,0-2.09l8.36-8.36a5.28,5.28,0,0,1,7.47,0l.29.29a5.27,5.27,0,0,1,1.23,2v35.39a5.53,5.53,0,0,1-1.17,3.51,5.28,5.28,0,0,1-7.84.41l-9.59-9.56-6.77,6.77a1.93,1.93,0,0,0,0,2.73l12,12,15,0a3,3,0,0,0,2.08-.86l2.18-2.18,5.36-5.36.25-.26V380a5.36,5.36,0,0,1,1.54-3.73l.29-.29a5.28,5.28,0,0,1,7.47,0l8.36,8.36a1.47,1.47,0,0,1,0,2.09l-7.18,7.18,8.15,8.15,8.42-8.42Z"/><path class="cls-5" d="M382.15,386.39a1.47,1.47,0,0,1,0-2.09l5.55-5.55a1.93,1.93,0,0,0,0-2.73l-12.2-12.2H359.57l-.2.19-3,3-3-3-.2-.19H337.32L325.11,376a1.93,1.93,0,0,0,0,2.73l5.55,5.55a1.47,1.47,0,0,1,0,2.09l-6.91,6.91,8.42,8.42,8.15-8.15-7.18-7.18a1.47,1.47,0,0,1,0-2.09l8.36-8.36a5.28,5.28,0,0,1,7.47,0l.29.29a5.27,5.27,0,0,1,1.23,2v35.39a5.53,5.53,0,0,1-1.17,3.51,5.28,5.28,0,0,1-7.84.41l-9.59-9.56-6.77,6.77a1.93,1.93,0,0,0,0,2.73l12,12,15,0a3,3,0,0,0,2.08-.86l2.18-2.18,5.36-5.36.25-.26V380a5.36,5.36,0,0,1,1.54-3.73l.29-.29a5.28,5.28,0,0,1,7.47,0l8.36,8.36a1.47,1.47,0,0,1,0,2.09l-7.18,7.18,8.15,8.15,8.42-8.42Z"/><path class="cls-5" d="M446.13,386.39a1.47,1.47,0,0,1,0-2.09l5.55-5.55a1.93,1.93,0,0,0,0-2.73l-12.2-12.2H423.56l-.2.19-3,3-3-3-.2-.19H401.3L389.1,376a1.93,1.93,0,0,0,0,2.73l5.55,5.55a1.47,1.47,0,0,1,0,2.09l-6.91,6.91,8.42,8.42,8.15-8.15-7.18-7.18a1.47,1.47,0,0,1,0-2.09l8.36-8.36a5.28,5.28,0,0,1,7.47,0l.29.29a5.27,5.27,0,0,1,1.23,2v35.39a5.53,5.53,0,0,1-1.17,3.51,5.28,5.28,0,0,1-7.84.41l-9.59-9.56-6.77,6.77a1.93,1.93,0,0,0,0,2.73l12,12,15,0a3,3,0,0,0,2.08-.86l2.18-2.18,5.36-5.36.25-.26V380a5.36,5.36,0,0,1,1.54-3.73l.29-.29a5.28,5.28,0,0,1,7.47,0l8.36,8.36a1.47,1.47,0,0,1,0,2.09l-7.18,7.18,8.15,8.15,8.42-8.42Z"/><path class="cls-5" d="M510.12,386.39a1.47,1.47,0,0,1,0-2.09l5.55-5.55a1.93,1.93,0,0,0,0-2.73l-12.2-12.2H487.55l-.2.19-3,3-3-3-.2-.19H465.29L453.09,376a1.93,1.93,0,0,0,0,2.73l5.55,5.55a1.47,1.47,0,0,1,0,2.09l-6.91,6.91,8.42,8.42,8.15-8.15-7.18-7.18a1.47,1.47,0,0,1,0-2.09l8.36-8.36a5.28,5.28,0,0,1,7.47,0l.29.29a5.27,5.27,0,0,1,1.23,2v35.39a5.53,5.53,0,0,1-1.17,3.51,5.28,5.28,0,0,1-7.84.41l-9.59-9.56-6.77,6.77a1.93,1.93,0,0,0,0,2.73l12,12,15,0a3,3,0,0,0,2.08-.86l2.18-2.18,5.36-5.36.25-.26V380a5.36,5.36,0,0,1,1.54-3.73l.29-.29a5.28,5.28,0,0,1,7.47,0l8.36,8.36a1.47,1.47,0,0,1,0,2.09l-7.18,7.18,8.15,8.15,8.42-8.42Z"/><path class="cls-5" d="M574.11,386.39a1.47,1.47,0,0,1,0-2.09l5.55-5.55a1.93,1.93,0,0,0,0-2.73l-12.2-12.2H551.54l-.2.19-3,3-3-3-.2-.19H529.28L517.08,376a1.93,1.93,0,0,0,0,2.73l5.55,5.55a1.47,1.47,0,0,1,0,2.09l-6.91,6.91,8.42,8.42,8.15-8.15-7.18-7.18a1.47,1.47,0,0,1,0-2.09l8.36-8.36a5.28,5.28,0,0,1,7.47,0l.29.29a5.27,5.27,0,0,1,1.23,2v35.39a5.53,5.53,0,0,1-1.17,3.51,5.28,5.28,0,0,1-7.84.41l-9.59-9.56-6.77,6.77a1.93,1.93,0,0,0,0,2.73l12,12,15,0a3,3,0,0,0,2.08-.86l2.18-2.18,5.36-5.36.25-.26V380a5.36,5.36,0,0,1,1.54-3.73l.29-.29a5.28,5.28,0,0,1,7.47,0l8.36,8.36a1.47,1.47,0,0,1,0,2.09l-7.18,7.18,8.15,8.15,8.42-8.42Z"/><path class="cls-5" d="M638.1,386.39a1.47,1.47,0,0,1,0-2.09l5.55-5.55a1.93,1.93,0,0,0,0-2.73l-12.2-12.2H615.52l-.2.19-3,3-3-3-.2-.19H593.27L581.07,376a1.93,1.93,0,0,0,0,2.73l5.55,5.55a1.47,1.47,0,0,1,0,2.09l-6.91,6.91,8.42,8.42,8.15-8.15-7.18-7.18a1.47,1.47,0,0,1,0-2.09l8.36-8.36a5.28,5.28,0,0,1,7.47,0l.29.29a5.27,5.27,0,0,1,1.23,2v35.39a5.53,5.53,0,0,1-1.17,3.51,5.28,5.28,0,0,1-7.84.41l-9.59-9.56-6.77,6.77a1.93,1.93,0,0,0,0,2.73l12,12,15,0a3,3,0,0,0,2.08-.86l2.18-2.18,5.36-5.36.25-.26V380a5.36,5.36,0,0,1,1.54-3.73l.29-.29a5.28,5.28,0,0,1,7.47,0l8.36,8.36a1.47,1.47,0,0,1,0,2.09l-7.18,7.18,8.15,8.15,8.42-8.42Z"/><path class="cls-5" d="M702.08,386.39a1.47,1.47,0,0,1,0-2.09l5.55-5.55a1.93,1.93,0,0,0,0-2.73l-12.2-12.2H679.51l-.2.19-3,3-3-3-.2-.19H657.25L645.05,376a1.93,1.93,0,0,0,0,2.73l5.55,5.55a1.47,1.47,0,0,1,0,2.09l-6.91,6.91,8.42,8.42,8.15-8.15-7.18-7.18a1.47,1.47,0,0,1,0-2.09l8.36-8.36a5.28,5.28,0,0,1,7.47,0l.29.29a5.27,5.27,0,0,1,1.23,2v35.39a5.53,5.53,0,0,1-1.17,3.51,5.28,5.28,0,0,1-7.84.41l-9.59-9.56-6.77,6.77a1.93,1.93,0,0,0,0,2.73l12,12,15,0a3,3,0,0,0,2.08-.86l2.18-2.18L681.7,421l.25-.26V380a5.36,5.36,0,0,1,1.54-3.73l.29-.29a5.28,5.28,0,0,1,7.47,0l8.36,8.36a1.47,1.47,0,0,1,0,2.09l-7.18,7.18,8.15,8.15,8.42-8.42Z"/><path class="cls-5" d="M766.07,386.39a1.47,1.47,0,0,1,0-2.09l5.55-5.55a1.93,1.93,0,0,0,0-2.73l-12.2-12.2H743.5l-.2.19-3,3-3-3-.2-.19H721.24L709,376a1.93,1.93,0,0,0,0,2.73l5.55,5.55a1.47,1.47,0,0,1,0,2.09l-6.91,6.91,8.42,8.42,8.15-8.15-7.18-7.18a1.47,1.47,0,0,1,0-2.09l8.36-8.36a5.28,5.28,0,0,1,7.47,0l.29.29a5.27,5.27,0,0,1,1.23,2v35.39a5.53,5.53,0,0,1-1.17,3.51,5.28,5.28,0,0,1-7.84.41l-9.59-9.56L709,414.72a1.93,1.93,0,0,0,0,2.73l12,12,15,0a3,3,0,0,0,2.08-.86l2.18-2.18,5.36-5.36.25-.26V380a5.36,5.36,0,0,1,1.54-3.73l.29-.29a5.28,5.28,0,0,1,7.47,0l8.36,8.36a1.47,1.47,0,0,1,0,2.09l-7.18,7.18,8.15,8.15,8.42-8.42Z"/><path class="cls-5" d="M82.65,452.19a1.47,1.47,0,0,1,0-2.09l5.55-5.55a1.93,1.93,0,0,0,0-2.73L76,429.62H60.08l-.2.19-3,3-3-3-.2-.19H37.82l-12.2,12.2a1.93,1.93,0,0,0,0,2.73l5.55,5.55a1.47,1.47,0,0,1,0,2.09l-6.91,6.91,8.42,8.42,8.15-8.15-7.18-7.18a1.47,1.47,0,0,1,0-2.09L42,441.74a5.28,5.28,0,0,1,7.47,0l.29.29A5.27,5.27,0,0,1,51,444v35.39a5.53,5.53,0,0,1-1.17,3.51,5.28,5.28,0,0,1-7.84.41l-9.59-9.56-6.77,6.77a1.93,1.93,0,0,0,0,2.73l12,12,15,0a3,3,0,0,0,2.08-.86l2.18-2.18,5.36-5.36.25-.26V445.76A5.36,5.36,0,0,1,64.06,442l.29-.29a5.28,5.28,0,0,1,7.47,0l8.36,8.36a1.47,1.47,0,0,1,0,2.09L73,459.37l8.15,8.15,8.42-8.42Z"/><path class="cls-5" d="M146.64,452.19a1.47,1.47,0,0,1,0-2.09l5.55-5.55a1.93,1.93,0,0,0,0-2.73L140,429.62H124.07l-.2.19-3,3-3-3-.2-.19H101.81l-12.2,12.2a1.93,1.93,0,0,0,0,2.73l5.55,5.55a1.47,1.47,0,0,1,0,2.09l-6.91,6.91,8.42,8.42,8.15-8.15-7.18-7.18a1.47,1.47,0,0,1,0-2.09l8.36-8.36a5.28,5.28,0,0,1,7.47,0l.29.29a5.27,5.27,0,0,1,1.23,2v35.39a5.53,5.53,0,0,1-1.17,3.51,5.28,5.28,0,0,1-7.84.41l-9.59-9.56-6.77,6.77a1.93,1.93,0,0,0,0,2.73l12,12,15,0a3,3,0,0,0,2.08-.86l2.18-2.18,5.36-5.36.25-.26V445.76A5.36,5.36,0,0,1,128,442l.29-.29a5.28,5.28,0,0,1,7.47,0l8.36,8.36a1.47,1.47,0,0,1,0,2.09L137,459.37l8.15,8.15,8.42-8.42Z"/><path class="cls-5" d="M210.63,452.19a1.47,1.47,0,0,1,0-2.09l5.55-5.55a1.93,1.93,0,0,0,0-2.73L204,429.62H188.06l-.2.19-3,3-3-3-.2-.19H165.8l-12.2,12.2a1.93,1.93,0,0,0,0,2.73l5.55,5.55a1.47,1.47,0,0,1,0,2.09l-6.91,6.91,8.42,8.42,8.15-8.15-7.18-7.18a1.47,1.47,0,0,1,0-2.09l8.36-8.36a5.28,5.28,0,0,1,7.47,0l.29.29a5.27,5.27,0,0,1,1.23,2v35.39a5.53,5.53,0,0,1-1.17,3.51,5.28,5.28,0,0,1-7.84.41l-9.59-9.56-6.77,6.77a1.93,1.93,0,0,0,0,2.73l12,12,15,0a3,3,0,0,0,2.08-.86l2.18-2.18,5.36-5.36.25-.26V445.76A5.36,5.36,0,0,1,192,442l.29-.29a5.28,5.28,0,0,1,7.47,0l8.36,8.36a1.47,1.47,0,0,1,0,2.09L201,459.37l8.15,8.15,8.42-8.42Z"/><path class="cls-5" d="M274.62,452.19a1.47,1.47,0,0,1,0-2.09l5.55-5.55a1.93,1.93,0,0,0,0-2.73L268,429.62H252l-.2.19-3,3-3-3-.2-.19H229.79l-12.2,12.2a1.93,1.93,0,0,0,0,2.73l5.55,5.55a1.47,1.47,0,0,1,0,2.09l-6.91,6.91,8.42,8.42,8.15-8.15-7.18-7.18a1.47,1.47,0,0,1,0-2.09l8.36-8.36a5.28,5.28,0,0,1,7.47,0l.29.29a5.27,5.27,0,0,1,1.23,2v35.39a5.53,5.53,0,0,1-1.17,3.51,5.28,5.28,0,0,1-7.84.41l-9.59-9.56-6.77,6.77a1.93,1.93,0,0,0,0,2.73l12,12,15,0a3,3,0,0,0,2.08-.86l2.18-2.18,5.36-5.36.25-.26V445.76A5.36,5.36,0,0,1,256,442l.29-.29a5.28,5.28,0,0,1,7.47,0l8.36,8.36a1.47,1.47,0,0,1,0,2.09L265,459.37l8.15,8.15,8.42-8.42Z"/><path class="cls-5" d="M338.6,452.19a1.47,1.47,0,0,1,0-2.09l5.55-5.55a1.93,1.93,0,0,0,0-2.73L332,429.62H316l-.2.19-3,3-3-3-.2-.19H293.77l-12.2,12.2a1.93,1.93,0,0,0,0,2.73l5.55,5.55a1.47,1.47,0,0,1,0,2.09l-6.91,6.91,8.42,8.42,8.15-8.15-7.18-7.18a1.47,1.47,0,0,1,0-2.09l8.36-8.36a5.28,5.28,0,0,1,7.47,0l.29.29a5.27,5.27,0,0,1,1.23,2v35.39a5.53,5.53,0,0,1-1.17,3.51,5.28,5.28,0,0,1-7.84.41l-9.59-9.56-6.77,6.77a1.93,1.93,0,0,0,0,2.73l12,12,15,0a3,3,0,0,0,2.08-.86l2.18-2.18,5.36-5.36.25-.26V445.76A5.36,5.36,0,0,1,320,442l.29-.29a5.28,5.28,0,0,1,7.47,0l8.36,8.36a1.47,1.47,0,0,1,0,2.09l-7.18,7.18,8.15,8.15,8.42-8.42Z"/><path class="cls-5" d="M402.59,452.19a1.47,1.47,0,0,1,0-2.09l5.55-5.55a1.93,1.93,0,0,0,0-2.73l-12.2-12.2H380l-.2.19-3,3-3-3-.2-.19H357.76l-12.2,12.2a1.93,1.93,0,0,0,0,2.73l5.55,5.55a1.47,1.47,0,0,1,0,2.09l-6.91,6.91,8.42,8.42,8.15-8.15-7.18-7.18a1.47,1.47,0,0,1,0-2.09l8.36-8.36a5.28,5.28,0,0,1,7.47,0l.29.29a5.27,5.27,0,0,1,1.23,2v35.39a5.53,5.53,0,0,1-1.17,3.51,5.28,5.28,0,0,1-7.84.41l-9.59-9.56-6.77,6.77a1.93,1.93,0,0,0,0,2.73l12,12,15,0a3,3,0,0,0,2.08-.86l2.18-2.18,5.36-5.36.25-.26V445.76A5.36,5.36,0,0,1,384,442l.29-.29a5.28,5.28,0,0,1,7.47,0l8.36,8.36a1.47,1.47,0,0,1,0,2.09l-7.18,7.18,8.15,8.15,8.42-8.42Z"/><path class="cls-5" d="M466.58,452.19a1.47,1.47,0,0,1,0-2.09l5.55-5.55a1.93,1.93,0,0,0,0-2.73l-12.2-12.2H444l-.2.19-3,3-3-3-.2-.19H421.75l-12.2,12.2a1.93,1.93,0,0,0,0,2.73l5.55,5.55a1.47,1.47,0,0,1,0,2.09l-6.91,6.91,8.42,8.42,8.15-8.15-7.18-7.18a1.47,1.47,0,0,1,0-2.09l8.36-8.36a5.28,5.28,0,0,1,7.47,0l.29.29a5.27,5.27,0,0,1,1.23,2v35.39a5.53,5.53,0,0,1-1.17,3.51,5.28,5.28,0,0,1-7.84.41l-9.59-9.56-6.77,6.77a1.93,1.93,0,0,0,0,2.73l12,12,15,0a3,3,0,0,0,2.08-.86l2.18-2.18,5.36-5.36.25-.26V445.76A5.36,5.36,0,0,1,448,442l.29-.29a5.28,5.28,0,0,1,7.47,0l8.36,8.36a1.47,1.47,0,0,1,0,2.09l-7.18,7.18,8.15,8.15,8.42-8.42Z"/><path class="cls-5" d="M530.57,452.19a1.47,1.47,0,0,1,0-2.09l5.55-5.55a1.93,1.93,0,0,0,0-2.73l-12.2-12.2H508l-.2.19-3,3-3-3-.2-.19H485.74l-12.2,12.2a1.93,1.93,0,0,0,0,2.73l5.55,5.55a1.47,1.47,0,0,1,0,2.09l-6.91,6.91,8.42,8.42,8.15-8.15-7.18-7.18a1.47,1.47,0,0,1,0-2.09l8.36-8.36a5.28,5.28,0,0,1,7.47,0l.29.29a5.27,5.27,0,0,1,1.23,2v35.39a5.53,5.53,0,0,1-1.17,3.51,5.28,5.28,0,0,1-7.84.41l-9.59-9.56-6.77,6.77a1.93,1.93,0,0,0,0,2.73l12,12,15,0a3,3,0,0,0,2.08-.86l2.18-2.18,5.36-5.36.25-.26V445.76A5.36,5.36,0,0,1,512,442l.29-.29a5.28,5.28,0,0,1,7.47,0l8.36,8.36a1.47,1.47,0,0,1,0,2.09l-7.18,7.18,8.15,8.15,8.42-8.42Z"/><path class="cls-5" d="M594.56,452.19a1.47,1.47,0,0,1,0-2.09l5.55-5.55a1.93,1.93,0,0,0,0-2.73l-12.2-12.2H572l-.2.19-3,3-3-3-.2-.19H549.73l-12.2,12.2a1.93,1.93,0,0,0,0,2.73l5.55,5.55a1.47,1.47,0,0,1,0,2.09l-6.91,6.91,8.42,8.42,8.15-8.15-7.18-7.18a1.47,1.47,0,0,1,0-2.09l8.36-8.36a5.28,5.28,0,0,1,7.47,0l.29.29a5.27,5.27,0,0,1,1.23,2v35.39a5.53,5.53,0,0,1-1.17,3.51,5.28,5.28,0,0,1-7.84.41l-9.59-9.56-6.77,6.77a1.93,1.93,0,0,0,0,2.73l12,12,15,0a3,3,0,0,0,2.08-.86l2.18-2.18,5.36-5.36.25-.26V445.76A5.36,5.36,0,0,1,576,442l.29-.29a5.28,5.28,0,0,1,7.47,0l8.36,8.36a1.47,1.47,0,0,1,0,2.09l-7.18,7.18,8.15,8.15,8.42-8.42Z"/><path class="cls-5" d="M658.54,452.19a1.47,1.47,0,0,1,0-2.09l5.55-5.55a1.93,1.93,0,0,0,0-2.73l-12.2-12.2H636l-.2.19-3,3-3-3-.2-.19H613.71l-12.2,12.2a1.93,1.93,0,0,0,0,2.73l5.55,5.55a1.47,1.47,0,0,1,0,2.09l-6.91,6.91,8.42,8.42,8.15-8.15-7.18-7.18a1.47,1.47,0,0,1,0-2.09l8.36-8.36a5.28,5.28,0,0,1,7.47,0l.29.29a5.27,5.27,0,0,1,1.23,2v35.39a5.53,5.53,0,0,1-1.17,3.51,5.28,5.28,0,0,1-7.84.41l-9.59-9.56-6.77,6.77a1.93,1.93,0,0,0,0,2.73l12,12,15,0a3,3,0,0,0,2.08-.86l2.18-2.18,5.36-5.36.25-.26V445.76A5.36,5.36,0,0,1,640,442l.29-.29a5.28,5.28,0,0,1,7.47,0l8.36,8.36a1.47,1.47,0,0,1,0,2.09l-7.18,7.18,8.15,8.15,8.42-8.42Z"/><path class="cls-5" d="M722.53,452.19a1.47,1.47,0,0,1,0-2.09l5.55-5.55a1.93,1.93,0,0,0,0-2.73l-12.2-12.2H700l-.2.19-3,3-3-3-.2-.19H677.7l-12.2,12.2a1.93,1.93,0,0,0,0,2.73L671,450.1a1.47,1.47,0,0,1,0,2.09l-6.91,6.91,8.42,8.42,8.15-8.15-7.18-7.18a1.47,1.47,0,0,1,0-2.09l8.36-8.36a5.28,5.28,0,0,1,7.47,0l.29.29a5.27,5.27,0,0,1,1.23,2v35.39a5.53,5.53,0,0,1-1.17,3.51,5.28,5.28,0,0,1-7.84.41l-9.59-9.56-6.77,6.77a1.93,1.93,0,0,0,0,2.73l12,12,15,0a3,3,0,0,0,2.08-.86l2.18-2.18,5.36-5.36.25-.26V445.76a5.36,5.36,0,0,1,1.54-3.73l.29-.29a5.28,5.28,0,0,1,7.47,0L720,450.1a1.47,1.47,0,0,1,0,2.09l-7.18,7.18,8.15,8.15,8.42-8.42Z"/><path class="cls-5" d="M786.52,452.19a1.47,1.47,0,0,1,0-2.09l5.55-5.55a1.93,1.93,0,0,0,0-2.73l-12.2-12.2H763.95l-.2.19-3,3-3-3-.2-.19H741.69l-12.2,12.2a1.93,1.93,0,0,0,0,2.73L735,450.1a1.47,1.47,0,0,1,0,2.09l-6.91,6.91,8.42,8.42,8.15-8.15-7.18-7.18a1.47,1.47,0,0,1,0-2.09l8.36-8.36a5.28,5.28,0,0,1,7.47,0l.29.29a5.27,5.27,0,0,1,1.23,2v35.39a5.53,5.53,0,0,1-1.17,3.51,5.28,5.28,0,0,1-7.84.41l-9.59-9.56-6.77,6.77a1.93,1.93,0,0,0,0,2.73l12,12,15,0a3,3,0,0,0,2.08-.86l2.18-2.18,5.36-5.36.25-.26V445.76a5.36,5.36,0,0,1,1.54-3.73l.29-.29a5.28,5.28,0,0,1,7.47,0L784,450.1a1.47,1.47,0,0,1,0,2.09l-7.18,7.18,8.15,8.15,8.42-8.42Z"/><path class="cls-5" d="M62.21,525.49a1.47,1.47,0,0,1,0-2.09l5.55-5.55a1.93,1.93,0,0,0,0-2.73l-12.2-12.2H39.63l-.2.19-3,3-3-3-.2-.19H17.38l-12.2,12.2a1.93,1.93,0,0,0,0,2.73l5.55,5.55a1.47,1.47,0,0,1,0,2.09L3.81,532.4l8.42,8.42,8.15-8.15-7.18-7.18a1.47,1.47,0,0,1,0-2.09L21.56,515A5.28,5.28,0,0,1,29,515l.29.29a5.27,5.27,0,0,1,1.23,2v35.39a5.53,5.53,0,0,1-1.17,3.51,5.28,5.28,0,0,1-7.84.41L11.95,547l-6.77,6.77a1.93,1.93,0,0,0,0,2.73l12,12,15,0a3,3,0,0,0,2.08-.86l2.18-2.18,5.36-5.36.25-.26V519.06a5.36,5.36,0,0,1,1.54-3.73l.29-.29a5.28,5.28,0,0,1,7.47,0l8.36,8.36a1.47,1.47,0,0,1,0,2.09l-7.18,7.18,8.15,8.15,8.42-8.42Z"/><path class="cls-5" d="M126.19,525.49a1.47,1.47,0,0,1,0-2.09l5.55-5.55a1.93,1.93,0,0,0,0-2.73l-12.2-12.2H103.62l-.2.19-3,3-3-3-.2-.19H81.36l-12.2,12.2a1.93,1.93,0,0,0,0,2.73l5.55,5.55a1.47,1.47,0,0,1,0,2.09L67.8,532.4l8.42,8.42,8.15-8.15-7.18-7.18a1.47,1.47,0,0,1,0-2.09L85.55,515A5.28,5.28,0,0,1,93,515l.29.29a5.27,5.27,0,0,1,1.23,2v35.39a5.53,5.53,0,0,1-1.17,3.51,5.28,5.28,0,0,1-7.84.41L75.93,547l-6.77,6.77a1.93,1.93,0,0,0,0,2.73l12,12,15,0a3,3,0,0,0,2.08-.86l2.18-2.18,5.36-5.36.25-.26V519.06a5.36,5.36,0,0,1,1.54-3.73l.29-.29a5.28,5.28,0,0,1,7.47,0l8.36,8.36a1.47,1.47,0,0,1,0,2.09l-7.18,7.18,8.15,8.15,8.42-8.42Z"/><path class="cls-5" d="M190.18,525.49a1.47,1.47,0,0,1,0-2.09l5.55-5.55a1.93,1.93,0,0,0,0-2.73l-12.2-12.2H167.61l-.2.19-3,3-3-3-.2-.19H145.35l-12.2,12.2a1.93,1.93,0,0,0,0,2.73l5.55,5.55a1.47,1.47,0,0,1,0,2.09l-6.91,6.91,8.42,8.42,8.15-8.15-7.18-7.18a1.47,1.47,0,0,1,0-2.09l8.36-8.36a5.28,5.28,0,0,1,7.47,0l.29.29a5.27,5.27,0,0,1,1.23,2v35.39a5.53,5.53,0,0,1-1.17,3.51,5.28,5.28,0,0,1-7.84.41L139.92,547l-6.77,6.77a1.93,1.93,0,0,0,0,2.73l12,12,15,0a3,3,0,0,0,2.08-.86l2.18-2.18,5.36-5.36.25-.26V519.06a5.36,5.36,0,0,1,1.54-3.73l.29-.29a5.28,5.28,0,0,1,7.47,0l8.36,8.36a1.47,1.47,0,0,1,0,2.09l-7.18,7.18,8.15,8.15,8.42-8.42Z"/><path class="cls-5" d="M254.17,525.49a1.47,1.47,0,0,1,0-2.09l5.55-5.55a1.93,1.93,0,0,0,0-2.73l-12.2-12.2H231.6l-.2.19-3,3-3-3-.2-.19H209.34l-12.2,12.2a1.93,1.93,0,0,0,0,2.73l5.55,5.55a1.47,1.47,0,0,1,0,2.09l-6.91,6.91,8.42,8.42,8.15-8.15-7.18-7.18a1.47,1.47,0,0,1,0-2.09l8.36-8.36a5.28,5.28,0,0,1,7.47,0l.29.29a5.27,5.27,0,0,1,1.23,2v35.39a5.53,5.53,0,0,1-1.17,3.51,5.28,5.28,0,0,1-7.84.41L203.91,547l-6.77,6.77a1.93,1.93,0,0,0,0,2.73l12,12,15,0a3,3,0,0,0,2.08-.86l2.18-2.18,5.36-5.36.25-.26V519.06a5.36,5.36,0,0,1,1.54-3.73l.29-.29a5.28,5.28,0,0,1,7.47,0l8.36,8.36a1.47,1.47,0,0,1,0,2.09l-7.18,7.18,8.15,8.15,8.42-8.42Z"/><path class="cls-5" d="M318.16,525.49a1.47,1.47,0,0,1,0-2.09l5.55-5.55a1.93,1.93,0,0,0,0-2.73l-12.2-12.2H295.58l-.2.19-3,3-3-3-.2-.19H273.33l-12.2,12.2a1.93,1.93,0,0,0,0,2.73l5.55,5.55a1.47,1.47,0,0,1,0,2.09l-6.91,6.91,8.42,8.42,8.15-8.15-7.18-7.18a1.47,1.47,0,0,1,0-2.09l8.36-8.36a5.28,5.28,0,0,1,7.47,0l.29.29a5.27,5.27,0,0,1,1.23,2v35.39a5.53,5.53,0,0,1-1.17,3.51,5.28,5.28,0,0,1-7.84.41L267.9,547l-6.77,6.77a1.93,1.93,0,0,0,0,2.73l12,12,15,0a3,3,0,0,0,2.08-.86l2.18-2.18,5.36-5.36.25-.26V519.06a5.36,5.36,0,0,1,1.54-3.73l.29-.29a5.28,5.28,0,0,1,7.47,0l8.36,8.36a1.47,1.47,0,0,1,0,2.09l-7.18,7.18,8.15,8.15,8.42-8.42Z"/><path class="cls-5" d="M382.15,525.49a1.47,1.47,0,0,1,0-2.09l5.55-5.55a1.93,1.93,0,0,0,0-2.73l-12.2-12.2H359.57l-.2.19-3,3-3-3-.2-.19H337.32l-12.2,12.2a1.93,1.93,0,0,0,0,2.73l5.55,5.55a1.47,1.47,0,0,1,0,2.09l-6.91,6.91,8.42,8.42,8.15-8.15-7.18-7.18a1.47,1.47,0,0,1,0-2.09L341.5,515a5.28,5.28,0,0,1,7.47,0l.29.29a5.27,5.27,0,0,1,1.23,2v35.39a5.53,5.53,0,0,1-1.17,3.51,5.28,5.28,0,0,1-7.84.41L331.88,547l-6.77,6.77a1.93,1.93,0,0,0,0,2.73l12,12,15,0a3,3,0,0,0,2.08-.86l2.18-2.18,5.36-5.36.25-.26V519.06a5.36,5.36,0,0,1,1.54-3.73l.29-.29a5.28,5.28,0,0,1,7.47,0l8.36,8.36a1.47,1.47,0,0,1,0,2.09l-7.18,7.18,8.15,8.15,8.42-8.42Z"/><path class="cls-5" d="M446.13,525.49a1.47,1.47,0,0,1,0-2.09l5.55-5.55a1.93,1.93,0,0,0,0-2.73l-12.2-12.2H423.56l-.2.19-3,3-3-3-.2-.19H401.3l-12.2,12.2a1.93,1.93,0,0,0,0,2.73l5.55,5.55a1.47,1.47,0,0,1,0,2.09l-6.91,6.91,8.42,8.42,8.15-8.15-7.18-7.18a1.47,1.47,0,0,1,0-2.09l8.36-8.36a5.28,5.28,0,0,1,7.47,0l.29.29a5.27,5.27,0,0,1,1.23,2v35.39a5.53,5.53,0,0,1-1.17,3.51,5.28,5.28,0,0,1-7.84.41L395.87,547l-6.77,6.77a1.93,1.93,0,0,0,0,2.73l12,12,15,0a3,3,0,0,0,2.08-.86l2.18-2.18,5.36-5.36.25-.26V519.06a5.36,5.36,0,0,1,1.54-3.73l.29-.29a5.28,5.28,0,0,1,7.47,0l8.36,8.36a1.47,1.47,0,0,1,0,2.09l-7.18,7.18,8.15,8.15L453,532.4Z"/><path class="cls-5" d="M510.12,525.49a1.47,1.47,0,0,1,0-2.09l5.55-5.55a1.93,1.93,0,0,0,0-2.73l-12.2-12.2H487.55l-.2.19-3,3-3-3-.2-.19H465.29l-12.2,12.2a1.93,1.93,0,0,0,0,2.73l5.55,5.55a1.47,1.47,0,0,1,0,2.09l-6.91,6.91,8.42,8.42,8.15-8.15-7.18-7.18a1.47,1.47,0,0,1,0-2.09l8.36-8.36a5.28,5.28,0,0,1,7.47,0l.29.29a5.27,5.27,0,0,1,1.23,2v35.39a5.53,5.53,0,0,1-1.17,3.51,5.28,5.28,0,0,1-7.84.41L459.86,547l-6.77,6.77a1.93,1.93,0,0,0,0,2.73l12,12,15,0a3,3,0,0,0,2.08-.86l2.18-2.18,5.36-5.36.25-.26V519.06a5.36,5.36,0,0,1,1.54-3.73l.29-.29a5.28,5.28,0,0,1,7.47,0l8.36,8.36a1.47,1.47,0,0,1,0,2.09l-7.18,7.18,8.15,8.15L517,532.4Z"/><path class="cls-5" d="M574.11,525.49a1.47,1.47,0,0,1,0-2.09l5.55-5.55a1.93,1.93,0,0,0,0-2.73l-12.2-12.2H551.54l-.2.19-3,3-3-3-.2-.19H529.28l-12.2,12.2a1.93,1.93,0,0,0,0,2.73l5.55,5.55a1.47,1.47,0,0,1,0,2.09l-6.91,6.91,8.42,8.42,8.15-8.15-7.18-7.18a1.47,1.47,0,0,1,0-2.09l8.36-8.36a5.28,5.28,0,0,1,7.47,0l.29.29a5.27,5.27,0,0,1,1.23,2v35.39a5.53,5.53,0,0,1-1.17,3.51,5.28,5.28,0,0,1-7.84.41L523.85,547l-6.77,6.77a1.93,1.93,0,0,0,0,2.73l12,12,15,0a3,3,0,0,0,2.08-.86l2.18-2.18,5.36-5.36.25-.26V519.06a5.36,5.36,0,0,1,1.54-3.73l.29-.29a5.28,5.28,0,0,1,7.47,0l8.36,8.36a1.47,1.47,0,0,1,0,2.09l-7.18,7.18,8.15,8.15L581,532.4Z"/><path class="cls-5" d="M638.1,525.49a1.47,1.47,0,0,1,0-2.09l5.55-5.55a1.93,1.93,0,0,0,0-2.73l-12.2-12.2H615.52l-.2.19-3,3-3-3-.2-.19H593.27l-12.2,12.2a1.93,1.93,0,0,0,0,2.73l5.55,5.55a1.47,1.47,0,0,1,0,2.09l-6.91,6.91,8.42,8.42,8.15-8.15-7.18-7.18a1.47,1.47,0,0,1,0-2.09l8.36-8.36a5.28,5.28,0,0,1,7.47,0l.29.29a5.27,5.27,0,0,1,1.23,2v35.39a5.53,5.53,0,0,1-1.17,3.51,5.28,5.28,0,0,1-7.84.41L587.84,547l-6.77,6.77a1.93,1.93,0,0,0,0,2.73l12,12,15,0a3,3,0,0,0,2.08-.86l2.18-2.18,5.36-5.36.25-.26V519.06a5.36,5.36,0,0,1,1.54-3.73l.29-.29a5.28,5.28,0,0,1,7.47,0l8.36,8.36a1.47,1.47,0,0,1,0,2.09l-7.18,7.18,8.15,8.15L645,532.4Z"/><path class="cls-5" d="M702.08,525.49a1.47,1.47,0,0,1,0-2.09l5.55-5.55a1.93,1.93,0,0,0,0-2.73l-12.2-12.2H679.51l-.2.19-3,3-3-3-.2-.19H657.25l-12.2,12.2a1.93,1.93,0,0,0,0,2.73l5.55,5.55a1.47,1.47,0,0,1,0,2.09l-6.91,6.91,8.42,8.42,8.15-8.15-7.18-7.18a1.47,1.47,0,0,1,0-2.09l8.36-8.36a5.28,5.28,0,0,1,7.47,0l.29.29a5.27,5.27,0,0,1,1.23,2v35.39a5.53,5.53,0,0,1-1.17,3.51,5.28,5.28,0,0,1-7.84.41L651.82,547l-6.77,6.77a1.93,1.93,0,0,0,0,2.73l12,12,15,0a3,3,0,0,0,2.08-.86l2.18-2.18,5.36-5.36.25-.26V519.06a5.36,5.36,0,0,1,1.54-3.73l.29-.29a5.28,5.28,0,0,1,7.47,0l8.36,8.36a1.47,1.47,0,0,1,0,2.09l-7.18,7.18,8.15,8.15L709,532.4Z"/><path class="cls-5" d="M766.07,525.49a1.47,1.47,0,0,1,0-2.09l5.55-5.55a1.93,1.93,0,0,0,0-2.73l-12.2-12.2H743.5l-.2.19-3,3-3-3-.2-.19H721.24L709,515.13a1.93,1.93,0,0,0,0,2.73l5.55,5.55a1.47,1.47,0,0,1,0,2.09l-6.91,6.91,8.42,8.42,8.15-8.15-7.18-7.18a1.47,1.47,0,0,1,0-2.09l8.36-8.36a5.28,5.28,0,0,1,7.47,0l.29.29a5.27,5.27,0,0,1,1.23,2v35.39a5.53,5.53,0,0,1-1.17,3.51,5.28,5.28,0,0,1-7.84.41L715.81,547,709,553.82a1.93,1.93,0,0,0,0,2.73l12,12,15,0a3,3,0,0,0,2.08-.86l2.18-2.18,5.36-5.36.25-.26V519.06a5.36,5.36,0,0,1,1.54-3.73l.29-.29a5.28,5.28,0,0,1,7.47,0l8.36,8.36a1.47,1.47,0,0,1,0,2.09l-7.18,7.18,8.15,8.15L773,532.4Z"/><path class="cls-5" d="M82.65,591.28a1.47,1.47,0,0,1,0-2.09l5.55-5.55a1.93,1.93,0,0,0,0-2.73L76,568.72H60.08l-.2.19-3,3-3-3-.2-.19H37.82l-12.2,12.2a1.93,1.93,0,0,0,0,2.73l5.55,5.55a1.47,1.47,0,0,1,0,2.09l-6.91,6.91,8.42,8.42,8.15-8.15-7.18-7.18a1.47,1.47,0,0,1,0-2.09L42,580.84a5.28,5.28,0,0,1,7.47,0l.29.29a5.27,5.27,0,0,1,1.23,2v35.39A5.53,5.53,0,0,1,49.82,622a5.28,5.28,0,0,1-7.84.41l-9.59-9.56-6.77,6.77a1.93,1.93,0,0,0,0,2.73l12,12,15,0a3,3,0,0,0,2.08-.86l2.18-2.18,5.36-5.36.25-.26V584.86a5.36,5.36,0,0,1,1.54-3.73l.29-.29a5.28,5.28,0,0,1,7.47,0l8.36,8.36a1.47,1.47,0,0,1,0,2.09L73,598.46l8.15,8.15,8.42-8.42Z"/><path class="cls-5" d="M146.64,591.28a1.47,1.47,0,0,1,0-2.09l5.55-5.55a1.93,1.93,0,0,0,0-2.73L140,568.72H124.07l-.2.19-3,3-3-3-.2-.19H101.81l-12.2,12.2a1.93,1.93,0,0,0,0,2.73l5.55,5.55a1.47,1.47,0,0,1,0,2.09l-6.91,6.91,8.42,8.42,8.15-8.15-7.18-7.18a1.47,1.47,0,0,1,0-2.09l8.36-8.36a5.28,5.28,0,0,1,7.47,0l.29.29a5.27,5.27,0,0,1,1.23,2v35.39a5.53,5.53,0,0,1-1.17,3.51,5.28,5.28,0,0,1-7.84.41l-9.59-9.56-6.77,6.77a1.93,1.93,0,0,0,0,2.73l12,12,15,0a3,3,0,0,0,2.08-.86l2.18-2.18,5.36-5.36.25-.26V584.86a5.36,5.36,0,0,1,1.54-3.73l.29-.29a5.28,5.28,0,0,1,7.47,0l8.36,8.36a1.47,1.47,0,0,1,0,2.09L137,598.46l8.15,8.15,8.42-8.42Z"/><path class="cls-5" d="M210.63,591.28a1.47,1.47,0,0,1,0-2.09l5.55-5.55a1.93,1.93,0,0,0,0-2.73L204,568.72H188.06l-.2.19-3,3-3-3-.2-.19H165.8l-12.2,12.2a1.93,1.93,0,0,0,0,2.73l5.55,5.55a1.47,1.47,0,0,1,0,2.09l-6.91,6.91,8.42,8.42,8.15-8.15-7.18-7.18a1.47,1.47,0,0,1,0-2.09l8.36-8.36a5.28,5.28,0,0,1,7.47,0l.29.29a5.27,5.27,0,0,1,1.23,2v35.39a5.53,5.53,0,0,1-1.17,3.51,5.28,5.28,0,0,1-7.84.41l-9.59-9.56-6.77,6.77a1.93,1.93,0,0,0,0,2.73l12,12,15,0a3,3,0,0,0,2.08-.86l2.18-2.18,5.36-5.36.25-.26V584.86a5.36,5.36,0,0,1,1.54-3.73l.29-.29a5.28,5.28,0,0,1,7.47,0l8.36,8.36a1.47,1.47,0,0,1,0,2.09L201,598.46l8.15,8.15,8.42-8.42Z"/><path class="cls-5" d="M274.62,591.28a1.47,1.47,0,0,1,0-2.09l5.55-5.55a1.93,1.93,0,0,0,0-2.73L268,568.72H252l-.2.19-3,3-3-3-.2-.19H229.79l-12.2,12.2a1.93,1.93,0,0,0,0,2.73l5.55,5.55a1.47,1.47,0,0,1,0,2.09l-6.91,6.91,8.42,8.42,8.15-8.15-7.18-7.18a1.47,1.47,0,0,1,0-2.09l8.36-8.36a5.28,5.28,0,0,1,7.47,0l.29.29a5.27,5.27,0,0,1,1.23,2v35.39a5.53,5.53,0,0,1-1.17,3.51,5.28,5.28,0,0,1-7.84.41l-9.59-9.56-6.77,6.77a1.93,1.93,0,0,0,0,2.73l12,12,15,0a3,3,0,0,0,2.08-.86l2.18-2.18,5.36-5.36.25-.26V584.86a5.36,5.36,0,0,1,1.54-3.73l.29-.29a5.28,5.28,0,0,1,7.47,0l8.36,8.36a1.47,1.47,0,0,1,0,2.09L265,598.46l8.15,8.15,8.42-8.42Z"/><path class="cls-5" d="M338.6,591.28a1.47,1.47,0,0,1,0-2.09l5.55-5.55a1.93,1.93,0,0,0,0-2.73L332,568.72H316l-.2.19-3,3-3-3-.2-.19H293.77l-12.2,12.2a1.93,1.93,0,0,0,0,2.73l5.55,5.55a1.47,1.47,0,0,1,0,2.09l-6.91,6.91,8.42,8.42,8.15-8.15-7.18-7.18a1.47,1.47,0,0,1,0-2.09l8.36-8.36a5.28,5.28,0,0,1,7.47,0l.29.29a5.27,5.27,0,0,1,1.23,2v35.39a5.53,5.53,0,0,1-1.17,3.51,5.28,5.28,0,0,1-7.84.41l-9.59-9.56-6.77,6.77a1.93,1.93,0,0,0,0,2.73l12,12,15,0a3,3,0,0,0,2.08-.86l2.18-2.18,5.36-5.36.25-.26V584.86a5.36,5.36,0,0,1,1.54-3.73l.29-.29a5.28,5.28,0,0,1,7.47,0l8.36,8.36a1.47,1.47,0,0,1,0,2.09l-7.18,7.18,8.15,8.15,8.42-8.42Z"/><path class="cls-5" d="M402.59,591.28a1.47,1.47,0,0,1,0-2.09l5.55-5.55a1.93,1.93,0,0,0,0-2.73l-12.2-12.2H380l-.2.19-3,3-3-3-.2-.19H357.76l-12.2,12.2a1.93,1.93,0,0,0,0,2.73l5.55,5.55a1.47,1.47,0,0,1,0,2.09l-6.91,6.91,8.42,8.42,8.15-8.15-7.18-7.18a1.47,1.47,0,0,1,0-2.09l8.36-8.36a5.28,5.28,0,0,1,7.47,0l.29.29a5.27,5.27,0,0,1,1.23,2v35.39a5.53,5.53,0,0,1-1.17,3.51,5.28,5.28,0,0,1-7.84.41l-9.59-9.56-6.77,6.77a1.93,1.93,0,0,0,0,2.73l12,12,15,0a3,3,0,0,0,2.08-.86l2.18-2.18,5.36-5.36.25-.26V584.86a5.36,5.36,0,0,1,1.54-3.73l.29-.29a5.28,5.28,0,0,1,7.47,0l8.36,8.36a1.47,1.47,0,0,1,0,2.09l-7.18,7.18,8.15,8.15,8.42-8.42Z"/><path class="cls-5" d="M466.58,591.28a1.47,1.47,0,0,1,0-2.09l5.55-5.55a1.93,1.93,0,0,0,0-2.73l-12.2-12.2H444l-.2.19-3,3-3-3-.2-.19H421.75l-12.2,12.2a1.93,1.93,0,0,0,0,2.73l5.55,5.55a1.47,1.47,0,0,1,0,2.09l-6.91,6.91,8.42,8.42,8.15-8.15-7.18-7.18a1.47,1.47,0,0,1,0-2.09l8.36-8.36a5.28,5.28,0,0,1,7.47,0l.29.29a5.27,5.27,0,0,1,1.23,2v35.39a5.53,5.53,0,0,1-1.17,3.51,5.28,5.28,0,0,1-7.84.41l-9.59-9.56-6.77,6.77a1.93,1.93,0,0,0,0,2.73l12,12,15,0a3,3,0,0,0,2.08-.86l2.18-2.18,5.36-5.36.25-.26V584.86a5.36,5.36,0,0,1,1.54-3.73l.29-.29a5.28,5.28,0,0,1,7.47,0l8.36,8.36a1.47,1.47,0,0,1,0,2.09l-7.18,7.18,8.15,8.15,8.42-8.42Z"/><path class="cls-5" d="M530.57,591.28a1.47,1.47,0,0,1,0-2.09l5.55-5.55a1.93,1.93,0,0,0,0-2.73l-12.2-12.2H508l-.2.19-3,3-3-3-.2-.19H485.74l-12.2,12.2a1.93,1.93,0,0,0,0,2.73l5.55,5.55a1.47,1.47,0,0,1,0,2.09l-6.91,6.91,8.42,8.42,8.15-8.15-7.18-7.18a1.47,1.47,0,0,1,0-2.09l8.36-8.36a5.28,5.28,0,0,1,7.47,0l.29.29a5.27,5.27,0,0,1,1.23,2v35.39a5.53,5.53,0,0,1-1.17,3.51,5.28,5.28,0,0,1-7.84.41l-9.59-9.56-6.77,6.77a1.93,1.93,0,0,0,0,2.73l12,12,15,0a3,3,0,0,0,2.08-.86l2.18-2.18,5.36-5.36.25-.26V584.86a5.36,5.36,0,0,1,1.54-3.73l.29-.29a5.28,5.28,0,0,1,7.47,0l8.36,8.36a1.47,1.47,0,0,1,0,2.09l-7.18,7.18,8.15,8.15,8.42-8.42Z"/><path class="cls-5" d="M594.56,591.28a1.47,1.47,0,0,1,0-2.09l5.55-5.55a1.93,1.93,0,0,0,0-2.73l-12.2-12.2H572l-.2.19-3,3-3-3-.2-.19H549.73l-12.2,12.2a1.93,1.93,0,0,0,0,2.73l5.55,5.55a1.47,1.47,0,0,1,0,2.09l-6.91,6.91,8.42,8.42,8.15-8.15-7.18-7.18a1.47,1.47,0,0,1,0-2.09l8.36-8.36a5.28,5.28,0,0,1,7.47,0l.29.29a5.27,5.27,0,0,1,1.23,2v35.39a5.53,5.53,0,0,1-1.17,3.51,5.28,5.28,0,0,1-7.84.41l-9.59-9.56-6.77,6.77a1.93,1.93,0,0,0,0,2.73l12,12,15,0a3,3,0,0,0,2.08-.86l2.18-2.18,5.36-5.36.25-.26V584.86a5.36,5.36,0,0,1,1.54-3.73l.29-.29a5.28,5.28,0,0,1,7.47,0l8.36,8.36a1.47,1.47,0,0,1,0,2.09l-7.18,7.18,8.15,8.15,8.42-8.42Z"/><path class="cls-5" d="M658.54,591.28a1.47,1.47,0,0,1,0-2.09l5.55-5.55a1.93,1.93,0,0,0,0-2.73l-12.2-12.2H636l-.2.19-3,3-3-3-.2-.19H613.71l-12.2,12.2a1.93,1.93,0,0,0,0,2.73l5.55,5.55a1.47,1.47,0,0,1,0,2.09l-6.91,6.91,8.42,8.42,8.15-8.15-7.18-7.18a1.47,1.47,0,0,1,0-2.09l8.36-8.36a5.28,5.28,0,0,1,7.47,0l.29.29a5.27,5.27,0,0,1,1.23,2v35.39a5.53,5.53,0,0,1-1.17,3.51,5.28,5.28,0,0,1-7.84.41l-9.59-9.56-6.77,6.77a1.93,1.93,0,0,0,0,2.73l12,12,15,0a3,3,0,0,0,2.08-.86l2.18-2.18,5.36-5.36.25-.26V584.86a5.36,5.36,0,0,1,1.54-3.73l.29-.29a5.28,5.28,0,0,1,7.47,0l8.36,8.36a1.47,1.47,0,0,1,0,2.09l-7.18,7.18,8.15,8.15,8.42-8.42Z"/><path class="cls-5" d="M722.53,591.28a1.47,1.47,0,0,1,0-2.09l5.55-5.55a1.93,1.93,0,0,0,0-2.73l-12.2-12.2H700l-.2.19-3,3-3-3-.2-.19H677.7l-12.2,12.2a1.93,1.93,0,0,0,0,2.73L671,589.2a1.47,1.47,0,0,1,0,2.09l-6.91,6.91,8.42,8.42,8.15-8.15-7.18-7.18a1.47,1.47,0,0,1,0-2.09l8.36-8.36a5.28,5.28,0,0,1,7.47,0l.29.29a5.27,5.27,0,0,1,1.23,2v35.39A5.53,5.53,0,0,1,689.7,622a5.28,5.28,0,0,1-7.84.41l-9.59-9.56-6.77,6.77a1.93,1.93,0,0,0,0,2.73l12,12,15,0a3,3,0,0,0,2.08-.86l2.18-2.18,5.36-5.36.25-.26V584.86a5.36,5.36,0,0,1,1.54-3.73l.29-.29a5.28,5.28,0,0,1,7.47,0L720,589.2a1.47,1.47,0,0,1,0,2.09l-7.18,7.18,8.15,8.15,8.42-8.42Z"/><path class="cls-5" d="M786.52,591.28a1.47,1.47,0,0,1,0-2.09l5.55-5.55a1.93,1.93,0,0,0,0-2.73l-12.2-12.2H763.95l-.2.19-3,3-3-3-.2-.19H741.69l-12.2,12.2a1.93,1.93,0,0,0,0,2.73L735,589.2a1.47,1.47,0,0,1,0,2.09l-6.91,6.91,8.42,8.42,8.15-8.15-7.18-7.18a1.47,1.47,0,0,1,0-2.09l8.36-8.36a5.28,5.28,0,0,1,7.47,0l.29.29a5.27,5.27,0,0,1,1.23,2v35.39a5.53,5.53,0,0,1-1.17,3.51,5.28,5.28,0,0,1-7.84.41l-9.59-9.56-6.77,6.77a1.93,1.93,0,0,0,0,2.73l12,12,15,0a3,3,0,0,0,2.08-.86l2.18-2.18,5.36-5.36.25-.26V584.86a5.36,5.36,0,0,1,1.54-3.73l.29-.29a5.28,5.28,0,0,1,7.47,0L784,589.2a1.47,1.47,0,0,1,0,2.09l-7.18,7.18,8.15,8.15,8.42-8.42Z"/></g></svg>