<svg id="Layer_1" data-name="Layer 1" xmlns="http://www.w3.org/2000/svg" xmlns:xlink="http://www.w3.org/1999/xlink" viewBox="0 0 792 612"><defs><style>.cls-1{fill:url(#linear-gradient);}.cls-2{fill:#fff;}</style><linearGradient id="linear-gradient" x1="589.33" y1="111.91" x2="159.91" y2="541.34" gradientUnits="userSpaceOnUse"><stop offset="0.12" stop-color="#47beda"/><stop offset="0.5" stop-color="#6c4293"/><stop offset="0.85" stop-color="#e41037"/></linearGradient></defs><title>Artboard 8</title><g id="UbOIO7"><path class="cls-1" d="M237.79,147c34.94-34.94,73-73.77,122-87.69a132.08,132.08,0,0,1,66-1.62c22.77,5.32,43.71,16.59,62.57,30.2,21.33,15.39,40.41,33.81,59.23,52.12s37,37,53.63,57.15c29.37,35.73,50.8,78.74,43.94,126.12-7.09,49-41.46,88.93-74.54,123.43-18.17,18.95-36.85,37.68-56.77,54.8-19.07,16.38-39.54,31.68-62.67,41.84a135.55,135.55,0,0,1-65.9,11.34c-23.25-2-45.54-10.58-65.36-22.66-21.74-13.25-41-30-59.29-47.67-19-18.38-38.34-36.52-55.91-56.28-31.65-35.59-60.26-76.94-59.05-126.6s32.21-91.38,64.64-126.5C219.14,165.39,228.47,156.22,237.79,147Z"/></g><path class="cls-2" d="M509.16,290.58a9.91,9.91,0,0,0,13.76,7.11c4.38-2,6.1-5.52,6.09-10.18,0-11.18,0-22.37,0-33.55,0,1-.07,1.44-.15.35a9.52,9.52,0,0,0-10-9.07,9.72,9.72,0,0,0-9.79,8.7,36.8,36.8,0,0,0-.19,4.61c0,21.15,0,5.72,0,26.87A29.51,29.51,0,0,0,509.16,290.58Z"/><path class="cls-2" d="M376.54,379.88c0,1.69,0-4.14,0,0Z"/><path class="cls-2" d="M191,298.82a9.51,9.51,0,0,0-10-9.07,9.72,9.72,0,0,0-9.79,8.7,36.7,36.7,0,0,0-.19,4.61c0,7.9,0,9.79,0,10.17,0,0,0,1,0,10.26a29.52,29.52,0,0,0,.27,5.17,9.92,9.92,0,0,0,13.76,7.11c4.38-2,6.1-5.52,6.09-10.18,0-11.34,0-1.18,0-12.52h0c0-.63,0-.93,0-1.33s0-1.06,0-2.54C191.15,305.73,191.27,302.26,191,298.82Z"/><path class="cls-2" d="M191.17,311.73c0,1.69,0-4.14,0,0Z"/><path class="cls-2" d="M237.24,311.73c0,1.69,0-4.14,0,0Z"/><path class="cls-2" d="M366.39,326a9.72,9.72,0,0,0-9.79,8.71,36.87,36.87,0,0,0-.18,4.6c0,21.15,0,20.79,0,41.94a29.63,29.63,0,0,0,.27,5.17,9.91,9.91,0,0,0,13.76,7.11c4.38-2,6.1-5.52,6.09-10.18,0-11.34,0-22.68,0-34h0c0-.63,0-.93,0-1.33s0-1.06,0-2.54c0-3.46.11-6.93-.16-10.37A9.52,9.52,0,0,0,366.39,326Z"/><path class="cls-2" d="M574.51,313.1q0-2.31,0-4.61c0-10.19.1-20.38-.06-30.57a9.86,9.86,0,0,0-8.92-9.67,9.72,9.72,0,0,0-10.72,7.56,23.39,23.39,0,0,0-.66,5.69q-.07,31.72,0,63.44a21.31,21.31,0,0,0,.82,6.25,9.85,9.85,0,0,0,16.3,4.21,10.47,10.47,0,0,0,3.27-8.28C574.46,335.79,574.51,324.44,574.51,313.1Z"/><path class="cls-2" d="M280.34,308.49c0-10.19.1-20.38-.06-30.57a9.86,9.86,0,0,0-8.91-9.67,9.72,9.72,0,0,0-10.72,7.56,23.39,23.39,0,0,0-.66,5.69q-.07,31.72,0,63.44a21.28,21.28,0,0,0,.82,6.25,9.85,9.85,0,0,0,16.3,4.21,10.47,10.47,0,0,0,3.27-8.28c-.09-11.34,0-22.68,0-34Q280.34,310.79,280.34,308.49Z"/><path class="cls-2" d="M528.84,335.1a9.52,9.52,0,0,0-10-9.07,9.72,9.72,0,0,0-9.79,8.71,36.79,36.79,0,0,0-.19,4.6c0,21.15,0,5.72,0,26.87a29.52,29.52,0,0,0,.27,5.17,9.91,9.91,0,0,0,13.76,7.11c4.38-2,6.1-5.52,6.09-10.18,0-11.34,0-7.61,0-19h0c0-.63,0-.93,0-1.33s0-1.06,0-2.54C529,342,529.11,338.54,528.84,335.1Z"/><path class="cls-2" d="M529,348c0,1.69,0-4.13,0,0Z"/><path class="cls-2" d="M237.24,313.43v-1.7c0-13.51,0-64.6,0-74.53a40.94,40.94,0,0,0-.24-5.75,10,10,0,0,0-19.64,0,36.4,36.4,0,0,0-.23,5.17c0,20.94,0,87,0,107.94a34.67,34.67,0,0,0,.23,5.18,9.87,9.87,0,0,0,14.5,7.17c4-2.17,5.42-5.68,5.4-10.06-.05-11.14,0-22.29,0-33.43Z"/><path class="cls-2" d="M325.54,335.1a9.52,9.52,0,0,0-10-9.07,9.72,9.72,0,0,0-9.79,8.71,36.79,36.79,0,0,0-.19,4.6c0,21.15,0,5.72,0,26.87a29.52,29.52,0,0,0,.27,5.17,9.91,9.91,0,0,0,13.76,7.11c4.38-2,6.1-5.52,6.09-10.18,0-11.34,0-7.61,0-19h0c0-.71,0-1.07,0-1.5s0-1.14,0-2.37C325.69,342,325.81,338.54,325.54,335.1Z"/><path class="cls-2" d="M305.86,290.58a9.91,9.91,0,0,0,13.76,7.11c4.38-2,6.1-5.52,6.09-10.18,0-11.18,0-20,0-31.19,0,.95-.07-.94-.15-2a9.52,9.52,0,0,0-10-9.07,9.72,9.72,0,0,0-9.79,8.7,36.8,36.8,0,0,0-.19,4.61c0,21.15,0,5.72,0,26.87A29.51,29.51,0,0,0,305.86,290.58Z"/><path class="cls-2" d="M356.69,260.42a9.91,9.91,0,0,0,13.76,7.11c4.38-2,6.1-5.52,6.09-10.18,0-9.57,0-19.13,0-28.7,0-1.5,0-3-.16-4.51a9.52,9.52,0,0,0-10-9.07,9.72,9.72,0,0,0-9.79,8.7,36.9,36.9,0,0,0-.18,4.6c0,21.15,0,5.72,0,26.87A29.62,29.62,0,0,0,356.69,260.42Z"/><path class="cls-2" d="M458.34,260.42a9.91,9.91,0,0,0,13.76,7.11c4.38-2,6.1-5.52,6.09-10.18,0-9.57,0-19.13,0-28.7,0-1.5,0-3-.16-4.51a9.52,9.52,0,0,0-10-9.07,9.72,9.72,0,0,0-9.79,8.7,36.79,36.79,0,0,0-.19,4.6c0,21.15,0,5.72,0,26.87A29.52,29.52,0,0,0,458.34,260.42Z"/><path class="cls-2" d="M417.22,341.1a9.72,9.72,0,0,0-9.79,8.71,36.79,36.79,0,0,0-.19,4.6c0,21.15,0,20.79,0,41.94a29.57,29.57,0,0,0,.27,5.17,9.91,9.91,0,0,0,13.76,7.11c4.38-2,6.1-5.52,6.09-10.18,0-11.34.11-44.83-.17-48.27A9.52,9.52,0,0,0,417.22,341.1Z"/><path class="cls-2" d="M478.18,335.1c-.44-5.51-4.72-9.12-10.14-9.07a9.72,9.72,0,0,0-9.79,8.71,36.76,36.76,0,0,0-.19,4.6c0,21.15,0,20.79,0,41.94a29.52,29.52,0,0,0,.27,5.17,9.91,9.91,0,0,0,13.76,7.11c4.38-2,6.1-5.52,6.09-10.18Z"/><path class="cls-2" d="M417.22,200a9.72,9.72,0,0,0-9.79,8.7,36.79,36.79,0,0,0-.19,4.6c0,21.15,0,20.79,0,41.94a29.57,29.57,0,0,0,.27,5.17,9.91,9.91,0,0,0,13.76,7.11c4.38-2,6.1-5.52,6.09-10.18,0-11.34,0-48.27,0-48.27C426.92,203.56,422.64,200,417.22,200Z"/></svg>