<svg id="Layer_1" data-name="Layer 1" xmlns="http://www.w3.org/2000/svg" viewBox="0 0 792 612"><defs><style>.cls-1{font-size:44.51px;font-family:thmanyahsans-Bold, thmanyah sans;font-weight:700;}.cls-1,.cls-2{fill:#1d1d1b;}</style></defs><title>Artboard 2</title><text class="cls-1" transform="translate(43 376.95)">SAUT<tspan x="0" y="47.89">NAJDI</tspan></text><path class="cls-2" d="M736.38,377v36.37H721.86a27.76,27.76,0,0,1-7.57-1.07,27.44,27.44,0,0,1-3-1l-.19-.09a27.29,27.29,0,0,1-2.69-1.33c-.28-.16-.56-.33-.84-.5q-1-.61-2-1.32c-.26-.19-.52-.38-.78-.58a28,28,0,0,1-2.46-2.16l-16.49-16.49A40.26,40.26,0,0,0,657.37,377h-32V389.6h32a27.46,27.46,0,0,1,19.54,8.09l15.66,15.66H640.94a27.73,27.73,0,0,1-7.59-1.07,27.14,27.14,0,0,1-3-1l-.2-.1a27.31,27.31,0,0,1-2.68-1.33c-.28-.16-.56-.33-.84-.5q-1-.61-2-1.32c-.26-.19-.52-.38-.78-.58a28.19,28.19,0,0,1-2.46-2.16l-16.49-16.49A40,40,0,0,0,576.44,377h-32V389.6h32A27.45,27.45,0,0,1,596,397.7l15.66,15.66H544.41V426H749V377Z"/><path class="cls-2" d="M529.51,391.42l-.4-.9c-6.78-15.12-23.29-15.75-23.29-15.75H486.39v36.77H411.56l3.09-3.09a27.94,27.94,0,0,1,19.75-8.18h23.93V387.51H434.41a40.7,40.7,0,0,0-28.78,11.92L392,413V424.3h6.78l.42-.42v.42h99.93V387.53h6.67c5.93,0,11.64,8.22,11.64,8.22l7.93,17.38L537,407.9Z"/><rect class="cls-2" x="673.33" y="435.24" width="12.62" height="12.62" transform="translate(-113.16 609.91) rotate(-45)"/><rect class="cls-2" x="702.08" y="370.67" width="12.62" height="12.62" transform="translate(-59.08 611.32) rotate(-45)"/><rect class="cls-2" x="431.29" y="433.51" width="12.76" height="12.76" transform="translate(-182.86 438.35) rotate(-45)"/><rect class="cls-2" x="449.34" y="433.51" width="12.76" height="12.76" transform="translate(-177.57 451.08) rotate(-45)"/><path class="cls-2" d="M696.82,232.73a7.91,7.91,0,0,0,11,5.67c3.5-1.59,4.87-4.41,4.86-8.12,0-8.93,0-17.85,0-26.78,0,.77-.05,1.15-.12.28a7.59,7.59,0,0,0-8-7.24,7.76,7.76,0,0,0-7.82,6.95,29.33,29.33,0,0,0-.15,3.67c0,16.87,0,4.57,0,21.44A23.58,23.58,0,0,0,696.82,232.73Z"/><path class="cls-2" d="M591,304c0,1.35,0-3.3,0,0Z"/><path class="cls-2" d="M442.92,239.3a7.59,7.59,0,0,0-8-7.24,7.75,7.75,0,0,0-7.81,6.95,29.27,29.27,0,0,0-.15,3.68c0,6.3,0,7.81,0,8.12,0,0,0,.83,0,8.19a23.55,23.55,0,0,0,.22,4.13,7.91,7.91,0,0,0,11,5.67c3.5-1.59,4.87-4.41,4.86-8.12,0-9.05,0-.94,0-10h0c0-.5,0-.74,0-1.06s0-.85,0-2C443,244.81,443.14,242,442.92,239.3Z"/><path class="cls-2" d="M408,239.3a7.59,7.59,0,0,0-8-7.24,7.75,7.75,0,0,0-7.81,6.95,29.34,29.34,0,0,0-.15,3.68c0,6.3,0,7.81,0,8.12,0,0,0,.83,0,8.19a23.55,23.55,0,0,0,.22,4.13,7.91,7.91,0,0,0,11,5.67c3.5-1.59,4.87-4.41,4.86-8.12,0-9.05,0-.94,0-10h0c0-.5,0-.74,0-1.06s0-.85,0-2C408.08,244.81,408.17,242,408,239.3Z"/><path class="cls-2" d="M443.05,249.6c0,1.35,0-3.3,0,0Z"/><path class="cls-2" d="M479.82,249.6c0,1.35,0-3.3,0,0Z"/><path class="cls-2" d="M582.89,261a7.76,7.76,0,0,0-7.82,6.95,29.44,29.44,0,0,0-.15,3.67c0,16.88,0,16.59,0,33.47a23.62,23.62,0,0,0,.22,4.13,7.91,7.91,0,0,0,11,5.67c3.5-1.59,4.87-4.41,4.86-8.12,0-9.05,0-18.1,0-27.15h0c0-.5,0-.74,0-1.06s0-.85,0-2c0-2.76.09-5.53-.13-8.28A7.59,7.59,0,0,0,582.89,261Z"/><path class="cls-2" d="M749,250.7q0-1.84,0-3.68c0-8.13.08-16.26,0-24.39a7.87,7.87,0,0,0-7.11-7.72,7.76,7.76,0,0,0-8.56,6,18.67,18.67,0,0,0-.53,4.54q-.05,25.31,0,50.63a17,17,0,0,0,.65,5,7.86,7.86,0,0,0,13,3.36,8.36,8.36,0,0,0,2.61-6.61C748.93,268.8,749,259.75,749,250.7Z"/><path class="cls-2" d="M514.21,247c0-8.13.08-16.26,0-24.39a7.87,7.87,0,0,0-7.11-7.72,7.76,7.76,0,0,0-8.56,6,18.65,18.65,0,0,0-.53,4.54q-.05,25.31,0,50.63a17,17,0,0,0,.65,5,7.86,7.86,0,0,0,13,3.36,8.36,8.36,0,0,0,2.61-6.61c-.07-9.05,0-18.1,0-27.15Q514.21,248.86,514.21,247Z"/><path class="cls-2" d="M712.52,268.25a7.59,7.59,0,0,0-8-7.24,7.76,7.76,0,0,0-7.82,6.95,29.32,29.32,0,0,0-.15,3.67c0,16.87,0,4.57,0,21.44a23.58,23.58,0,0,0,.22,4.13,7.91,7.91,0,0,0,11,5.67c3.5-1.59,4.87-4.41,4.86-8.12,0-9.05,0-6.08,0-15.13h0c0-.5,0-.74,0-1.06s0-.85,0-2C712.64,273.77,712.74,271,712.52,268.25Z"/><path class="cls-2" d="M712.65,278.56c0,1.35,0-3.3,0,0Z"/><path class="cls-2" d="M479.82,251V249.6c0-10.78,0-51.55,0-59.47a32.66,32.66,0,0,0-.19-4.59,7.94,7.94,0,0,0-15.68,0,29.06,29.06,0,0,0-.18,4.13c0,16.71,0,69.42,0,86.14a27.67,27.67,0,0,0,.18,4.13,7.88,7.88,0,0,0,11.57,5.72c3.17-1.73,4.33-4.53,4.31-8,0-8.89,0-17.79,0-26.68Z"/><path class="cls-2" d="M550.29,268.25a7.59,7.59,0,0,0-8-7.24,7.76,7.76,0,0,0-7.82,6.95,29.39,29.39,0,0,0-.15,3.67c0,16.87,0,4.57,0,21.44a23.55,23.55,0,0,0,.22,4.13,7.91,7.91,0,0,0,11,5.67c3.5-1.59,4.87-4.41,4.86-8.12,0-9.05,0-6.08,0-15.13h0c0-.56,0-.86,0-1.2s0-.91,0-1.89C550.41,273.77,550.5,271,550.29,268.25Z"/><path class="cls-2" d="M534.58,232.73a7.91,7.91,0,0,0,11,5.67c3.5-1.59,4.87-4.41,4.86-8.12,0-8.92,0-16,0-24.89,0,.76-.05-.75-.12-1.61a7.59,7.59,0,0,0-8-7.24,7.76,7.76,0,0,0-7.82,6.95,29.4,29.4,0,0,0-.15,3.67c0,16.87,0,4.57,0,21.44A23.55,23.55,0,0,0,534.58,232.73Z"/><path class="cls-2" d="M575.15,208.66a7.91,7.91,0,0,0,11,5.67c3.5-1.59,4.87-4.41,4.86-8.12,0-7.63,0-15.27,0-22.9,0-1.2,0-2.4-.12-3.6a7.59,7.59,0,0,0-8-7.24,7.76,7.76,0,0,0-7.82,6.95,29.47,29.47,0,0,0-.15,3.67c0,16.87,0,4.57,0,21.44A23.62,23.62,0,0,0,575.15,208.66Z"/><path class="cls-2" d="M672,179.71a7.59,7.59,0,0,0-8-7.24,7.76,7.76,0,0,0-7.82,6.95,29.4,29.4,0,0,0-.15,3.67c0,16.87,0,4.57,0,21.44a23.51,23.51,0,0,0,.22,4.13,7.91,7.91,0,0,0,11,5.67c3.5-1.59,4.87-4.41,4.86-8.12,0-7.63,0-15.27,0-22.9C672.08,182.1,672.06,180.9,672,179.71Z"/><path class="cls-2" d="M631.41,280.28a7.59,7.59,0,0,0-8-7.24,7.76,7.76,0,0,0-7.82,6.95,29.32,29.32,0,0,0-.15,3.67c0,16.87,0,16.59,0,33.47a23.62,23.62,0,0,0,.22,4.13,7.91,7.91,0,0,0,11,5.67c3.5-1.59,4.87-4.41,4.86-8.12C631.51,309.75,631.62,283,631.41,280.28Z"/><path class="cls-2" d="M664,261a7.76,7.76,0,0,0-7.82,6.95,29.37,29.37,0,0,0-.15,3.67c0,16.88,0,16.59,0,33.47a23.52,23.52,0,0,0,.22,4.13,7.91,7.91,0,0,0,11,5.67c3.5-1.59,4.87-4.41,4.86-8.12V268.25A7.71,7.71,0,0,0,664,261Z"/><path class="cls-2" d="M615.7,208.66a7.91,7.91,0,0,0,11,5.67c3.5-1.59,4.87-4.41,4.86-8.12,0-9.05,0-38.52,0-38.52a8,8,0,0,0-15.91-.29,29.32,29.32,0,0,0-.15,3.67c0,16.87,0,16.59,0,33.47A23.62,23.62,0,0,0,615.7,208.66Z"/><path class="cls-2" d="M291.34,221.87a7.56,7.56,0,0,0-7.93-7.21,7.72,7.72,0,0,0-7.78,6.92,29.17,29.17,0,0,0-.15,3.66q0,25.21,0,50.43a23.51,23.51,0,0,0,.22,4.11,7.88,7.88,0,0,0,10.94,5.65c3.48-1.58,4.85-4.39,4.84-8.09,0-9,0-18,0-27h0q0-10.09,0-20.17C291.46,227.36,291.56,224.6,291.34,221.87Z"/><path class="cls-2" d="M321.11,184.16a7.72,7.72,0,0,0-7.78,6.92,29.22,29.22,0,0,0-.15,3.66c0,6.76,0,8,0,8.12s0,1.36,0,8.12c0,1.37,0,8.76.22,10.1a7.88,7.88,0,0,0,10.94,5.65c3.48-1.58,4.85-4.39,4.84-8.09,0-9,0-6.93,0-15.95h0c0-.56,0-.85,0-1.19s0-.9,0-1.88c0-2.75.09-5.51-.13-8.25A7.56,7.56,0,0,0,321.11,184.16Z"/><path class="cls-2" d="M329,275.58a7.56,7.56,0,0,0-7.93-7.21,7.73,7.73,0,0,0-7.78,6.92,29.24,29.24,0,0,0-.15,3.66c0,6.76,0,14,0,14.11s0,1.36,0,8.12a23.54,23.54,0,0,0,.22,4.11,7.88,7.88,0,0,0,10.94,5.65c3.48-1.58,4.85-4.39,4.84-8.09,0-9,0-.94,0-10h0c0-.56,0-.85,0-1.2s0-.9,0-1.88C329.16,287.06,329.25,278.31,329,275.58Z"/><path class="cls-2" d="M213.2,185.18a7.76,7.76,0,0,0-6.86,6.9,31.69,31.69,0,0,0-.07,3.67q0,27.3,0,54.61t0,54.61a32.11,32.11,0,0,0,.06,3.67,7.92,7.92,0,0,0,6.82,7c4.08.45,7.42-1.45,8.65-5.19a16.14,16.14,0,0,0,.73-4.94q.06-55.07,0-110.13a16.29,16.29,0,0,0-.73-4.95C220.59,186.61,217.31,184.73,213.2,185.18Z"/><path class="cls-2" d="M179,278.57a7.56,7.56,0,0,0-7.93-7.21,7.73,7.73,0,0,0-7.78,6.92,29.24,29.24,0,0,0-.15,3.66c0,6.76,0,8,0,8.12s0,1.36,0,8.12a23.51,23.51,0,0,0,.22,4.11,7.88,7.88,0,0,0,10.94,5.65c3.48-1.58,4.85-4.39,4.84-8.09,0-9,0-.94,0-10h0c0-.5,0-.74,0-1.06s0-.84,0-2C179.12,284.07,179.22,281.31,179,278.57Z"/><path class="cls-2" d="M139.33,274.68a7.56,7.56,0,0,0-7.93-7.21,7.73,7.73,0,0,0-7.78,6.92,29.09,29.09,0,0,0-.15,3.66c0,6.76,0,8,0,8.12s0,1.36,0,8.12a23.47,23.47,0,0,0,.22,4.11,7.88,7.88,0,0,0,10.94,5.65c3.48-1.58,4.85-4.39,4.84-8.09,0-9,0-.94,0-10h0c0-.56,0-.85,0-1.2s0-.9,0-1.88C139.45,280.18,139.54,277.42,139.33,274.68Z"/><path class="cls-2" d="M59,250.59q0-12.37,0-24.74a32.52,32.52,0,0,0-.19-4.57,7.91,7.91,0,0,0-15.61,0,28.85,28.85,0,0,0-.18,4.11q0,25,0,49.95a27.46,27.46,0,0,0,.18,4.11,7.85,7.85,0,0,0,11.52,5.7c3.16-1.72,4.31-4.51,4.29-8,0-8.86,0-17.72,0-26.58Z"/><path class="cls-2" d="M99.1,267.81a7.56,7.56,0,0,0-7.93-7.21,7.73,7.73,0,0,0-7.78,6.92,29.09,29.09,0,0,0-.15,3.66c0,6.76,0,8,0,8.12s0,1.36,0,8.12a23.47,23.47,0,0,0,.22,4.11,7.88,7.88,0,0,0,10.94,5.65c3.48-1.58,4.85-4.39,4.84-8.09,0-9,0-.94,0-10h0c0-.56,0-.85,0-1.2s0-.9,0-1.88C99.22,273.31,99.31,270.55,99.1,267.81Z"/><circle class="cls-2" cx="153.15" cy="200.3" r="15.18"/><path class="cls-2" d="M124.5,196.52A15.2,15.2,0,1,0,106,215,15.09,15.09,0,0,0,124.5,196.52Z"/><rect class="cls-2" x="353.74" y="160.57" width="17.47" height="218.02" rx="2.24" ry="2.24"/></svg>