<svg id="Layer_1" data-name="Layer 1" xmlns="http://www.w3.org/2000/svg" xmlns:xlink="http://www.w3.org/1999/xlink" viewBox="0 0 792 612"><defs><style>.cls-1{fill:url(#linear-gradient);}.cls-2{fill:url(#linear-gradient-2);}.cls-3{fill:url(#linear-gradient-3);}.cls-4{fill:url(#linear-gradient-4);}.cls-5{fill:url(#linear-gradient-5);}.cls-6{fill:url(#linear-gradient-6);}.cls-7{fill:url(#linear-gradient-7);}.cls-8{fill:url(#linear-gradient-8);}.cls-9{fill:url(#linear-gradient-9);}.cls-10{fill:url(#linear-gradient-10);}.cls-11{fill:url(#linear-gradient-11);}.cls-12{fill:url(#linear-gradient-12);}.cls-13{fill:url(#linear-gradient-13);}.cls-14{fill:url(#linear-gradient-14);}.cls-15{fill:url(#linear-gradient-15);}.cls-16{fill:url(#linear-gradient-16);}.cls-17{fill:url(#linear-gradient-17);}.cls-18{fill:url(#linear-gradient-18);}.cls-19{fill:url(#linear-gradient-19);}.cls-20{fill:url(#linear-gradient-20);}.cls-21{fill:url(#linear-gradient-21);}.cls-22{fill:url(#linear-gradient-23);}.cls-23{fill:url(#linear-gradient-24);}.cls-24{fill:url(#linear-gradient-25);}.cls-25{fill:url(#linear-gradient-28);}.cls-26{fill:url(#linear-gradient-30);}.cls-27{fill:url(#linear-gradient-32);}</style><linearGradient id="linear-gradient" x1="37.03" y1="314.82" x2="718.16" y2="314.82" gradientUnits="userSpaceOnUse"><stop offset="0.12" stop-color="#47beda"/><stop offset="0.5" stop-color="#6c4293"/><stop offset="0.85" stop-color="#e41037"/></linearGradient><linearGradient id="linear-gradient-2" x1="354.01" y1="405.96" x2="381.31" y2="405.96" xlink:href="#linear-gradient"/><linearGradient id="linear-gradient-3" x1="414.07" y1="424.38" x2="445.53" y2="424.38" xlink:href="#linear-gradient"/><linearGradient id="linear-gradient-4" x1="362.95" y1="228.84" x2="372.35" y2="228.84" xlink:href="#linear-gradient"/><linearGradient id="linear-gradient-5" x1="331.13" y1="225.33" x2="404.18" y2="225.33" xlink:href="#linear-gradient"/><linearGradient id="linear-gradient-6" x1="311.23" y1="218.26" x2="424.06" y2="218.26" xlink:href="#linear-gradient"/><linearGradient id="linear-gradient-7" x1="536.42" y1="194.47" x2="565.79" y2="194.47" xlink:href="#linear-gradient"/><linearGradient id="linear-gradient-8" x1="487.24" y1="214.45" x2="496.64" y2="214.45" xlink:href="#linear-gradient"/><linearGradient id="linear-gradient-9" x1="437.86" y1="218.65" x2="545.99" y2="218.65" xlink:href="#linear-gradient"/><linearGradient id="linear-gradient-10" x1="482.53" y1="228.76" x2="501.33" y2="228.76" xlink:href="#linear-gradient"/><linearGradient id="linear-gradient-11" x1="489" y1="227.92" x2="494.87" y2="227.92" xlink:href="#linear-gradient"/><linearGradient id="linear-gradient-12" x1="484.88" y1="225.86" x2="498.99" y2="225.86" xlink:href="#linear-gradient"/><linearGradient id="linear-gradient-13" x1="479.51" y1="223.19" x2="504.36" y2="223.19" xlink:href="#linear-gradient"/><linearGradient id="linear-gradient-14" x1="99.43" y1="276.75" x2="643.21" y2="276.75" xlink:href="#linear-gradient"/><linearGradient id="linear-gradient-15" x1="353.16" y1="407.98" x2="382.44" y2="407.98" xlink:href="#linear-gradient"/><linearGradient id="linear-gradient-16" x1="99.43" y1="327.21" x2="643.21" y2="327.21" xlink:href="#linear-gradient"/><linearGradient id="linear-gradient-17" x1="45.89" y1="327.21" x2="589.68" y2="327.21" xlink:href="#linear-gradient"/><linearGradient id="linear-gradient-18" x1="99.43" y1="324.7" x2="132.53" y2="324.7" xlink:href="#linear-gradient"/><linearGradient id="linear-gradient-19" x1="181.03" y1="324.7" x2="214.13" y2="324.7" xlink:href="#linear-gradient"/><linearGradient id="linear-gradient-20" x1="99.43" y1="384.69" x2="643.21" y2="384.69" xlink:href="#linear-gradient"/><linearGradient id="linear-gradient-21" x1="99.43" y1="327.21" x2="643.21" y2="327.21" xlink:href="#linear-gradient"/><linearGradient id="linear-gradient-23" x1="99.43" y1="375.48" x2="643.21" y2="375.48" xlink:href="#linear-gradient"/><linearGradient id="linear-gradient-24" x1="538.27" y1="369.04" x2="569.96" y2="369.04" xlink:href="#linear-gradient"/><linearGradient id="linear-gradient-25" x1="99.43" y1="299.65" x2="643.21" y2="299.65" xlink:href="#linear-gradient"/><linearGradient id="linear-gradient-28" x1="99.43" y1="239.9" x2="643.21" y2="239.9" xlink:href="#linear-gradient"/><linearGradient id="linear-gradient-30" x1="99.43" y1="403.1" x2="643.21" y2="403.1" xlink:href="#linear-gradient"/><linearGradient id="linear-gradient-32" x1="99.43" y1="230.69" x2="643.21" y2="230.69" xlink:href="#linear-gradient"/></defs><title>Artboard 7</title><path class="cls-1" d="M643.47,195.51c-19-23.11-39.91-44-56-59.71-18.26-17.77-39-37.92-62.27-54.74-23.57-17-46.22-27.89-69.24-33.27a149.6,149.6,0,0,0-74.82,1.83c-52.74,15-93.27,55.55-129,91.33L250,143c-3.51,3.46-7.78,7.87-12.26,12.58a14.44,14.44,0,0,0,21,19.88c4.22-4.45,8.25-8.61,11.64-12l2.16-2.16c34.9-34.91,71-71,116.5-84a120.76,120.76,0,0,1,60.34-1.48c19.23,4.49,38.5,13.84,58.91,28.57,21.59,15.57,41.48,34.93,59,52,15.57,15.14,35.76,35.34,53.85,57.34C654.4,254.29,668.49,294,663,331.76c-6.75,46.63-40.95,85.61-72.47,118.48-16.36,17.06-35.94,37-57.13,55.16-23,19.76-41.69,32.28-60.58,40.59a125.12,125.12,0,0,1-60.46,10.45c-20-1.72-40.45-8.84-60.64-21.15-18.25-11.13-36.2-25.59-58.19-46.88l-8.78-8.47c-8.78-8.46-17.58-16.93-26.18-25.58a14.44,14.44,0,1,0-20.5,20.35c8.75,8.81,17.69,17.43,26.64,26l8.73,8.42C297.05,532,316.55,547.67,336.7,560c24.05,14.66,48.69,23.16,73.22,25.25q6.11.52,12.28.53a155.23,155.23,0,0,0,62.26-13.3c27.7-12.19,50.77-30.51,67.78-45.12,22.11-19,42.31-39.51,59.16-57.08C646,434.13,683.63,391,691.6,335.9,698.28,289.72,682.09,242.48,643.47,195.51Z"/><path class="cls-2" d="M367.66,406.69c0,2.07,0-5.06,0,0Z"/><path class="cls-3" d="M429.8,425.11c0,2.07,0-5.06,0,0Z"/><path class="cls-4" d="M367.66,228.61c0,.12,0,.23,0,.35S367.65,229,367.66,228.61Z"/><path class="cls-5" d="M367.66,222.05c0,2.18,0,4.37,0,6.56C367.66,227.59,367.66,224.91,367.66,222.05Z"/><path class="cls-6" d="M367.66,214.47c0,.23,0,.46,0,.8h0q0,3.26,0,6.51c0,.09,0,.18,0,.27C367.66,219,367.66,215.9,367.66,214.47Z"/><path class="cls-7" d="M551.1,195.25c0,2.21,0-5.39,0,0Z"/><path class="cls-8" d="M491.94,215.27c0-.77,0-1.13,0-1.63C491.94,213.54,491.94,214.26,491.94,215.27Z"/><path class="cls-9" d="M491.94,215.27h0q0,3.26,0,6.51c0,.08,0,.17,0,.25C491.94,219.45,491.94,216.89,491.94,215.27Z"/><path class="cls-10" d="M491.94,228.46c0,.17,0,.33,0,.5S491.93,229,491.94,228.46Z"/><path class="cls-11" d="M491.94,227.37c0,.44,0,.81,0,1.09C491.94,228.1,491.93,227.74,491.94,227.37Z"/><path class="cls-12" d="M491.94,224.35c0,1,0,2,0,3C491.94,226.57,491.94,225.52,491.94,224.35Z"/><path class="cls-13" d="M491.94,222q0,1.21,0,2.32C491.94,223.58,491.94,222.81,491.94,222Z"/><path class="cls-14" d="M529.87,299.59a12.12,12.12,0,0,0,16.81,8.68c5.36-2.43,7.46-6.75,7.44-12.44,0-13.67,0-27.34,0-41,0,1.17-.08,1.75-.19.43-.53-6.74-5.56-11.14-12.19-11.09a11.88,11.88,0,0,0-12,10.64,45,45,0,0,0-.23,5.63c0,25.84,0,7,0,32.83A36.06,36.06,0,0,0,529.87,299.59Z"/><path class="cls-15" d="M367.8,408.71c0,2.07,0-5.05,0,0Z"/><path class="cls-16" d="M141.08,309.65c-.53-6.74-5.56-11.14-12.19-11.09a11.87,11.87,0,0,0-12,10.64,44.84,44.84,0,0,0-.23,5.63c0,9.65,0,12,0,12.43,0,0,0,1.28,0,12.54a36.08,36.08,0,0,0,.33,6.32,12.12,12.12,0,0,0,16.81,8.68c5.35-2.43,7.46-6.75,7.44-12.44,0-13.86,0-1.45,0-15.3h0c0-.77,0-1.13,0-1.63s0-1.3,0-3.1C141.27,318.1,141.41,313.85,141.08,309.65Z"/><path class="cls-17" d="M87.54,309.65C87,302.91,82,298.51,75.35,298.56a11.87,11.87,0,0,0-12,10.64,44.84,44.84,0,0,0-.23,5.63c0,9.65,0,12,0,12.43,0,0,0,1.28,0,12.54a36.08,36.08,0,0,0,.33,6.32,12.12,12.12,0,0,0,16.81,8.68c5.35-2.43,7.46-6.75,7.44-12.44,0-13.86,0-1.45,0-15.3h0c0-.77,0-1.13,0-1.63s0-1.3,0-3.1C87.73,318.1,87.87,313.85,87.54,309.65Z"/><path class="cls-18" d="M141.28,325.43c0,2.07,0-5.05,0,0Z"/><path class="cls-19" d="M197.58,325.43c0,2.07,0-5.05,0,0Z"/><path class="cls-20" d="M355.41,342.9a11.88,11.88,0,0,0-12,10.64,45.05,45.05,0,0,0-.23,5.62c0,25.84,0,25.41,0,51.25a36.21,36.21,0,0,0,.33,6.32,12.12,12.12,0,0,0,16.81,8.68c5.35-2.43,7.46-6.75,7.44-12.44,0-13.86,0-27.72,0-41.58h0c0-.77,0-1.13,0-1.63s0-1.3,0-3.1c0-4.23.14-8.47-.19-12.68C367.06,347.25,362,342.85,355.41,342.9Z"/><path class="cls-21" d="M609.72,327.11q0-2.82,0-5.64c0-12.45.12-24.9-.07-37.35a12,12,0,0,0-10.89-11.82,11.88,11.88,0,0,0-13.1,9.24,28.58,28.58,0,0,0-.81,7q-.08,38.76,0,77.52a26,26,0,0,0,1,7.63,12,12,0,0,0,19.92,5.15c2.94-2.72,4-6.1,4-10.11C609.66,354.83,609.72,341,609.72,327.11Z"/><path class="cls-21" d="M250.25,321.47c0-12.45.12-24.9-.07-37.35a12,12,0,0,0-10.89-11.82,11.88,11.88,0,0,0-13.11,9.24,28.58,28.58,0,0,0-.81,7q-.08,38.76,0,77.52a26,26,0,0,0,1,7.63,12,12,0,0,0,19.92,5.15c2.94-2.72,4-6.1,4-10.11-.11-13.86,0-27.72,0-41.58Q250.25,324.29,250.25,321.47Z"/><path class="cls-22" d="M553.91,354c-.53-6.74-5.56-11.14-12.19-11.09a11.88,11.88,0,0,0-12,10.64,45,45,0,0,0-.23,5.63c0,25.84,0,7,0,32.83a36.07,36.07,0,0,0,.33,6.32A12.12,12.12,0,0,0,546.68,407c5.36-2.43,7.46-6.75,7.44-12.44,0-13.86,0-9.3,0-23.16h0c0-.77,0-1.13,0-1.63s0-1.3,0-3.1C554.1,362.44,554.24,358.19,553.91,354Z"/><path class="cls-23" d="M554.11,369.77c0,2.07,0-5.05,0,0Z"/><path class="cls-24" d="M197.58,327.51v-2.08c0-16.51,0-78.94,0-91.07a50,50,0,0,0-.29-7,12.16,12.16,0,0,0-24,0,44.48,44.48,0,0,0-.28,6.32c0,25.59,0,106.3,0,131.9a42.36,42.36,0,0,0,.28,6.32A12.06,12.06,0,0,0,191,380.67c4.85-2.65,6.63-6.94,6.6-12.3-.07-13.62,0-27.24,0-40.86Z"/><path class="cls-22" d="M305.49,354c-.53-6.74-5.56-11.14-12.19-11.09a11.88,11.88,0,0,0-12,10.64,45,45,0,0,0-.23,5.63c0,25.84,0,7,0,32.83a36.07,36.07,0,0,0,.33,6.32A12.12,12.12,0,0,0,298.25,407c5.35-2.43,7.46-6.75,7.44-12.44,0-13.86,0-9.3,0-23.16h0c0-.86,0-1.31,0-1.84s0-1.39,0-2.9C305.67,362.44,305.82,358.19,305.49,354Z"/><path class="cls-14" d="M281.44,299.59a12.11,12.11,0,0,0,16.81,8.68c5.35-2.43,7.46-6.75,7.44-12.44,0-13.66,0-24.45,0-38.11,0,1.16-.08-1.14-.19-2.46-.53-6.74-5.56-11.14-12.19-11.09a11.88,11.88,0,0,0-12,10.64,45,45,0,0,0-.23,5.63c0,25.84,0,7,0,32.83A36.06,36.06,0,0,0,281.44,299.59Z"/><path class="cls-25" d="M343.55,262.73a12.11,12.11,0,0,0,16.81,8.68c5.35-2.43,7.46-6.75,7.44-12.44,0-11.69,0-23.38,0-35.07,0-1.84,0-3.68-.19-5.51-.53-6.74-5.56-11.14-12.19-11.09a11.88,11.88,0,0,0-12,10.64,45.09,45.09,0,0,0-.23,5.63c0,25.84,0,7,0,32.83A36.2,36.2,0,0,0,343.55,262.73Z"/><path class="cls-25" d="M467.76,262.73a12.11,12.11,0,0,0,16.81,8.68C489.93,269,492,264.67,492,259c0-11.69,0-23.38,0-35.07,0-1.84,0-3.68-.19-5.51-.53-6.74-5.56-11.14-12.19-11.09a11.88,11.88,0,0,0-12,10.64,45,45,0,0,0-.23,5.63c0,25.84,0,7,0,32.83A36.07,36.07,0,0,0,467.76,262.73Z"/><path class="cls-26" d="M417.51,361.32a11.88,11.88,0,0,0-12,10.64,45,45,0,0,0-.23,5.63c0,25.84,0,25.41,0,51.25a36.14,36.14,0,0,0,.34,6.32,12.11,12.11,0,0,0,16.81,8.68c5.36-2.43,7.46-6.75,7.44-12.44,0-13.86.13-54.78-.2-59C429.17,365.67,424.14,361.26,417.51,361.32Z"/><path class="cls-20" d="M492,354c-.53-6.74-5.76-11.14-12.39-11.09a11.88,11.88,0,0,0-12,10.64,44.92,44.92,0,0,0-.23,5.62c0,25.84,0,25.41,0,51.25a36.08,36.08,0,0,0,.33,6.32,12.12,12.12,0,0,0,16.81,8.68C489.93,423,492,418.67,492,413Z"/><path class="cls-27" d="M417.51,188.9a11.88,11.88,0,0,0-12,10.64,45,45,0,0,0-.23,5.63c0,25.84,0,25.41,0,51.25a36.14,36.14,0,0,0,.34,6.32,12.11,12.11,0,0,0,16.81,8.68c5.36-2.43,7.46-6.75,7.44-12.44,0-13.86,0-59,0-59C429.37,193.25,424.14,188.85,417.51,188.9Z"/></svg>