<svg id="Layer_1" data-name="Layer 1" xmlns="http://www.w3.org/2000/svg" xmlns:xlink="http://www.w3.org/1999/xlink" viewBox="0 0 792 612"><defs><style>.cls-1{fill:url(#linear-gradient);}.cls-2{fill:url(#linear-gradient-2);}.cls-3{fill:url(#linear-gradient-3);}.cls-4{fill:url(#linear-gradient-4);}.cls-5{fill:url(#linear-gradient-5);}.cls-6{fill:url(#linear-gradient-6);}.cls-7{fill:url(#linear-gradient-7);}.cls-8{fill:url(#linear-gradient-8);}.cls-9{fill:url(#linear-gradient-10);}.cls-10{fill:url(#linear-gradient-11);}.cls-11{fill:url(#linear-gradient-13);}.cls-12{fill:url(#linear-gradient-14);}.cls-13{fill:url(#linear-gradient-15);}.cls-14{fill:url(#linear-gradient-16);}.cls-15{fill:url(#linear-gradient-17);}.cls-16{fill:url(#linear-gradient-18);}.cls-17{fill:url(#linear-gradient-19);}.cls-18{fill:url(#linear-gradient-20);}.cls-19{fill:url(#linear-gradient-21);}.cls-20{fill:url(#linear-gradient-22);}.cls-21{fill:url(#linear-gradient-23);}.cls-22{fill:url(#linear-gradient-24);}.cls-23{fill:url(#linear-gradient-25);}.cls-24{fill:url(#linear-gradient-26);}.cls-25{fill:url(#linear-gradient-27);}.cls-26{fill:url(#linear-gradient-28);}</style><linearGradient id="linear-gradient" x1="84.06" y1="329.86" x2="735.38" y2="329.86" gradientUnits="userSpaceOnUse"><stop offset="0.12" stop-color="#49bfda"/><stop offset="0.5" stop-color="#6c4293"/><stop offset="0.85" stop-color="#e31438"/></linearGradient><linearGradient id="linear-gradient-2" x1="84.06" y1="329.63" x2="735.38" y2="329.63" xlink:href="#linear-gradient"/><linearGradient id="linear-gradient-3" x1="84.06" y1="330.57" x2="735.38" y2="330.57" xlink:href="#linear-gradient"/><linearGradient id="linear-gradient-4" x1="84.06" y1="330.11" x2="735.38" y2="330.11" xlink:href="#linear-gradient"/><linearGradient id="linear-gradient-5" x1="84.06" y1="330.29" x2="735.38" y2="330.29" xlink:href="#linear-gradient"/><linearGradient id="linear-gradient-6" x1="84.06" y1="330.34" x2="735.38" y2="330.34" xlink:href="#linear-gradient"/><linearGradient id="linear-gradient-7" x1="84.06" y1="330.73" x2="735.38" y2="330.73" xlink:href="#linear-gradient"/><linearGradient id="linear-gradient-8" x1="84.06" y1="330.88" x2="735.38" y2="330.88" xlink:href="#linear-gradient"/><linearGradient id="linear-gradient-10" x1="84.06" y1="330.65" x2="735.38" y2="330.65" xlink:href="#linear-gradient"/><linearGradient id="linear-gradient-11" x1="84.06" y1="330.67" x2="735.38" y2="330.67" xlink:href="#linear-gradient"/><linearGradient id="linear-gradient-13" x1="84.06" y1="330.92" x2="735.38" y2="330.92" xlink:href="#linear-gradient"/><linearGradient id="linear-gradient-14" x1="84.06" y1="330.61" x2="735.38" y2="330.61" gradientTransform="translate(0.5 -0.83) rotate(0.09)" xlink:href="#linear-gradient"/><linearGradient id="linear-gradient-15" x1="84.06" y1="330.98" x2="735.38" y2="330.98" xlink:href="#linear-gradient"/><linearGradient id="linear-gradient-16" x1="84.06" y1="330.25" x2="735.38" y2="330.25" gradientTransform="translate(426.97 232.78) rotate(89.9)" xlink:href="#linear-gradient"/><linearGradient id="linear-gradient-17" x1="84.06" y1="330.46" x2="735.38" y2="330.46" gradientTransform="translate(1.16 -0.93) rotate(0.2)" xlink:href="#linear-gradient"/><linearGradient id="linear-gradient-18" x1="84.06" y1="330.44" x2="735.38" y2="330.44" xlink:href="#linear-gradient"/><linearGradient id="linear-gradient-19" x1="84.06" y1="331.38" x2="735.38" y2="331.38" gradientTransform="translate(0.61 -0.89) rotate(0.1)" xlink:href="#linear-gradient"/><linearGradient id="linear-gradient-20" x1="84.06" y1="333.05" x2="735.38" y2="333.05" xlink:href="#linear-gradient"/><linearGradient id="linear-gradient-21" x1="84.06" y1="325.79" x2="735.38" y2="325.79" gradientTransform="translate(719.5 -70.44) rotate(89.8)" xlink:href="#linear-gradient"/><linearGradient id="linear-gradient-22" x1="84.06" y1="330.55" x2="735.38" y2="330.55" gradientTransform="translate(1.15 -0.52) rotate(0.2)" xlink:href="#linear-gradient"/><linearGradient id="linear-gradient-23" x1="84.06" y1="330.5" x2="735.38" y2="330.5" gradientTransform="translate(0.5 -0.44) rotate(0.09)" xlink:href="#linear-gradient"/><linearGradient id="linear-gradient-24" x1="84.06" y1="331.42" x2="735.38" y2="331.42" xlink:href="#linear-gradient"/><linearGradient id="linear-gradient-25" x1="84.06" y1="330.29" x2="735.38" y2="330.29" gradientTransform="translate(849.58 -193.56) rotate(89.69)" xlink:href="#linear-gradient"/><linearGradient id="linear-gradient-26" x1="84.06" y1="330.3" x2="735.38" y2="330.3" gradientTransform="translate(832.4 -174.76) rotate(89.8)" xlink:href="#linear-gradient"/><linearGradient id="linear-gradient-27" x1="84.06" y1="330.84" x2="735.38" y2="330.84" xlink:href="#linear-gradient"/><linearGradient id="linear-gradient-28" x1="84.06" y1="331.36" x2="735.38" y2="331.36" xlink:href="#linear-gradient"/></defs><title>Artboard 10</title><rect class="cls-1" x="433.17" y="234.76" width="11.3" height="190.21" rx="5.59" ry="5.59"/><path class="cls-2" d="M645.09,238.58h-.46c-2.68,0-4.86,2.58-4.86,5.76V418.41a2.27,2.27,0,0,0,2.27,2.27h5.65a2.27,2.27,0,0,0,2.27-2.27V244.35C650,241.16,647.77,238.58,645.09,238.58Z"/><path class="cls-3" d="M335.38,246.11q0-5-4.36-5.17a2.84,2.84,0,0,0-1.65.44,12,12,0,0,0-3.86,3.59,2,2,0,0,0-.31,1.08q-.4,50.7-.4,84.52t.42,84.52a2,2,0,0,0,.31,1.08,12,12,0,0,0,3.86,3.59,2.84,2.84,0,0,0,1.65.44q4.38-.21,4.38-5.17,0-16.62,0-84.46Z"/><rect class="cls-4" x="558.44" y="241.04" width="10.34" height="178.14" rx="5.11" ry="5.11"/><rect class="cls-5" x="618.83" y="251.21" width="10.45" height="158.16" rx="5.17" ry="5.17"/><path class="cls-6" d="M417.53,257.2h-.27a5.65,5.65,0,0,0-5.73,5.57v138.1a2.61,2.61,0,0,0,2.61,2.61h6.49a2.61,2.61,0,0,0,2.61-2.61V262.77A5.65,5.65,0,0,0,417.53,257.2Z"/><rect class="cls-7" x="303.24" y="257.58" width="10.68" height="146.29" rx="4.59" ry="4.59"/><rect class="cls-8" x="240.43" y="258.12" width="9.99" height="145.52" rx="4.05" ry="4.05"/><rect class="cls-4" x="456.11" y="260.72" width="11.49" height="138.79" rx="5.65" ry="5.65"/><rect class="cls-9" x="346.68" y="265.35" width="10.22" height="130.61" rx="5.03" ry="5.03"/><rect class="cls-10" x="117.97" y="267.71" width="11.41" height="125.92" rx="5.53" ry="5.53"/><rect class="cls-9" x="173.24" y="271.76" width="10.57" height="117.77" rx="4.78" ry="4.78"/><rect class="cls-11" x="661.42" y="272.4" width="9.57" height="117.04" rx="4.19" ry="4.19"/><rect class="cls-12" x="536.75" y="274.91" width="10.41" height="111.4" rx="5.13" ry="5.13" transform="translate(-0.5 0.83) rotate(-0.09)"/><path class="cls-13" d="M586.34,276.47h-5.11a2.15,2.15,0,0,0-2.15,2.15V379.18c0,3.48,2.09,6.3,4.67,6.3h.08c2.58,0,4.67-2.82,4.67-6.3V278.62A2.15,2.15,0,0,0,586.34,276.47Z"/><rect class="cls-14" x="48.53" y="324.52" width="96.72" height="11.45" rx="4.88" ry="4.88" transform="translate(-233.52 426.57) rotate(-89.9)"/><rect class="cls-15" x="261.43" y="283.48" width="10.61" height="93.95" rx="4.25" ry="4.25" transform="translate(-1.15 0.93) rotate(-0.2)"/><path class="cls-16" d="M223.75,283.93h-.58c-3.13,0-5.68,3.74-5.69,8.38l-.13,82v0A2.67,2.67,0,0,0,220,377h6.57a2.67,2.67,0,0,0,2.67-2.65l.13-82h0C229.41,287.7,226.89,283.93,223.75,283.93Z"/><rect class="cls-17" x="478.9" y="286.13" width="9.68" height="90.49" rx="4.55" ry="4.55" transform="translate(-0.61 0.89) rotate(-0.1)"/><path class="cls-18" d="M607.2,287.71H602a2.21,2.21,0,0,0-2.21,2.21L599.67,366c0,6.82,2,12.35,4.5,12.35h.58c2.49,0,4.52-5.53,4.53-12.35l.13-76.12A2.21,2.21,0,0,0,607.2,287.71Z"/><rect class="cls-19" x="360.05" y="320.62" width="70.09" height="10.34" rx="4.76" ry="4.76" transform="translate(67.93 719.75) rotate(-89.8)"/><rect class="cls-20" x="146.14" y="294.86" width="10.57" height="71.39" rx="4.28" ry="4.28" transform="translate(-1.14 0.53) rotate(-0.2)"/><rect class="cls-21" x="282.68" y="295.57" width="10.49" height="69.86" rx="5.13" ry="5.13" transform="translate(-0.5 0.44) rotate(-0.09)"/><rect class="cls-22" x="368.68" y="296.45" width="10.53" height="69.93" rx="4.38" ry="4.38"/><rect class="cls-23" x="492.81" y="325.48" width="58.56" height="9.61" rx="4.5" ry="4.5" transform="translate(189.02 850.6) rotate(-89.69)"/><rect class="cls-24" x="482.07" y="325.85" width="43.65" height="8.91" rx="4.34" ry="4.34" transform="translate(171.8 833.02) rotate(-89.8)"/><rect class="cls-25" x="196.49" y="309.07" width="9.91" height="43.54" rx="4.19" ry="4.19"/><rect class="cls-26" x="682.5" y="285.75" width="11.07" height="91.22" rx="4.61" ry="4.61"/></svg>